<?xml version="1.0" encoding="utf-8"?>

<!DOCTYPE svg PUBLIC "-//W3C//DTD SVG 1.1//EN" "http://www.w3.org/Graphics/SVG/1.1/DTD/svg11.dtd">
<svg version="1.1" id="Layer_1" xmlns="http://www.w3.org/2000/svg" xmlns:xlink="http://www.w3.org/1999/xlink" x="0px" y="0px"
	 viewBox="0 0 1745.686 1714.417" enable-background="new 0 0 1745.686 1714.417" xml:space="preserve">
<g>
	<path fill="#020202" d="M140.889,57.525c0.208-0.72,1.077-0.016,1.461,0.187c13.465,10.65,23.343,1.604,35.963,20.237
		c0.694-2.737,0.951-8.73,6.888-14.079c1.05,15.263,20.328,14.245,25.349,32.717c2.628-2.82,5.539-5.656,9.468-6.451
		c-0.336,11.94,6.736,16.059,4.329,23.734c2.868-0.794,5.795-0.394,8.588,0.501c-1.013,9.449-4.488,11.108,8.018,43.693
		c7.285,20.042,35.188,50.386,32.861,178.303c-4.427,63.865-6.877,77.274-6.877,77.274c46.437-4.819,29.16-4.108,63.146-1.231
		c83.906,13.653,132.058,61.724,148.011,128.558c32.242,134.468-60.032,276.965-81.613,331.613
		c-44.579,98.432-64.486,178.92-66.212,192.035c0.912-0.368,1.765-0.911,2.218-1.813c40.757-65.841,123.982-24.379,103.071,29.572
		c-9.324,25.088-41.432,35.732-62.517,16.185c-13.116-12.684-13.092-30.697-5.912-39.951c0.41,2.218-0.56,4.355-0.592,6.573
		c-0.676,9.638,5.452,19.565,10.95,23.153c22.946,16.775,46.647-6.552,39.349-27.45c-8.157-28.214-68.734-34.832-92.568,25.344
		c-2.809,10.742-7.571,51.789-7.202,73.942c-0.187-3.694-0.203-7.495-0.624-11.099c0.025,1.49-0.655,61.009,3.316,80.387
		c8.325,66.682,33.058,141.398,71.287,199.264c12.212,19.921,52.883,61.729,69.064,77.999c9.045,9.16,41.687,33.652,81.773,53.748
		c1.289-1.338,11.861-16.405,28.756-12.149c13.089,2.44,21.199,15.011,21.042,23.382c0.181,3.028-0.235,6.067,0.011,9.1
		c58.165,23.545,300.645,41.791,373.755-144.989c86.149-248.984-209.257-381.231-332.295-246.631
		c-42.188,42.406-23.864,100.399,14.708,105.027c12.694,1.23,30.022-9.041,27.343-31.101c-3.439-15.249-22.266-23.45-35.969-17.353
		c-9.456,3.636-11.175,9.078-13.935,11.515c13.074-40.73,73.956-23.462,67.63,20.738c-5.036,46.918-79.02,55.526-96.039-4.318
		c-2.148-7.636-1.9-18.199-2.308-19.88c-3.743,4.899-14.565,48.002-11.755,73.766c5.012,152.72,201.733,214.379,291.076,123.147
		c15.594-13.455-5.195-44.089,11.179-54.126c2.404,0.272,4.34,1.909,6.483,2.911c1.993-10.938,14.455-13.662,14.101-26.277
		c1.343,1.157,2.378,2.607,3.343,4.099c8.015-9.703,12.51-3.765,18.659-18.946c1.37,0.906,2.351,2.223,2.74,3.849
		c10.408-6.13,10.458-1.821,24.917-6.269c-0.951,23.772,1.439,16.456-2.031,25.872c1.567,0.165,3.092,0.65,4.329,1.685
		c-2.106,1.669-4.739,2.692-6.419,4.867c-5.357,6.069-3.5,10.504-9.169,16.921c1.765,0.794,3.492,1.69,5.081,2.82
		c-11.665,0.676-11.198,9.809-23.974,18.408c1.407,1.557,3.039,3.06,3.758,5.102c0.521,1.398-5.844,9.201-13.637,10.193
		c-8.831,0.688-18.722-1.688-30.696,4.132c-1.003,0.453-55.883,63.218-143.107,51.386c-94.638-8.707-168.689-91.544-167.07-172.998
		c0.194-142.215,111.843-236.679,269.725-188.325c158.766,51.513,204.238,247.561,96.748,374.811
		c-54.165,66.07-151.37,94.629-204.494,95.335c0.075,0.341,0.219,1.029,0.293,1.37c8.01,0.454,55.898,0.057,116.819-14.362
		c214.495-55.294,350.89-224.012,525.941-253.838c2.848-0.417,63.496-22.315,77.401-54.835c2.053,0.309,3.881,1.365,5.667,2.399
		c8.012,4.671,7.48,8.364,10.305,10.502c4.739-16.06,27.848-12.531,41.3-31.736c0.282-0.346,0.544-1.034,1.098-0.624
		c6.18,10.502,5.437,18.516,4.036,26.287c3.32-1.509,9.066-7.089,23.542-8.738c21.518-0.983,48.413,10.882,66.963-5.107
		c0.464,10.71-2.282,22.033-9.5,30.216c-0.528,0.714-1.285,1.434-1.146,2.426c3.715-1.036,19.34-8.182,41.102,2.724
		c8.938,4.181,32.527,21.563,49.248,19.853c-1.662,8.021-8.67,17.877-13.845,24.294c-20.547,23.177-45.752,18.024-48.129,20.002
		c3.327,2.788,6.888,5.571,8.898,9.532c3.289,5.885,2.729,13.312-0.251,19.213c-1.125-0.901-11.726-11.666-28.814-11.291
		c0,0-18.823-0.373-18.824-0.373c-0.624,1.583,1.215,2.49,2.031,3.609c37.814,43.511,44.194,81.638,39.898,131.869
		c-17.588,112.666-137.378,153.775-216.857,82.898c-76.675-71.266-16.421-200.692,82.344-178.628
		c11.963,2.857,23.643,8.188,32.477,16.899c-8.755-4.43-15.158-15.75-52.745-16.708c-20.915-0.753-30.636,10.774-30.099,28.399
		c1.082,31.583,7.589,32.012-8.7,48.609c-9.164,9.429-15.574,15.391-28.228,36.193c-20.138,33.944,10.572,59.991,14.543,60.054
		c-0.852-3.008-12.111-19.003-7.981-40.329c5.861-33.553,38.775-43.6,56.797-37.349c42.384,11.373,35.229,71.893-3.796,72.172
		c-2.996-0.176-6.099-0.426-8.738-1.972c2.708-0.229,5.512,0.075,8.14-0.842c10.614-3.081,19.517-12.752,20.141-24.016
		c1.316-27.591-28.248-34.497-43.038-19.794c-19.297,19.519-8.373,77.42,65.604,79.364c37.331,2.102,100.806-37.221,106.403-116.628
		c2.095-87.059-55.019-125.469-58.663-126.271c0.32,9.385-4.578,21.859-6.259,23.888c-6.532-17.591-25.795-13.327-38.309-15.119
		c-21.024-1.86-34.025-14.797-37.328-15.545c0.069,1.38,3.301,11.47-5.821,17.88c-1.838-1.167-28.006-39.74-81.603-45.437
		c-184.061,29.272-326.286,218.923-569.229,255.992c-38.958,9.026-140.08,11.491-231.064-20.797
		c-1.066-0.608-1.759,0.576-2.484,1.157c-6.53,6.865-17.963,9.578-26.112,6.68c-20.055-5.637-19.293-26.221-19.474-27.295
		c-196.273-79.97-317.893-225.25-358.839-424.565c-27.012-135.59-13.146-283.817,11.371-419.144
		c-3.247-2.554-6.221-5.459-8.327-9.036c-17.723,7.715-30.887,27.722-29.555,52.772c-3.108,0.192-5.726-1.658-7.517-4.03
		c-6.302,24.342-18.417,19.144-16.094,33.148c-9.071-2.874-10.966-10.794-11.894-5.656c-2.869,11.217-15.88,12.984-19.075,28.99
		c-8.033-3.288-5.936-11.101-6.243-12.229c-1,0.644-16.465,15.316-33.895,4.355c10.495-10.463,6.919-29.155,21.607-35.132
		c0.011-0.261,0.032-0.784,0.043-1.045c-4.739-0.917-9.42-3.337-12.336-7.261c13.46,0.985,18.222-21.536,33.143-22.886
		c0.336-1.791-1.333-2.809-2.287-4.041c-1.61-1.791-2.394-4.116-3.023-6.392c18.999-0.544,10.852-4.605,23.92-3.001
		c-0.192-2.996-0.219-6.131,1.375-8.791c15.072,6.434,48.051-5.832,60.539-12.603c0.076-1.898-1.408-10.414,5.081-17.273
		c1.487-1.605,3.465-2.634,5.022-4.158c0.153-2.726-13.277-31.761-53.049-30.355c-0.245-3.017,1.205-5.832,3.668-7.543
		c-5.814-3.214-7.658,0.796-22.721-13.861c-2.852-2.687-7.128-3.508-10.758-2.02c4.521-8.679,3.397-6.322,8.54-11.558
		c-16.469-5.425-17.838-19.566-31.032-19.608c0.965-4.569,5.29-7.512,11.819-6.403c-1.837-3.309-13.852-15.323-4.409-33.969
		c16.476,12.133,26.435,5.424,35.835,21.655c1.317-1.956,1.471-4.409,2.671-6.419c1.098-2.628,4.547-4.286,3.838-7.469
		c-5.881-55.618,28.035-144.123,120.418-171.074c15.319-92.515,27.786-281.273-64.959-266.857c0.075-1.407-0.128-2.943,0.597-4.222
		c0.672-1.466,2.239-2.474,2.303-4.201c-16.371-1.979-18.594-9.876-25.504-13.312c-2.431-1.37-5.299-0.682-7.943-0.752
		c1.21-3.476,2.996-6.813,5.736-9.324c0.837-0.64,1.056-1.669,0.954-2.666c-9.409,0.171-16.942-12.233-23.265-15.359
		c-2.495-1.407-5.395-1.685-8.082-2.554c1.327-3.497,4.707-6.371,8.578-6.275c0.821-0.176,2.223,0.416,2.383-0.8
		C137.607,79.776,135.916,68.419,140.889,57.525 M279.16,422.207c-4.547,0.917-9.351,0.981-13.679,2.671
		c0,0-6.845,45.515-14.687,87.227c-8.135,44.115-17.486,88-25.882,132.066c2.308-0.512,4.649-0.325,6.941,0.208
		c-0.619-10.976,5.956-13.448,4.745-23.792c4.222,0.597,7.101,3.956,9.713,7c3.5-17.215,23.363-16.045,26.154-32.328
		c6.486,7.159,4.802,10.491,6.802,13.184c9.98-16.212,23.158-8.329,37.125-19.32c8.547,19.234-5.415,31.703-6.52,33.692
		c5.308,0.107,9.521,1.153,11.201,7.517c-15.289-0.107-17.788,15.049-32.599,17.278c3.188,3.461,4.289,3.398,7.405,11.67
		c-4.105-0.932-6.874-1.917-13.376,3.684c-10.984,9.856-16.285,7.919-21.004,9.937c3.111,3.893,2.731,3.182,2.857,7.735
		c-15.55-2.607-32.645,1.385-45.708,14.079c8.916,4.327,36.501,9.968,55.475,7.815c49.348-3.33,91.687-45.696,94.12-92.648
		c1.24-23.734-10.964-41.691-11.344-42.691c4.172,4.799,13.115,24.005,12.485,38.389c1.56,45.562-35.895,87.786-78.921,98.225
		c-39.654,9.675-71.545-4.06-76.064-4.393c-2.669,11.25-1.253,7.351,1.562,11.766c4.942,6.818,4.489,17.081-1.04,23.441
		c-2.031,2.538-4.905,4.094-7.613,5.779c-3.885,9.39-22.457,154.97-21.884,171.729c0,0-2.364,21.332-2.719,116.766
		c0.016-5.885,0.554-11.75,0.517-17.635c0.211,5.707-0.594,17.682,1.088,38.549c-0.18,15.791,9.345,146.581,58.85,245.261
		c66.095,140.354,190.662,224.258,197.43,225.786c0.912-0.576,0.981-1.162,0.197-1.77
		c-94.857-77.545-163.479-178.877-197.27-296.775c-59.734-203.046,19.968-316.95,20.828-380.147
		c7.565,6.666,71.202,107.123,59.916,176.911c0.426-0.037,1.285-0.112,1.711-0.149C350.734,881.209,540.88,651.18,446.039,496.106
		c-11.03-17.705-26.708-36.407-53.06-51.04C362.779,427.737,323.391,418.162,279.16,422.207 M209.91,449.14
		c-72.387,52.08-66.905,122.503-22.849,137.755c29.975,8.066,45.469-28.405,24.992-43.432c-10.118-8.258-26.085-7.581-35.707,1.135
		c-1.743,1.557-2.964,3.577-4.569,5.267c0.319-4.93,8.199-23.147,35.649-21.212c15.474,2.978,21.983,12.261,24.107,13.861
		c1.573-5.247,19.503-91.027,22.705-114.831C251.051,428.182,230.676,434.653,209.91,449.14z"/>
	<path fill="#020202" d="M405.043,947.551c7.102,6.255,6.937,16.969,4.633,21.586c-9.933,21.814-41.61,10.525-36.123-12.139
		C376.817,943.546,394.48,937.669,405.043,947.551z"/>
	<path fill="#020202" d="M1101.561,958.08c29.331,9.983,58.823,17.376,76.788,47.681c31.647,52.367-0.473,99.709-21.612,136.347
		c-2.09,3.556-3.769,7.373-6.248,10.683c-24.194-47.869-48.228-44.46-39.279-94.69c2.87-18.731,14.13-62.27-20.034-89.263
		c-12.78-10.297-86.035-5.835-104.467,63.269c-26.418,110.259,102.689,308.319,7.314,455.912
		c-19.516,34.073-61.117,74.057-98.875,89.871c2.694-2.685,102.725-53.385,116.057-180.088
		c18.777-134.922-116.713-344.182-1.797-427.476C1033.298,952.898,1068.306,946.164,1101.561,958.08z"/>
	<path fill="#020202" d="M435.627,979.335c14.547,13.966-1.299,39.316-20.7,31.267c-8.892-3.156-13.967-13.626-11.499-22.63
		C407.026,972.64,426.693,969.477,435.627,979.335z"/>
	<path fill="#020202" d="M385.35,985.412c15.796,8.566,11.457,33.081-6.259,35.665c-19.74,1.165-25.531-16.322-20.743-26.463
		C363.252,982.601,377.993,980.744,385.35,985.412z"/>
	<path fill="#020202" d="M617.08,1323.63c16.603,8.328,12.718,33.243-4.958,35.964c-21.526,2.041-27.447-19.158-18.621-30.59
		C599.251,1321.697,609.5,1319.824,617.08,1323.63z"/>
	<path fill="#020202" d="M668.44,1345.072c7.058,17.777-12.497,32.877-27.498,23.803c-11.267-7.004-11.34-20.388-5.923-27.705
		C643.208,1329.168,662.395,1330.669,668.44,1345.072z"/>
	<path fill="#020202" d="M633.974,1369.584c18.106,11.257,4.561,42.278-17.491,33.852c-8.343-3.013-13.425-10.297-11.931-22.55
		C607.526,1367.675,623.788,1362.339,633.974,1369.584z"/>
</g>
</svg>
