<svg version="1.1" id="Layer_1" xmlns="http://www.w3.org/2000/svg" xmlns:xlink="http://www.w3.org/1999/xlink" x="0px" y="0px"
	 width="100%" viewBox="0 0 980 980" enable-background="new 0 0 980 980" xml:space="preserve">
<path fill="#FFFFFF" opacity="1.000000" stroke="none" 
	d="
M479.000000,981.000000 
	C319.333344,981.000000 160.166672,981.000000 1.000000,981.000000 
	C1.000000,654.333313 1.000000,327.666656 1.000000,1.000000 
	C327.666656,1.000000 654.333313,1.000000 981.000000,1.000000 
	C981.000000,327.666656 981.000000,654.333313 981.000000,981.000000 
	C813.833313,981.000000 646.666687,981.000000 479.000000,981.000000 
M875.984619,614.369507 
	C875.878967,614.414978 875.773315,614.460449 875.667664,614.505920 
	C875.887573,614.533936 876.107483,614.561951 876.678711,614.142212 
	C876.858887,614.201843 877.039001,614.261414 876.609863,614.820923 
	C877.339294,615.243896 878.068726,615.666809 879.008667,616.926086 
	C879.063049,618.643494 879.117493,620.360962 879.095337,622.638489 
	C879.028137,623.008057 878.960938,623.377686 878.132141,623.451782 
	C876.764160,625.362000 874.622864,627.118835 874.206604,629.217773 
	C873.557007,632.493103 874.005859,636.002563 874.115540,639.408752 
	C874.374329,647.443604 874.589783,655.483093 875.063721,663.506470 
	C875.281372,667.191101 874.076599,669.243103 869.774597,669.009277 
	C856.187866,652.456970 833.092896,647.669250 814.276245,657.504211 
	C796.863708,666.605347 788.176270,688.661682 794.135803,708.655396 
	C797.782898,720.891113 806.677063,728.728882 816.660156,735.727356 
	C823.870300,740.781921 831.424744,745.504272 837.933472,751.365479 
	C849.387634,761.679993 851.560303,772.548340 845.281494,785.166016 
	C842.170715,788.991150 839.059875,792.816345 835.949097,796.641541 
	C836.313538,796.959900 836.677979,797.278259 837.042419,797.596558 
	C840.343323,793.718689 843.644226,789.840759 847.397278,785.447510 
	C852.805176,777.351501 852.680847,768.886780 848.907837,760.275452 
	C844.557495,750.346619 836.723938,743.443909 828.536682,736.760864 
	C821.984497,731.412415 815.231079,726.116272 809.619446,719.853699 
	C800.433472,709.602173 799.538757,694.065063 806.310547,681.491821 
	C812.715210,669.600098 825.077820,663.490417 839.519348,665.079895 
	C853.255005,666.591675 863.930664,675.701050 867.563232,689.197998 
	C870.074951,698.530396 869.070129,707.651428 865.485718,716.556213 
	C864.713501,718.474792 864.056396,720.439636 863.346191,722.383179 
	C863.922974,722.758850 864.499695,723.134460 865.076477,723.510132 
	C868.022156,719.992065 870.967773,716.474060 874.578674,713.253967 
	C880.003052,715.499878 877.286316,708.565186 880.774536,708.134583 
	C881.379883,708.614563 882.246094,709.301392 883.043518,710.823853 
	C883.887817,713.545776 884.430847,716.427979 885.745483,718.899719 
	C886.185303,719.726562 889.788086,719.230896 889.920349,719.805664 
	C891.200989,725.369934 896.496704,722.419678 899.502869,725.225769 
	C899.765991,723.631897 899.919617,722.701416 900.681519,721.264954 
	C900.008667,719.795044 899.625793,718.075989 898.613464,716.897644 
	C893.899475,711.410461 892.006226,705.038879 892.587585,697.976807 
	C893.864136,682.468140 907.461182,669.588440 923.391663,668.592468 
	C938.127991,667.671265 952.701294,679.483337 955.932007,694.815491 
	C958.432800,706.683350 955.491272,717.851379 951.332458,729.409668 
	C946.997009,740.846313 940.323181,750.706360 930.789551,758.372070 
	C921.076538,766.182007 911.156677,773.747009 901.129333,781.151123 
	C884.823547,793.191101 867.861633,804.399170 852.103394,817.107483 
	C837.772766,828.664429 827.377686,843.591675 822.098389,861.562683 
	C815.822754,882.925415 818.017334,903.664734 826.795837,924.461670 
	C825.459595,927.838501 824.123413,931.215271 822.194824,934.218079 
	C818.222900,929.981018 814.178162,925.809326 810.300537,921.487610 
	C806.770081,917.552979 802.228027,914.204712 802.026855,907.467712 
	C800.604980,893.337524 803.452393,879.747925 806.400513,866.013367 
	C808.369812,856.839050 808.918152,847.190125 808.733093,837.780457 
	C808.601501,831.094971 806.186646,824.454285 804.790894,817.793579 
	C804.292786,817.870483 803.794678,817.947388 803.296570,818.024231 
	C801.932312,820.520813 800.568115,823.017334 798.965088,825.950806 
	C790.955994,807.037476 778.614502,793.643494 758.439880,787.305359 
	C758.946045,788.748108 759.077881,789.369080 759.365051,789.907227 
	C768.283264,806.621399 772.858948,824.505310 774.179932,843.354004 
	C775.226929,858.293579 776.307495,873.264709 780.903198,888.228394 
	C780.715393,888.488037 780.527649,888.747681 779.743042,888.682251 
	C778.878540,887.956787 778.013977,887.231262 776.851074,885.944458 
	C768.029785,878.378113 759.633972,870.234680 750.305725,863.355713 
	C724.391052,844.245239 695.823608,832.208191 662.883911,833.681152 
	C639.340393,834.733948 618.346008,842.253357 600.838806,859.669067 
	C592.347961,868.335571 585.915649,878.263611 581.931519,890.487366 
	C581.007324,895.351929 580.083069,900.216553 578.406860,905.563721 
	C574.646729,905.031555 570.870178,903.949341 567.129333,904.061523 
	C550.098083,904.572388 533.076904,905.419189 515.156616,905.943542 
	C512.815857,905.943542 510.475067,905.943542 508.134308,905.943542 
	C508.128113,906.388672 508.121918,906.833801 508.115723,907.278931 
	C509.568695,908.107605 511.021698,908.936218 512.919434,910.333008 
	C514.143311,910.624023 515.367188,910.915039 516.591064,911.206055 
	C516.647278,910.842773 516.703491,910.479431 516.759705,910.116150 
	C515.357056,909.979614 513.954407,909.843018 512.720886,908.936218 
	C513.812256,908.271362 514.903625,907.606506 516.839722,907.079468 
	C537.190735,908.623718 557.522827,911.361389 578.662109,908.429932 
	C579.229126,910.406067 580.650818,912.594238 580.221802,914.323242 
	C577.796143,924.098999 582.730103,931.832947 585.243713,938.106750 
	C583.817566,929.773376 582.072998,919.488525 580.257080,909.216309 
	C580.157715,908.654419 579.463135,908.197693 579.604614,907.212769 
	C579.789124,906.545898 579.973633,905.879028 580.761230,904.550476 
	C581.802246,899.691345 582.843262,894.832153 584.141602,889.315125 
	C588.036377,878.614624 594.552612,869.582825 602.663818,860.874268 
	C638.546814,826.488953 695.700745,834.233521 726.428101,855.237671 
	C714.438660,855.711853 703.706177,859.229980 693.357117,865.674072 
	C695.264343,866.763062 696.767761,867.621399 699.186584,869.002441 
	C688.652405,875.304199 678.653198,881.285889 668.585388,887.308594 
	C675.935730,890.857666 684.156250,891.361145 692.020081,889.331482 
	C701.940186,886.771057 711.475220,882.736755 721.213928,879.449768 
	C729.364502,876.698792 737.469910,873.696655 745.807495,871.685608 
	C748.472595,871.042786 752.509949,872.387695 754.725464,874.246399 
	C762.739502,880.969482 770.245728,888.297913 778.201172,895.980408 
	C784.818481,902.980713 791.435791,909.981018 798.255615,917.628357 
	C799.252808,918.808472 800.250000,919.988586 800.476440,922.774658 
	C800.364380,923.357727 800.252380,923.940796 799.457092,924.085999 
	C771.148621,896.430908 733.537109,913.000000 718.258667,932.129944 
	C724.583008,931.588196 730.732971,931.216370 736.844116,930.508789 
	C755.199280,928.383484 772.267639,931.185486 787.550903,942.429016 
	C792.473633,946.050537 797.969543,949.031311 803.519470,951.629761 
	C812.268982,955.726196 821.425293,957.624146 831.166504,955.084473 
	C832.992554,954.608337 835.686462,955.075439 837.202271,956.177185 
	C847.937195,963.979248 859.287842,970.458862 872.289612,973.616821 
	C889.260132,977.738770 905.991028,977.000671 922.336365,970.649841 
	C923.441284,970.220520 924.139587,968.744751 925.029724,967.181763 
	C925.021606,966.799377 925.013428,966.416992 925.600159,965.626099 
	C942.319580,958.983765 954.003967,947.583496 959.645386,929.449951 
	C960.001282,928.002686 960.357178,926.555420 961.002258,924.634033 
	C961.001221,924.089355 961.000244,923.544678 961.307617,922.274109 
	C961.413330,921.501587 961.519043,920.729126 961.876221,919.400452 
	C961.839111,919.001770 961.801941,918.603027 961.935547,917.732910 
	C961.907410,917.568176 961.879211,917.403381 962.134094,916.601257 
	C962.176819,914.607605 962.302856,912.611755 962.249573,910.620728 
	C961.603882,886.508606 943.375671,864.192688 919.945007,858.827881 
	C917.648193,858.302002 914.978699,856.944397 914.055786,861.844666 
	C914.040710,862.190796 914.025635,862.536987 913.130615,862.788086 
	C905.058411,862.813416 896.675903,861.435425 888.974670,863.138428 
	C869.211487,867.508667 856.412292,885.653931 858.924744,903.712280 
	C860.265381,913.348145 867.264893,921.023315 876.218567,922.675537 
	C883.091003,923.943604 890.044556,921.005432 892.377563,915.602966 
	C893.614319,912.739075 894.117126,909.771545 890.443237,907.467407 
	C889.267944,916.499634 882.665405,919.176453 875.593201,914.020935 
	C870.755127,910.494019 869.358032,905.486023 870.437317,899.881042 
	C872.546997,888.925049 879.836670,882.373108 890.010742,879.340271 
	C903.821594,875.223267 916.324036,879.157471 927.577026,887.453064 
	C944.477722,899.912170 950.355225,918.866272 942.994995,936.678589 
	C941.813721,939.537476 940.264343,942.244263 938.163818,944.950256 
	C936.422791,946.963867 934.681763,948.977478 932.420471,951.460327 
	C931.769653,952.876648 930.977051,954.253296 930.561829,955.735657 
	C930.449646,956.136047 931.480591,956.856750 931.327087,957.989075 
	C923.594482,960.342224 915.983032,964.131348 908.107910,964.796021 
	C876.692688,967.447266 852.031311,954.427979 835.327209,928.336670 
	C818.860352,902.615906 818.613586,875.168884 832.586121,848.012512 
	C841.737122,830.227173 856.566772,817.470520 872.512146,806.061157 
	C888.884399,794.346497 905.817627,783.407532 922.045349,771.502136 
	C935.911560,761.329224 947.653625,748.831909 958.344055,734.475037 
	C963.967468,726.471558 967.719482,717.674011 969.599243,708.071167 
	C975.614075,677.345032 952.782166,650.826416 921.837219,652.885437 
	C906.363220,653.915100 895.236572,662.306580 885.841797,674.399963 
	C884.706177,674.223694 883.570618,674.047424 882.396729,672.947693 
	C881.872864,655.340759 881.348999,637.733826 881.044250,619.195251 
	C881.658752,609.949951 878.804077,600.320496 884.630493,591.217529 
	C884.938477,590.648315 885.246521,590.079041 886.039185,589.068054 
	C894.224304,580.681396 902.228516,572.105713 910.691895,564.009949 
	C913.682434,561.149292 917.673096,559.015625 922.636780,560.565491 
	C922.470398,561.862183 922.251770,562.970825 922.203613,564.086792 
	C922.138855,565.585938 921.671570,568.025024 922.326721,568.399658 
	C923.714111,569.192932 925.825256,569.368103 927.446777,568.983704 
	C932.486938,567.788391 935.852722,561.442871 934.608337,555.861694 
	C933.076538,548.991394 928.193909,545.342957 921.963196,542.196960 
	C921.087463,541.468689 920.287659,540.255493 919.321594,540.104370 
	C916.585999,539.676208 913.771912,539.776611 911.011230,539.467407 
	C910.044861,539.359192 908.492554,538.799866 908.368774,538.205017 
	C908.190674,537.349182 908.898132,536.130432 909.548645,535.326355 
	C910.353149,534.331909 911.486511,533.603455 912.996399,532.318787 
	C911.344482,531.963867 910.700989,531.825623 910.482361,531.093262 
	C911.568237,530.328674 912.582275,529.424622 913.751831,528.822510 
	C920.360718,525.419739 926.788391,521.504395 933.709717,518.920288 
	C939.202698,516.869446 941.972778,519.621582 941.373657,524.816101 
	C941.218628,526.160461 941.287659,528.595337 941.801025,528.753540 
	C943.380981,529.240417 945.692017,529.520935 946.864807,528.684326 
	C948.922363,527.216492 950.930725,525.114868 951.929077,522.828674 
	C955.509277,514.630127 949.446167,504.787750 939.431946,502.118134 
	C929.480103,499.465118 920.741577,502.924408 912.487854,507.929749 
	C897.286011,517.148743 889.153870,531.490967 883.543945,548.331482 
	C882.748413,549.867798 881.952881,551.404175 881.058838,552.015503 
	C881.012146,454.000061 880.965393,355.984650 880.959595,257.852112 
	C880.959595,257.852112 880.970764,257.968445 880.439392,258.555573 
	C879.964783,261.213654 879.077271,263.871399 879.075317,266.529816 
	C879.007446,359.071838 879.027405,451.613892 878.989685,544.155945 
	C878.989014,545.720093 878.432739,547.283997 878.063416,548.014038 
	C876.026428,536.333984 873.136780,524.926147 867.218079,514.506592 
	C862.371399,505.974365 855.772156,499.343536 846.214355,496.362244 
	C835.762451,493.102051 826.345398,495.466400 818.565796,503.024323 
	C811.870667,509.528656 809.264038,517.653992 812.138367,526.749756 
	C813.137634,529.912048 815.269287,532.992371 817.627686,535.372986 
	C820.056213,537.824341 822.023804,536.662964 822.340027,533.130066 
	C822.606812,530.149902 822.537598,527.090149 823.212219,524.204773 
	C825.683777,513.633972 836.324219,509.743652 844.860596,516.333801 
	C847.591064,518.441711 850.429565,520.883972 852.097290,523.811890 
	C859.242065,536.355957 865.968506,549.138306 872.130859,562.064392 
	C872.445557,565.039856 872.760315,568.015259 872.493958,571.382996 
	C871.951538,572.410095 871.409119,573.437195 870.303833,574.033997 
	C864.945007,565.151123 857.486023,559.709106 846.717346,560.133484 
	C834.691650,560.607239 824.700806,570.992859 825.791931,581.644226 
	C826.295959,586.564636 829.732483,590.410706 833.798340,590.328430 
	C836.320740,590.277466 838.610962,589.847717 837.242004,586.171631 
	C836.835327,585.079407 837.068909,583.137878 837.815002,582.327087 
	C842.451355,577.289062 849.095642,576.520264 853.657715,581.569946 
	C860.283508,588.904053 865.951172,597.103760 871.935364,605.646912 
	C872.249695,606.758545 872.282776,608.088562 872.939453,608.934265 
	C874.142395,610.483215 875.713745,611.746094 877.071472,613.089294 
	C877.071472,613.089294 877.134583,613.064087 876.654907,613.314941 
	C876.776306,613.585815 876.897766,613.856689 876.770264,614.495483 
	C876.770264,614.495483 876.326111,614.482483 875.984619,614.369507 
M833.974976,799.283081 
	C833.752014,799.279297 833.529053,799.275513 833.306091,799.271729 
	C833.544189,799.180542 833.782288,799.089294 833.942322,798.878418 
	C833.942322,798.878418 834.174988,798.918640 834.174988,798.918640 
	C834.174988,798.918640 833.998474,798.985901 833.974976,799.283081 
M829.090698,802.439758 
	C829.667114,802.200867 830.243530,801.961914 830.819885,801.722961 
	C830.508179,802.176147 830.078308,802.499573 829.672974,802.471313 
	C829.357056,802.449219 829.071655,801.989868 828.080627,801.143738 
	C829.035522,794.778259 830.975708,788.379883 830.764648,782.053345 
	C830.069031,761.206299 812.932251,745.047241 793.189575,746.143372 
	C784.988159,746.598816 777.375366,748.997314 772.823303,756.647583 
	C770.573181,760.429077 771.031738,764.433777 773.836975,767.812744 
	C776.142029,770.589294 779.204895,771.466370 781.670349,770.880493 
	C779.940857,768.237671 776.879089,765.592651 777.262146,763.614746 
	C777.711731,761.293518 781.083008,759.463928 783.343933,757.612488 
	C784.030396,757.050354 785.226135,757.045471 786.205872,756.916077 
	C799.536804,755.156311 809.458435,760.725342 816.774414,771.470764 
	C822.623230,780.061157 824.240356,789.795654 823.924622,800.001282 
	C823.893677,801.000061 824.803528,802.027893 825.957092,803.400085 
	C826.116455,804.406616 826.275818,805.413086 826.470459,806.642517 
	C827.394653,805.290833 828.179993,804.142212 829.090698,802.439758 
M424.270020,905.929016 
	C423.506104,905.987976 422.742218,906.046936 421.049561,905.994934 
	C335.369873,905.990051 249.690201,905.984680 164.010513,905.986206 
	C163.015274,905.986206 162.020035,906.074402 160.364655,905.964294 
	C159.176697,906.074097 157.988754,906.183899 156.800812,906.293701 
	C156.832016,906.519836 156.863220,906.746033 156.894424,906.972168 
	C158.261505,906.972168 159.628586,906.972168 161.918182,907.154663 
	C245.619690,907.161499 329.321198,907.170044 413.022705,907.168457 
	C416.014435,907.168396 419.006195,907.068848 422.459595,907.256287 
	C423.307373,907.176514 424.155121,907.096741 425.930939,907.149597 
	C431.929291,907.113342 437.927643,907.077087 444.583679,907.623352 
	C444.412079,908.096619 444.240509,908.569885 443.243622,909.083313 
	C435.135315,911.473450 426.840302,913.375366 418.968811,916.384888 
	C410.311310,919.694885 402.936676,925.146606 397.897736,933.224365 
	C387.139038,950.471191 396.291656,972.591736 415.487976,975.443176 
	C422.394531,976.468994 428.812164,974.906738 433.507935,969.299194 
	C435.998901,966.324524 435.039948,964.513794 431.159821,964.213074 
	C428.510773,964.007996 425.799744,964.213135 423.206970,963.739380 
	C412.247192,961.736450 407.821136,950.487366 414.670410,941.810852 
	C417.009796,938.847351 419.666321,935.728088 422.877899,933.930908 
	C435.450897,926.895447 448.303772,920.360168 461.068878,914.323975 
	C464.474548,916.312622 465.564972,915.813416 466.788452,911.951660 
	C470.624207,909.644653 472.454926,912.815979 474.107269,915.325195 
	C465.625061,919.930664 459.597198,926.315125 458.423401,936.406860 
	C456.925995,949.280518 467.415100,961.703125 479.317047,961.014771 
	C484.209717,960.731873 488.230927,957.593872 488.499542,953.458984 
	C488.665497,950.904419 488.534149,948.319153 484.403290,949.390564 
	C483.038971,949.744385 480.666656,948.867004 479.724426,947.741394 
	C475.227509,942.369324 474.927704,937.463623 480.136169,932.756897 
	C487.615082,925.998596 495.950195,920.187744 504.484619,914.351990 
	C505.688354,914.639221 506.892090,914.926392 508.095856,915.213562 
	C508.483734,913.463867 508.871582,911.714233 509.259430,909.964539 
	C508.719910,910.296509 508.180359,910.628479 507.640839,910.960510 
	C506.425446,910.294312 505.210083,909.628113 504.719177,908.624573 
	C505.994720,908.240173 507.270294,907.855774 508.545837,907.471375 
	C508.513306,907.058655 508.480804,906.645874 508.448273,906.233154 
	C506.327179,906.233154 504.206116,906.233154 501.231293,905.979248 
	C499.165283,905.862793 497.099243,905.746277 495.046906,904.948547 
	C495.051697,903.561584 495.056519,902.174561 495.061310,900.787598 
	C493.778992,901.145386 492.513763,901.599731 491.209015,901.830811 
	C490.144043,902.019348 489.031830,901.940918 487.911743,901.307129 
	C480.597229,894.587158 472.962311,888.174011 466.106232,881.015015 
	C462.783844,877.545776 460.577240,872.836304 458.531097,868.382507 
	C457.350128,865.811951 458.108459,863.317749 462.132416,864.374329 
	C463.587463,864.756409 465.194214,864.560669 466.731720,864.628601 
	C466.809479,862.570374 467.617126,860.129700 466.787781,858.546692 
	C465.646271,856.367920 463.554779,854.291382 461.361969,853.135559 
	C455.612701,850.105408 448.239807,852.786133 444.107758,858.928955 
	C439.331116,866.030090 440.565155,873.416748 442.610413,881.438538 
	C439.745850,880.143494 436.519745,879.305176 434.128357,877.412354 
	C432.128845,875.829651 431.578308,875.648682 430.399994,877.716187 
	C429.707336,876.781738 428.899780,875.911011 428.340668,874.902466 
	C424.645721,868.237366 420.440918,861.779053 417.506470,854.789795 
	C414.677399,848.051514 417.370270,844.895691 424.210022,845.654236 
	C427.872681,846.060425 428.299133,843.971252 427.540680,841.411194 
	C426.160309,836.752075 422.586914,834.491455 417.947052,833.888916 
	C410.603271,832.935242 403.412537,838.107361 400.724884,846.166687 
	C398.325348,853.362000 399.483185,860.321960 402.429016,867.034485 
	C410.812378,886.137390 426.287781,896.634155 446.156464,902.850464 
	C448.632050,903.659119 451.107605,904.467712 454.934509,905.717773 
	C451.914856,905.910400 450.438995,906.004517 448.036804,905.984680 
	C440.364960,906.023987 432.693115,906.063232 424.270020,905.929016 
M102.311432,913.339111 
	C118.361610,911.774353 134.415421,910.244507 150.454742,908.575378 
	C151.674683,908.448425 152.791794,907.333557 153.956696,906.677856 
	C152.786850,905.847534 151.710541,904.498413 150.432541,904.268005 
	C138.981140,902.203003 127.555603,899.734863 116.003006,898.553345 
	C99.743629,896.890381 83.382278,896.224670 67.064529,895.132507 
	C66.955978,895.701172 66.847435,896.269897 66.738884,896.838562 
	C67.887360,897.647766 69.035843,898.457031 70.256165,899.316833 
	C52.658321,901.453430 35.530594,903.532898 18.402866,905.612366 
	C18.435116,906.079468 18.467365,906.546509 18.499613,907.013611 
	C45.878418,912.050903 73.465752,914.521362 102.311432,913.339111 
M890.719666,189.440201 
	C890.719666,182.549194 890.719666,175.658203 890.719666,167.403961 
	C889.067566,169.677521 888.235535,170.822586 887.390625,171.985336 
	C885.291870,154.622406 883.234131,137.599030 881.176392,120.575661 
	C880.678650,120.607918 880.180908,120.640175 879.683167,120.672424 
	C871.212219,165.693710 870.855713,210.772537 878.886719,256.225464 
	C883.708191,253.288818 887.717468,230.000732 890.719666,189.440201 
M602.737305,960.778748 
	C605.085815,962.268738 607.434387,963.758667 609.782898,965.248657 
	C610.000183,964.908508 610.217529,964.568359 610.434814,964.228149 
	C605.316223,959.963806 600.197693,955.699402 594.815979,951.215820 
	C594.860962,956.370361 599.602844,957.514709 602.737305,960.778748 
M588.838440,943.110535 
	C588.457520,942.375427 588.076660,941.640320 587.695740,940.905212 
	C587.472717,941.030457 587.249634,941.155762 587.026550,941.281067 
	C587.515564,942.082886 588.004578,942.884705 588.838440,943.110535 
z"/>
<path fill="#090909" opacity="1.000000" stroke="none" 
	d="
M798.053101,916.981384 
	C791.435791,909.981018 784.818481,902.980713 778.082947,895.240723 
	C777.692932,891.835999 777.421204,889.170898 777.149475,886.505798 
	C778.013977,887.231262 778.878540,887.956787 780.118042,889.113098 
	C780.991211,890.015503 781.489319,890.487122 781.990112,891.328857 
	C782.527893,892.754517 783.062805,893.810181 783.597778,894.865845 
	C784.183777,894.482422 784.769714,894.099060 785.355713,893.715637 
	C784.314697,892.474854 783.273682,891.234070 782.149353,889.676086 
	C781.895142,888.745911 781.724121,888.132874 781.553162,887.519897 
	C776.307495,873.264709 775.226929,858.293579 774.179932,843.354004 
	C772.858948,824.505310 768.283264,806.621399 759.365051,789.907227 
	C759.077881,789.369080 758.946045,788.748108 758.439880,787.305359 
	C778.614502,793.643494 790.955994,807.037476 798.965088,825.950806 
	C800.568115,823.017334 801.932312,820.520813 803.296570,818.024231 
	C803.794678,817.947388 804.292786,817.870483 804.790894,817.793579 
	C806.186646,824.454285 808.601501,831.094971 808.733093,837.780457 
	C808.918152,847.190125 808.369812,856.839050 806.400513,866.013367 
	C803.452393,879.747925 800.604980,893.337524 801.937317,908.075989 
	C801.785889,908.826660 801.760132,909.019531 801.651855,909.097168 
	C801.546021,909.172974 801.284119,909.201416 801.213867,909.129822 
	C800.528015,908.431274 799.868042,907.707397 799.083130,906.663330 
	C798.625183,906.415649 798.284790,906.495239 797.944397,906.574890 
	C798.270142,907.038208 798.595886,907.501587 799.130127,908.154053 
	C799.246887,910.143921 799.254150,911.957092 799.027100,913.740540 
	C798.886597,914.844299 798.389893,915.902649 798.053101,916.981384 
M789.998474,885.415283 
	C791.540710,890.688843 793.082886,895.962402 794.625061,901.235962 
	C795.202820,901.095947 795.780640,900.955933 796.358398,900.815918 
	C789.216309,883.724731 790.428406,865.645447 789.170349,847.806335 
	C787.180603,860.079407 788.284302,872.320435 789.998474,885.415283 
M789.000488,902.719910 
	C788.839233,902.983032 788.677917,903.246155 788.516602,903.509277 
	C788.778992,903.345581 789.041382,903.181885 789.000488,902.719910 
M781.411133,895.481628 
	C781.411133,895.481628 781.523987,895.413086 781.411133,895.481628 
M795.404175,907.482910 
	C795.404175,907.482910 795.521179,907.412048 795.404175,907.482910 
M794.482056,905.589111 
	C794.482056,905.589111 794.416199,905.478149 794.482056,905.589111 
M797.998291,904.500000 
	C797.798706,904.366821 797.599060,904.233704 797.399475,904.100525 
	C797.432983,904.400330 797.466492,904.700195 797.998291,904.500000 
M796.499939,902.000000 
	C796.366638,902.199951 796.233276,902.399963 796.099976,902.599976 
	C796.399963,902.566650 796.700012,902.533325 796.499939,902.000000 
z"/>
<path fill="#292929" opacity="1.000000" stroke="none" 
	d="
M959.208801,930.060242 
	C954.003967,947.583496 942.319580,958.983765 924.912598,965.824585 
	C901.633972,973.379700 880.290894,969.960693 860.026367,958.314453 
	C845.698181,950.079773 835.121521,938.142151 827.105469,923.821045 
	C818.017334,903.664734 815.822754,882.925415 822.098389,861.562683 
	C827.377686,843.591675 837.772766,828.664429 852.103394,817.107483 
	C867.861633,804.399170 884.823547,793.191101 901.129333,781.151123 
	C911.156677,773.747009 921.076538,766.182007 930.789551,758.372070 
	C940.323181,750.706360 946.997009,740.846313 951.965454,729.184082 
	C958.135803,723.724792 958.929932,716.456665 960.560791,709.666321 
	C964.377502,693.774841 958.221252,678.306824 944.822449,668.828796 
	C943.383850,667.811157 942.305603,666.284058 941.060242,664.993347 
	C941.367126,664.541138 941.674011,664.088928 941.980957,663.636719 
	C943.713135,664.268433 945.550842,664.703674 947.158569,665.567200 
	C952.969910,668.688477 957.276794,673.425110 960.402039,679.121887 
	C965.340637,688.124146 967.376831,697.907532 965.003906,707.897705 
	C963.001587,716.327576 959.603271,724.423218 956.941284,732.704773 
	C956.751709,733.294556 957.534607,734.196899 957.865295,734.953918 
	C947.653625,748.831909 935.911560,761.329224 922.045349,771.502136 
	C905.817627,783.407532 888.884399,794.346497 872.512146,806.061157 
	C856.566772,817.470520 841.737122,830.227173 832.586121,848.012512 
	C818.613586,875.168884 818.860352,902.615906 835.327209,928.336670 
	C852.031311,954.427979 876.692688,967.447266 908.107910,964.796021 
	C915.983032,964.131348 923.594482,960.342224 931.904236,957.683594 
	C937.407349,952.944153 942.333313,948.510132 947.531372,943.888550 
	C950.296509,939.076294 952.789551,934.451599 955.582520,929.795166 
	C956.991211,929.862427 958.099976,929.961365 959.208801,930.060242 
z"/>
<path fill="#111111" opacity="1.000000" stroke="none" 
	d="
M777.000244,886.225098 
	C777.421204,889.170898 777.692932,891.835999 777.954224,894.949463 
	C770.245728,888.297913 762.739502,880.969482 754.725464,874.246399 
	C752.509949,872.387695 748.472595,871.042786 745.807495,871.685608 
	C737.469910,873.696655 729.364502,876.698792 721.213928,879.449768 
	C711.475220,882.736755 701.940186,886.771057 692.020081,889.331482 
	C684.156250,891.361145 675.935730,890.857666 668.585388,887.308594 
	C678.653198,881.285889 688.652405,875.304199 699.186584,869.002441 
	C696.767761,867.621399 695.264343,866.763062 693.357117,865.674072 
	C703.706177,859.229980 714.438660,855.711853 726.428101,855.237671 
	C695.700745,834.233521 638.546814,826.488953 602.206299,860.556763 
	C601.634033,859.931030 601.519287,859.622803 601.404602,859.314575 
	C618.346008,842.253357 639.340393,834.733948 662.883911,833.681152 
	C695.823608,832.208191 724.391052,844.245239 750.305725,863.355713 
	C759.633972,870.234680 768.029785,878.378113 777.000244,886.225098 
M742.762512,867.308594 
	C743.791931,867.400574 744.821350,867.492615 745.850769,867.584656 
	C739.670105,864.265625 733.427612,864.646118 727.155701,867.210632 
	C732.072327,867.210632 736.988892,867.210632 742.762512,867.308594 
z"/>
<path fill="#0E0E0E" opacity="1.000000" stroke="none" 
	d="
M873.913452,712.955994 
	C870.967773,716.474060 868.022156,719.992065 865.076477,723.510132 
	C864.499695,723.134460 863.922974,722.758850 863.346191,722.383179 
	C864.056396,720.439636 864.713501,718.474792 865.485718,716.556213 
	C869.070129,707.651428 870.074951,698.530396 867.563232,689.197998 
	C863.930664,675.701050 853.255005,666.591675 839.519348,665.079895 
	C825.077820,663.490417 812.715210,669.600098 806.310547,681.491821 
	C799.538757,694.065063 800.433472,709.602173 809.619446,719.853699 
	C815.231079,726.116272 821.984497,731.412415 828.536682,736.760864 
	C836.723938,743.443909 844.557495,750.346619 848.907837,760.275452 
	C852.680847,768.886780 852.805176,777.351501 846.920044,785.604431 
	C846.253235,785.455994 846.063599,785.150696 845.873962,784.845398 
	C851.560303,772.548340 849.387634,761.679993 837.933472,751.365479 
	C831.424744,745.504272 823.870300,740.781921 816.660156,735.727356 
	C806.677063,728.728882 797.782898,720.891113 794.135803,708.655396 
	C788.176270,688.661682 796.863708,666.605347 814.276245,657.504211 
	C833.092896,647.669250 856.187866,652.456970 870.125000,669.557800 
	C879.607971,683.748718 879.888672,698.101379 873.913452,712.955994 
z"/>
<path fill="#111111" opacity="1.000000" stroke="none" 
	d="
M798.154358,917.304871 
	C798.389893,915.902649 798.886597,914.844299 799.027100,913.740540 
	C799.254150,911.957092 799.246887,910.143921 799.203308,907.911499 
	C799.112183,907.316711 799.156372,907.153748 799.200684,906.990723 
	C799.868042,907.707397 800.528015,908.431274 801.213867,909.129822 
	C801.284119,909.201416 801.546021,909.172974 801.651855,909.097168 
	C801.760132,909.019531 801.785889,908.826660 801.889160,908.448364 
	C802.228027,914.204712 806.770081,917.552979 810.300537,921.487610 
	C814.178162,925.809326 818.222900,929.981018 822.624634,934.690063 
	C834.850464,947.234924 847.511353,958.180969 863.158081,965.051392 
	C883.405212,973.941711 904.098389,973.839233 925.027039,967.755615 
	C924.139587,968.744751 923.441284,970.220520 922.336365,970.649841 
	C905.991028,977.000671 889.260132,977.738770 872.289612,973.616821 
	C859.287842,970.458862 847.937195,963.979248 837.202271,956.177185 
	C835.686462,955.075439 832.992554,954.608337 831.166504,955.084473 
	C821.425293,957.624146 812.268982,955.726196 803.519470,951.629761 
	C797.969543,949.031311 792.473633,946.050537 787.550903,942.429016 
	C772.267639,931.185486 755.199280,928.383484 736.844116,930.508789 
	C730.732971,931.216370 724.583008,931.588196 718.258667,932.129944 
	C733.537109,913.000000 771.148621,896.430908 799.888184,924.529053 
	C809.036255,933.270386 815.846436,943.756287 826.840820,949.442017 
	C827.123047,949.130737 827.405273,948.819458 827.687439,948.508118 
	C818.874023,939.395020 810.060547,930.281921 801.247131,921.168762 
	C800.250000,919.988586 799.252808,918.808472 798.154358,917.304871 
M828.901550,949.087585 
	C828.552246,949.133423 828.202942,949.179260 827.853577,949.224976 
	C828.172180,949.547729 828.490723,949.870483 829.026367,950.648376 
	C829.480164,950.630188 829.933899,950.612061 830.387695,950.593872 
	C830.016479,950.307129 829.645203,950.020325 828.901550,949.087585 
M806.416199,948.157776 
	C813.309814,951.744568 820.454712,954.202637 828.672913,953.563721 
	C823.341614,950.376831 818.188232,947.789429 813.609009,944.421387 
	C808.945862,940.991638 805.023438,936.569702 800.457825,932.988770 
	C794.734863,928.500061 789.122070,923.553223 782.692444,920.346863 
	C767.538025,912.789856 752.757324,915.810669 738.605286,923.654968 
	C740.623657,923.961243 742.613708,923.906982 744.589905,923.712097 
	C761.020020,922.092407 775.842834,925.841187 788.929932,936.279236 
	C794.237244,940.512207 800.112488,944.033081 806.416199,948.157776 
z"/>
<path fill="#0B0B0B" opacity="1.000000" stroke="none" 
	d="
M958.104675,734.714478 
	C957.534607,734.196899 956.751709,733.294556 956.941284,732.704773 
	C959.603271,724.423218 963.001587,716.327576 965.003906,707.897705 
	C967.376831,697.907532 965.340637,688.124146 960.402039,679.121887 
	C957.276794,673.425110 952.969910,668.688477 947.158569,665.567200 
	C945.550842,664.703674 943.713135,664.268433 941.980957,663.636719 
	C941.674011,664.088928 941.367126,664.541138 941.060242,664.993347 
	C942.305603,666.284058 943.383850,667.811157 944.822449,668.828796 
	C958.221252,678.306824 964.377502,693.774841 960.560791,709.666321 
	C958.929932,716.456665 958.135803,723.724792 952.235962,728.961304 
	C955.491272,717.851379 958.432800,706.683350 955.932007,694.815491 
	C952.701294,679.483337 938.127991,667.671265 923.391663,668.592468 
	C907.461182,669.588440 893.864136,682.468140 892.587585,697.976807 
	C892.006226,705.038879 893.899475,711.410461 898.613464,716.897644 
	C899.625793,718.075989 900.008667,719.795044 899.980347,721.409790 
	C892.016663,720.603821 888.140259,715.415771 884.504639,709.426147 
	C879.162537,697.212219 881.330078,685.925903 886.885620,674.884399 
	C895.236572,662.306580 906.363220,653.915100 921.837219,652.885437 
	C952.782166,650.826416 975.614075,677.345032 969.599243,708.071167 
	C967.719482,717.674011 963.967468,726.471558 958.104675,734.714478 
z"/>
<path fill="#161616" opacity="1.000000" stroke="none" 
	d="
M959.427124,929.755127 
	C958.099976,929.961365 956.991211,929.862427 955.617981,929.425415 
	C955.537720,928.179688 955.721924,927.271973 955.960938,926.093872 
	C952.829773,930.932190 949.892944,935.470276 946.602295,939.749451 
	C950.654114,931.713074 953.736267,923.613892 953.301514,914.421631 
	C952.004639,887.003662 924.772644,863.307617 897.383423,866.305298 
	C882.030884,867.985535 870.442993,875.474731 864.785095,890.448059 
	C862.511597,896.464844 862.354675,902.589722 865.709595,908.506104 
	C864.853149,900.664124 865.892273,893.311340 870.881592,886.981689 
	C880.700378,874.525146 893.668457,871.037109 908.766357,873.994507 
	C936.068481,879.342407 960.365112,910.655884 943.094482,940.646912 
	C942.220764,942.208069 941.600586,943.579468 940.639832,945.059509 
	C939.827881,945.119263 939.356506,945.070374 938.885132,945.021423 
	C940.264343,942.244263 941.813721,939.537476 942.994995,936.678589 
	C950.355225,918.866272 944.477722,899.912170 927.577026,887.453064 
	C916.324036,879.157471 903.821594,875.223267 890.010742,879.340271 
	C879.836670,882.373108 872.546997,888.925049 870.437317,899.881042 
	C869.358032,905.486023 870.755127,910.494019 875.593201,914.020935 
	C882.665405,919.176453 889.267944,916.499634 890.443237,907.467407 
	C894.117126,909.771545 893.614319,912.739075 892.377563,915.602966 
	C890.044556,921.005432 883.091003,923.943604 876.218567,922.675537 
	C867.264893,921.023315 860.265381,913.348145 858.924744,903.712280 
	C856.412292,885.653931 869.211487,867.508667 888.974670,863.138428 
	C896.675903,861.435425 905.058411,862.813416 913.839355,863.002930 
	C918.033875,864.473511 921.519592,865.729248 925.266968,867.200562 
	C945.824097,879.058899 957.523926,895.686462 955.989868,920.342896 
	C955.528015,924.356201 957.135681,925.794006 960.713135,925.108154 
	C960.357178,926.555420 960.001282,928.002686 959.427124,929.755127 
z"/>
<path fill="#0D0D0D" opacity="1.000000" stroke="none" 
	d="
M101.829971,913.347290 
	C73.465752,914.521362 45.878418,912.050903 18.499613,907.013611 
	C18.467365,906.546509 18.435116,906.079468 18.402866,905.612366 
	C35.530594,903.532898 52.658321,901.453430 70.256165,899.316833 
	C69.035843,898.457031 67.887360,897.647766 66.738884,896.838562 
	C66.847435,896.269897 66.955978,895.701172 67.064529,895.132507 
	C83.382278,896.224670 99.743629,896.890381 116.003006,898.553345 
	C127.555603,899.734863 138.981140,902.203003 150.432541,904.268005 
	C151.710541,904.498413 152.786850,905.847534 153.956696,906.677856 
	C152.791794,907.333557 151.674683,908.448425 150.454742,908.575378 
	C134.415421,910.244507 118.361610,911.774353 101.829971,913.347290 
M131.322006,906.563904 
	C118.455559,906.563904 105.589111,906.563904 92.722672,906.563904 
	C92.721382,906.670532 92.720093,906.777161 92.718803,906.883789 
	C105.337830,906.883789 117.956863,906.883789 131.322006,906.563904 
z"/>
<path fill="#0D0D0D" opacity="1.000000" stroke="none" 
	d="
M890.696533,189.928909 
	C887.717468,230.000732 883.708191,253.288818 878.886719,256.225464 
	C870.855713,210.772537 871.212219,165.693710 879.683167,120.672424 
	C880.180908,120.640175 880.678650,120.607918 881.176392,120.575661 
	C883.234131,137.599030 885.291870,154.622406 887.390625,171.985336 
	C888.235535,170.822586 889.067566,169.677521 890.719666,167.403961 
	C890.719666,175.658203 890.719666,182.549194 890.696533,189.928909 
M880.993225,237.028305 
	C880.984009,222.024307 880.974792,207.020294 881.053711,191.080002 
	C881.053711,181.147766 881.053711,171.215530 881.053711,161.283295 
	C880.515198,161.283737 879.976746,161.284164 879.438232,161.284592 
	C879.438232,171.571808 879.438232,181.859024 879.307495,193.053299 
	C879.322144,207.993500 879.336792,222.933685 879.144775,238.794189 
	C879.144775,242.335861 879.144775,245.877548 879.144775,249.419220 
	C879.730286,249.410019 880.315796,249.400818 880.901306,249.391632 
	C880.901306,245.579803 880.901306,241.767990 880.993225,237.028305 
z"/>
<path fill="#111111" opacity="1.000000" stroke="none" 
	d="
M461.052612,913.639038 
	C448.303772,920.360168 435.450897,926.895447 422.877899,933.930908 
	C419.666321,935.728088 417.009796,938.847351 414.670410,941.810852 
	C407.821136,950.487366 412.247192,961.736450 423.206970,963.739380 
	C425.799744,964.213135 428.510773,964.007996 431.159821,964.213074 
	C435.039948,964.513794 435.998901,966.324524 433.507935,969.299194 
	C428.812164,974.906738 422.394531,976.468994 415.487976,975.443176 
	C396.291656,972.591736 387.139038,950.471191 397.897736,933.224365 
	C402.936676,925.146606 410.311310,919.694885 418.968811,916.384888 
	C426.840302,913.375366 435.135315,911.473450 444.066223,909.141602 
	C449.858215,908.165588 454.827637,907.131348 460.014954,906.376831 
	C460.677734,906.848511 461.132355,907.022339 461.557709,907.250610 
	C461.627106,907.287781 461.567505,907.565430 461.567505,907.877197 
	C457.908539,908.646912 454.172089,909.307495 450.500702,910.227844 
	C436.888123,913.640442 423.466064,917.561646 412.303070,926.649963 
	C407.174500,930.825256 402.980743,935.770874 401.569183,942.433044 
	C401.107971,944.609741 401.496613,946.966431 401.496613,949.240845 
	C401.920959,949.321533 402.345276,949.402222 402.769623,949.482971 
	C405.286163,941.889893 409.440430,935.102722 416.486023,931.686218 
	C431.709137,924.304443 447.365387,917.815063 462.865051,911.007629 
	C463.408081,910.769165 464.170563,911.030334 464.813141,911.365112 
	C463.547913,912.327454 462.300293,912.983215 461.052612,913.639038 
z"/>
<path fill="#101010" opacity="1.000000" stroke="none" 
	d="
M872.847534,561.833740 
	C865.968506,549.138306 859.242065,536.355957 852.097290,523.811890 
	C850.429565,520.883972 847.591064,518.441711 844.860596,516.333801 
	C836.324219,509.743652 825.683777,513.633972 823.212219,524.204773 
	C822.537598,527.090149 822.606812,530.149902 822.340027,533.130066 
	C822.023804,536.662964 820.056213,537.824341 817.627686,535.372986 
	C815.269287,532.992371 813.137634,529.912048 812.138367,526.749756 
	C809.264038,517.653992 811.870667,509.528656 818.565796,503.024323 
	C826.345398,495.466400 835.762451,493.102051 846.214355,496.362244 
	C855.772156,499.343536 862.371399,505.974365 867.218079,514.506592 
	C873.136780,524.926147 876.026428,536.333984 878.016052,548.846924 
	C878.168884,551.073425 878.369080,552.467163 878.187500,553.908691 
	C877.551331,553.968750 877.296814,553.980835 876.910400,553.631165 
	C873.564453,540.340027 869.897461,527.572876 861.987915,516.559143 
	C857.546753,510.374939 852.193970,505.164917 844.442871,503.449860 
	C842.178345,502.948792 839.709106,503.372803 837.333740,503.372803 
	C837.248962,503.811646 837.164246,504.250519 837.079468,504.689362 
	C846.064819,507.102722 852.708862,512.803101 856.632385,520.657043 
	C862.990967,533.385498 868.329102,546.624573 874.035156,559.675598 
	C874.330261,560.350403 874.037415,561.282288 873.759338,562.059387 
	C873.328247,561.997620 873.156128,561.971008 872.962769,561.900757 
	C872.941650,561.857117 872.847534,561.833740 872.847534,561.833740 
z"/>
<path fill="#101010" opacity="1.000000" stroke="none" 
	d="
M884.097168,547.961975 
	C889.153870,531.490967 897.286011,517.148743 912.487854,507.929749 
	C920.741577,502.924408 929.480103,499.465118 939.431946,502.118134 
	C949.446167,504.787750 955.509277,514.630127 951.929077,522.828674 
	C950.930725,525.114868 948.922363,527.216492 946.864807,528.684326 
	C945.692017,529.520935 943.380981,529.240417 941.801025,528.753540 
	C941.287659,528.595337 941.218628,526.160461 941.373657,524.816101 
	C941.972778,519.621582 939.202698,516.869446 933.709717,518.920288 
	C926.788391,521.504395 920.360718,525.419739 913.751831,528.822510 
	C912.582275,529.424622 911.568237,530.328674 909.971375,531.468750 
	C904.119873,536.608032 898.779297,541.371765 893.363342,546.031494 
	C893.287964,545.927490 893.262512,545.671875 893.473022,545.101379 
	C893.699951,544.125854 893.716370,543.720764 893.856628,543.026855 
	C903.265808,529.786804 915.376038,519.797974 928.288330,510.369659 
	C924.006104,510.681580 920.110291,511.496826 916.588501,513.122437 
	C902.637634,519.561829 893.596130,530.693970 887.311035,544.403259 
	C886.675598,545.789307 885.188843,546.785095 884.097168,547.961975 
z"/>
<path fill="#101010" opacity="1.000000" stroke="none" 
	d="
M445.658997,902.317871 
	C426.287781,896.634155 410.812378,886.137390 402.429016,867.034485 
	C399.483185,860.321960 398.325348,853.362000 400.724884,846.166687 
	C403.412537,838.107361 410.603271,832.935242 417.947052,833.888916 
	C422.586914,834.491455 426.160309,836.752075 427.540680,841.411194 
	C428.299133,843.971252 427.872681,846.060425 424.210022,845.654236 
	C417.370270,844.895691 414.677399,848.051514 417.506470,854.789795 
	C420.440918,861.779053 424.645721,868.237366 428.340668,874.902466 
	C428.899780,875.911011 429.707336,876.781738 430.750427,878.227539 
	C432.200470,880.110596 433.300110,881.482239 434.040680,882.998779 
	C432.710297,883.463989 431.738983,883.784363 430.464111,883.968994 
	C423.080841,875.466003 416.001099,867.098633 408.918701,858.728149 
	C408.751099,858.961792 408.405731,859.223022 408.406036,859.483765 
	C408.406982,860.299011 408.465698,861.129150 408.630432,861.926941 
	C410.433868,870.661621 415.009277,877.881348 420.925934,884.369324 
	C428.395020,892.559753 438.020447,897.388672 447.371216,901.866699 
	C446.414642,902.095825 446.036835,902.206848 445.658997,902.317871 
z"/>
<path fill="#111111" opacity="1.000000" stroke="none" 
	d="
M502.085022,906.233154 
	C504.206116,906.233154 506.327179,906.233154 508.448273,906.233154 
	C508.480804,906.645874 508.513306,907.058655 508.545837,907.471375 
	C507.270294,907.855774 505.994720,908.240173 503.952576,908.734985 
	C498.105591,910.341675 492.835327,911.388611 487.988495,913.437378 
	C480.331085,916.674438 472.913971,920.570068 468.316315,928.012817 
	C465.830658,932.036621 464.670715,936.289978 466.933838,940.569336 
	C470.206390,936.299744 472.624359,931.134766 476.671967,928.281860 
	C485.163269,922.296753 494.511566,917.527649 503.646362,912.486206 
	C503.898102,912.849060 504.011566,912.985046 504.075836,913.334473 
	C504.026642,913.547791 503.919739,913.972351 503.919739,913.972412 
	C495.950195,920.187744 487.615082,925.998596 480.136169,932.756897 
	C474.927704,937.463623 475.227509,942.369324 479.724426,947.741394 
	C480.666656,948.867004 483.038971,949.744385 484.403290,949.390564 
	C488.534149,948.319153 488.665497,950.904419 488.499542,953.458984 
	C488.230927,957.593872 484.209717,960.731873 479.317047,961.014771 
	C467.415100,961.703125 456.925995,949.280518 458.423401,936.406860 
	C459.597198,926.315125 465.625061,919.930664 474.611603,915.068115 
	C475.812347,914.445740 476.508789,914.080505 477.570740,913.616577 
	C481.714355,912.196472 485.492432,910.875061 489.677429,909.535217 
	C492.967529,908.951050 495.850677,908.385315 499.089935,907.911011 
	C500.325684,907.412659 501.205353,906.822937 502.085022,906.233154 
z"/>
<path fill="#111111" opacity="1.000000" stroke="none" 
	d="
M872.027466,604.934326 
	C865.951172,597.103760 860.283508,588.904053 853.657715,581.569946 
	C849.095642,576.520264 842.451355,577.289062 837.815002,582.327087 
	C837.068909,583.137878 836.835327,585.079407 837.242004,586.171631 
	C838.610962,589.847717 836.320740,590.277466 833.798340,590.328430 
	C829.732483,590.410706 826.295959,586.564636 825.791931,581.644226 
	C824.700806,570.992859 834.691650,560.607239 846.717346,560.133484 
	C857.486023,559.709106 864.945007,565.151123 870.824585,574.508301 
	C873.619629,582.260925 875.893982,589.539307 878.077393,597.197083 
	C877.722290,598.997070 877.458130,600.417603 877.098999,601.465332 
	C875.982300,597.768921 875.213135,594.340698 873.888489,591.142517 
	C870.694885,583.431946 866.892883,576.046631 859.957825,570.907654 
	C854.993347,567.228943 850.062317,566.744019 846.570557,568.968323 
	C850.498962,572.028748 855.446045,574.559814 858.485535,578.545654 
	C863.683777,585.362244 867.775024,593.039124 872.096191,600.490906 
	C872.733154,601.589355 872.082397,603.434631 872.027466,604.934326 
z"/>
<path fill="#111111" opacity="1.000000" stroke="none" 
	d="
M921.998413,543.015747 
	C928.193909,545.342957 933.076538,548.991394 934.608337,555.861694 
	C935.852722,561.442871 932.486938,567.788391 927.446777,568.983704 
	C925.825256,569.368103 923.714111,569.192932 922.326721,568.399658 
	C921.671570,568.025024 922.138855,565.585938 922.203613,564.086792 
	C922.251770,562.970825 922.470398,561.862183 922.636780,560.565491 
	C917.673096,559.015625 913.682434,561.149292 910.691895,564.009949 
	C902.228516,572.105713 894.224304,580.681396 885.624939,589.130615 
	C885.210693,589.193115 884.862732,588.881042 884.907227,588.531250 
	C892.898071,574.447693 901.776245,561.465027 914.526306,551.147095 
	C910.173950,551.746582 906.032410,552.713745 902.610229,554.839355 
	C894.610901,559.807800 889.633362,567.427063 885.834656,575.896973 
	C884.717529,578.387878 883.293396,580.741089 881.923828,582.747192 
	C881.840210,581.500305 881.842529,580.663574 881.924683,579.457153 
	C884.261597,573.395142 885.950439,567.388672 888.888794,562.072815 
	C895.994934,549.217102 906.289368,541.240723 921.998413,543.015747 
z"/>
<path fill="#101010" opacity="1.000000" stroke="none" 
	d="
M443.077087,880.862000 
	C440.565155,873.416748 439.331116,866.030090 444.107758,858.928955 
	C448.239807,852.786133 455.612701,850.105408 461.361969,853.135559 
	C463.554779,854.291382 465.646271,856.367920 466.787781,858.546692 
	C467.617126,860.129700 466.809479,862.570374 466.731720,864.628662 
	C465.194214,864.560669 463.587463,864.756409 462.132416,864.374329 
	C458.108459,863.317749 457.350128,865.811951 458.531097,868.382507 
	C460.577240,872.836304 462.783844,877.545776 466.106232,881.015015 
	C472.962311,888.174011 480.597229,894.587158 487.565857,901.653931 
	C472.880096,894.374573 459.965332,884.943359 449.313232,872.146118 
	C449.812134,876.259155 450.376404,880.434937 452.616211,883.301575 
	C456.437958,888.192932 461.311188,892.262756 465.392212,896.837402 
	C464.691833,897.914185 464.342010,898.831238 463.662292,899.681030 
	C454.643951,895.455200 447.781708,889.323914 443.077087,880.862000 
z"/>
<path fill="#1D1D1D" opacity="1.000000" stroke="none" 
	d="
M825.276794,803.042175 
	C824.803528,802.027893 823.893677,801.000061 823.924622,800.001282 
	C824.240356,789.795654 822.623230,780.061157 816.774414,771.470764 
	C809.458435,760.725342 799.536804,755.156311 786.205872,756.916077 
	C785.226135,757.045471 784.030396,757.050354 783.343933,757.612488 
	C781.083008,759.463928 777.711731,761.293518 777.262146,763.614746 
	C776.879089,765.592651 779.940857,768.237671 781.670349,770.880493 
	C779.204895,771.466370 776.142029,770.589294 773.836975,767.812744 
	C771.031738,764.433777 770.573181,760.429077 772.823303,756.647583 
	C777.375366,748.997314 784.988159,746.598816 793.189575,746.143372 
	C812.932251,745.047241 830.069031,761.206299 830.764648,782.053345 
	C830.975708,788.379883 829.035522,794.778259 828.418945,801.500000 
	C828.757202,801.856262 828.877319,801.911926 828.490417,801.725098 
	C827.878174,802.002686 827.652832,802.467102 827.302612,802.679443 
	C826.544128,802.632263 825.910461,802.837219 825.276794,803.042175 
M782.128601,754.231445 
	C795.525757,750.877747 806.873291,754.419495 815.783447,764.862061 
	C824.357788,774.911011 826.866211,786.907593 825.797852,800.004272 
	C826.810486,798.765076 827.461548,797.532715 827.746399,796.220764 
	C829.752319,786.981628 828.843323,778.017822 824.830383,769.443787 
	C816.620728,751.902832 796.308777,744.630798 780.022522,753.792358 
	C779.441833,753.995117 778.861145,754.197876 778.280457,754.400635 
	C778.325439,754.588806 778.370422,754.776978 778.415344,754.965088 
	C779.383057,754.755371 780.350708,754.545654 782.128601,754.231445 
z"/>
<path fill="#747474" opacity="1.000000" stroke="none" 
	d="
M878.569214,553.860840 
	C878.369080,552.467163 878.168884,551.073425 878.052246,549.263916 
	C878.432739,547.283997 878.989014,545.720093 878.989685,544.155945 
	C879.027405,451.613892 879.007446,359.071838 879.075317,266.529816 
	C879.077271,263.871399 879.964783,261.213654 880.694092,258.264648 
	C880.948853,257.973724 880.918701,257.969208 880.918701,257.969208 
	C880.965393,355.984650 881.012146,454.000061 880.998840,552.795410 
	C880.836426,553.774292 880.734009,553.973267 880.366150,554.215576 
	C879.590210,554.126221 879.079712,553.993530 878.569214,553.860840 
z"/>
<path fill="#EAEAEA" opacity="1.000000" stroke="none" 
	d="
M477.205200,913.715210 
	C476.508789,914.080505 475.812347,914.445740 474.909241,914.829590 
	C472.454926,912.815979 470.624207,909.644653 466.272705,911.766968 
	C465.448212,911.407715 465.139465,911.233093 464.830719,911.058594 
	C464.170563,911.030334 463.408081,910.769165 462.865051,911.007629 
	C447.365387,917.815063 431.709137,924.304443 416.486023,931.686218 
	C409.440430,935.102722 405.286163,941.889893 402.769623,949.482971 
	C402.345276,949.402222 401.920959,949.321533 401.496613,949.240845 
	C401.496613,946.966431 401.107971,944.609741 401.569183,942.433044 
	C402.980743,935.770874 407.174500,930.825256 412.303070,926.649963 
	C423.466064,917.561646 436.888123,913.640442 450.500702,910.227844 
	C454.172089,909.307495 457.908539,908.646912 461.567505,907.877197 
	C461.567505,907.565430 461.627106,907.287781 461.557709,907.250610 
	C461.132355,907.022339 460.677734,906.848511 459.921814,906.100708 
	C459.253845,905.093262 458.896942,904.641663 458.904724,904.046143 
	C462.334412,902.272034 464.211975,902.642334 463.294037,908.316833 
	C467.140686,906.270996 469.795776,904.858948 472.664551,903.452759 
	C473.252655,903.660095 473.627106,903.861633 474.004456,904.418945 
	C474.667419,906.501282 475.327484,908.227844 475.660400,910.012207 
	C475.957214,911.285095 476.581207,912.500183 477.205200,913.715210 
M467.795319,908.407349 
	C467.790680,908.798096 467.786011,909.188843 467.781342,909.579590 
	C467.944519,909.579041 468.249146,909.590088 468.250305,909.576111 
	C468.282135,909.189758 468.283112,908.800842 467.795319,908.407349 
z"/>
<path fill="#E9E9E9" opacity="1.000000" stroke="none" 
	d="
M925.028381,967.468689 
	C904.098389,973.839233 883.405212,973.941711 863.158081,965.051392 
	C847.511353,958.180969 834.850464,947.234924 822.920837,934.877014 
	C824.123413,931.215271 825.459595,927.838501 826.950684,924.141357 
	C835.121521,938.142151 845.698181,950.079773 860.026367,958.314453 
	C880.290894,969.960693 901.633972,973.379700 924.615112,966.028809 
	C925.013428,966.416992 925.021606,966.799377 925.028381,967.468689 
z"/>
<path fill="#EAEAEA" opacity="1.000000" stroke="none" 
	d="
M872.489197,561.949097 
	C872.847534,561.833740 872.941650,561.857117 873.050598,562.064087 
	C873.445801,562.212158 873.731995,562.153320 874.018250,562.094482 
	C874.037415,561.282288 874.330261,560.350403 874.035156,559.675598 
	C868.329102,546.624573 862.990967,533.385498 856.632385,520.657043 
	C852.708862,512.803101 846.064819,507.102722 837.079468,504.689362 
	C837.164246,504.250519 837.248962,503.811646 837.333740,503.372803 
	C839.709106,503.372803 842.178345,502.948792 844.442871,503.449860 
	C852.193970,505.164917 857.546753,510.374939 861.987915,516.559143 
	C869.897461,527.572876 873.564453,540.340027 876.875366,554.034912 
	C877.706421,559.168701 878.440613,563.537048 879.100891,568.298828 
	C878.683105,570.116333 878.339172,571.540466 878.012024,572.977905 
	C878.028748,572.991333 878.021240,573.033997 878.090332,572.646362 
	C877.769531,571.363953 877.379639,570.469299 876.739563,569.436523 
	C875.351257,569.862549 874.213196,570.426636 873.075073,570.990723 
	C872.760315,568.015259 872.445557,565.039856 872.489197,561.949097 
z"/>
<path fill="#EAEAEA" opacity="1.000000" stroke="none" 
	d="
M886.363708,674.642212 
	C881.330078,685.925903 879.162537,697.212219 884.135437,709.474731 
	C883.606384,709.938965 883.359314,709.963562 883.112305,709.988220 
	C882.246094,709.301392 881.379883,708.614563 880.774536,708.134583 
	C877.286316,708.565186 880.003052,715.499878 874.246094,713.104980 
	C879.888672,698.101379 879.607971,683.748718 870.368042,669.761841 
	C874.076599,669.243103 875.281372,667.191101 875.063721,663.506470 
	C874.589783,655.483093 874.374329,647.443604 874.115540,639.408752 
	C874.005859,636.002563 873.557007,632.493103 874.206604,629.217773 
	C874.622864,627.118835 876.764160,625.362000 878.588867,623.953125 
	C878.698120,641.153870 878.288025,657.852478 878.078918,674.553711 
	C878.051453,676.744568 879.053284,678.948425 879.578308,681.146240 
	C879.987244,681.093079 880.396179,681.039917 880.805115,680.986755 
	C881.348389,678.614868 881.891724,676.243042 882.434998,673.871155 
	C883.570618,674.047424 884.706177,674.223694 886.363708,674.642212 
z"/>
<path fill="#292929" opacity="1.000000" stroke="none" 
	d="
M914.141113,860.808716 
	C914.978699,856.944397 917.648193,858.302002 919.945007,858.827881 
	C943.375671,864.192688 961.603882,886.508606 962.249573,910.620728 
	C962.302856,912.611755 962.176819,914.607605 961.701172,916.916992 
	C961.433838,917.556580 961.599304,917.880432 961.764771,918.204346 
	C961.801941,918.603027 961.839111,919.001770 961.316589,919.690735 
	C959.897949,920.043762 959.039001,920.106506 958.071289,920.068542 
	C957.962524,919.967834 957.744324,919.767151 957.725342,919.315430 
	C959.860901,894.850647 946.881592,873.437500 924.930664,865.033325 
	C921.155334,863.491882 917.648254,862.150330 914.141113,860.808716 
z"/>
<path fill="#EAEAEA" opacity="1.000000" stroke="none" 
	d="
M880.631653,554.172241 
	C880.734009,553.973267 880.836426,553.774292 881.048096,553.257935 
	C881.952881,551.404175 882.748413,549.867798 883.820557,548.146729 
	C885.188843,546.785095 886.675598,545.789307 887.311035,544.403259 
	C893.596130,530.693970 902.637634,519.561829 916.588501,513.122437 
	C920.110291,511.496826 924.006104,510.681580 928.288330,510.369659 
	C915.376038,519.797974 903.265808,529.786804 893.556274,543.266052 
	C893.175537,544.420105 893.219055,545.045959 893.262512,545.671875 
	C893.262512,545.671875 893.287964,545.927490 893.394104,546.009399 
	C893.500244,546.091370 893.525452,546.024963 893.282349,545.635376 
	C891.801392,546.625061 890.563538,548.004395 889.055908,549.567200 
	C888.608093,550.131897 888.429993,550.513000 888.251953,550.894165 
	C888.925659,550.689880 889.599365,550.485657 890.464111,550.252686 
	C890.655090,550.223999 891.035767,550.158142 891.195312,550.373413 
	C891.253601,551.206421 891.364868,552.161865 891.013916,552.382751 
	C889.596558,553.274719 888.036682,553.940247 886.288391,554.809265 
	C886.170654,554.660095 885.635193,553.981567 884.849854,552.986572 
	C884.086060,554.248047 883.515137,555.190918 882.537598,556.100098 
	C881.586792,556.084229 881.042542,556.102051 880.555725,555.798340 
	C880.619263,555.041931 880.625488,554.607117 880.631653,554.172241 
z"/>
<path fill="#E9E9E9" opacity="1.000000" stroke="none" 
	d="
M465.742798,896.677612 
	C461.311188,892.262756 456.437958,888.192932 452.616211,883.301575 
	C450.376404,880.434937 449.812134,876.259155 449.313232,872.146118 
	C459.965332,884.943359 472.880096,894.374573 487.580261,901.990723 
	C489.031830,901.940918 490.144043,902.019348 491.209015,901.830811 
	C492.513763,901.599731 493.778992,901.145386 495.061310,900.787598 
	C495.056519,902.174561 495.051697,903.561584 494.642792,905.387573 
	C493.294556,906.000305 492.350433,906.174072 490.161041,906.576965 
	C493.916779,907.121338 496.325317,907.470459 498.733856,907.819580 
	C495.850677,908.385315 492.967529,908.951050 489.487366,909.210327 
	C485.304016,908.651001 481.717712,908.398071 477.851868,908.093140 
	C477.713409,907.067505 477.854462,906.093811 478.368042,905.102539 
	C480.192505,905.055542 481.644379,905.026062 483.381653,904.959778 
	C483.918274,904.473877 484.169525,904.024780 484.420746,903.575684 
	C483.924377,903.766052 483.428040,903.956482 482.573792,904.044556 
	C476.724854,901.520691 471.233826,899.099121 465.742798,896.677612 
z"/>
<path fill="#EEEEEE" opacity="1.000000" stroke="none" 
	d="
M893.525513,546.024963 
	C893.525452,546.024963 893.500244,546.091370 893.469482,546.113403 
	C898.779297,541.371765 904.119873,536.608032 909.758911,531.765869 
	C910.700989,531.825623 911.344482,531.963867 912.996399,532.318787 
	C911.486511,533.603455 910.353149,534.331909 909.548645,535.326355 
	C908.898132,536.130432 908.190674,537.349182 908.368774,538.205017 
	C908.492554,538.799866 910.044861,539.359192 911.011230,539.467407 
	C913.771912,539.776611 916.585999,539.676208 919.321594,540.104370 
	C920.287659,540.255493 921.087463,541.468689 921.980835,542.606323 
	C906.289368,541.240723 895.994934,549.217102 888.888794,562.072815 
	C885.950439,567.388672 884.261597,573.395142 881.603516,579.205811 
	C881.011780,575.496399 880.820862,571.668579 880.661987,567.406006 
	C880.832947,564.407959 880.971863,561.844727 881.481323,559.545288 
	C882.216003,558.583984 882.580139,557.358887 882.944275,556.133789 
	C883.515137,555.190918 884.086060,554.248047 884.849854,552.986572 
	C885.635193,553.981567 886.170654,554.660095 886.288391,554.809265 
	C888.036682,553.940247 889.596558,553.274719 891.013916,552.382751 
	C891.364868,552.161865 891.253601,551.206421 891.351135,550.052673 
	C892.073486,548.352783 892.799500,547.188904 893.525513,546.024963 
z"/>
<path fill="#161616" opacity="1.000000" stroke="none" 
	d="
M516.052063,906.145142 
	C533.076904,905.419189 550.098083,904.572388 567.129333,904.061523 
	C570.870178,903.949341 574.646729,905.031555 578.943237,905.404663 
	C579.479553,905.245544 579.825073,905.356873 579.825073,905.356873 
	C579.825073,905.356873 580.158081,905.212158 580.158081,905.212158 
	C579.973633,905.879028 579.789124,906.545898 579.174438,907.429932 
	C578.431396,907.707275 578.166870,907.840515 577.950745,908.046875 
	C557.522827,911.361389 537.190735,908.623718 516.440491,906.812073 
	C516.041260,906.544678 516.052063,906.145142 516.052063,906.145142 
z"/>
<path fill="#E9E9E9" opacity="1.000000" stroke="none" 
	d="
M871.981445,605.290649 
	C872.082397,603.434631 872.733154,601.589355 872.096191,600.490906 
	C867.775024,593.039124 863.683777,585.362244 858.485535,578.545654 
	C855.446045,574.559814 850.498962,572.028748 846.570557,568.968323 
	C850.062317,566.744019 854.993347,567.228943 859.957825,570.907654 
	C866.892883,576.046631 870.694885,583.431946 873.888489,591.142517 
	C875.213135,594.340698 875.982300,597.768921 877.145996,601.819824 
	C879.543213,606.269531 879.466919,611.427734 877.131470,613.128235 
	C875.713745,611.746094 874.142395,610.483215 872.939453,608.934265 
	C872.282776,608.088562 872.249695,606.758545 871.981445,605.290649 
z"/>
<path fill="#EAEAEA" opacity="1.000000" stroke="none" 
	d="
M504.202179,914.162170 
	C503.919739,913.972351 504.026642,913.547791 504.359314,913.248047 
	C504.701874,912.664978 504.711792,912.381714 504.721680,912.098389 
	C504.317139,912.152039 503.912598,912.205688 503.508057,912.259399 
	C494.511566,917.527649 485.163269,922.296753 476.671967,928.281860 
	C472.624359,931.134766 470.206390,936.299744 466.933838,940.569336 
	C464.670715,936.289978 465.830658,932.036621 468.316315,928.012817 
	C472.913971,920.570068 480.331085,916.674438 487.988495,913.437378 
	C492.835327,911.388611 498.105591,910.341675 503.590332,908.903625 
	C505.210083,909.628113 506.425446,910.294312 507.640839,910.960510 
	C508.180359,910.628479 508.719910,910.296509 509.259430,909.964539 
	C508.871582,911.714233 508.483734,913.463867 508.095856,915.213623 
	C506.892090,914.926392 505.688354,914.639221 504.202179,914.162170 
z"/>
<path fill="#161616" opacity="1.000000" stroke="none" 
	d="
M882.415894,673.409424 
	C881.891724,676.243042 881.348389,678.614868 880.805115,680.986755 
	C880.396179,681.039917 879.987244,681.093079 879.578308,681.146240 
	C879.053284,678.948425 878.051453,676.744568 878.078918,674.553711 
	C878.288025,657.852478 878.698120,641.153870 878.969666,624.100830 
	C878.960938,623.377686 879.028137,623.008057 879.338989,622.198364 
	C879.996826,621.214417 880.411011,620.670654 880.825195,620.126953 
	C881.348999,637.733826 881.872864,655.340759 882.415894,673.409424 
z"/>
<path fill="#343434" opacity="1.000000" stroke="none" 
	d="
M421.997925,907.015747 
	C419.006195,907.068848 416.014435,907.168396 413.022705,907.168457 
	C329.321198,907.170044 245.619690,907.161499 161.462036,906.850708 
	C161.005905,906.546692 161.024796,906.121460 161.024796,906.121460 
	C162.020035,906.074402 163.015274,905.986206 164.010513,905.986206 
	C249.690201,905.984680 335.369873,905.990051 421.524658,906.277710 
	C421.999756,906.560547 421.997925,907.015747 421.997925,907.015747 
z"/>
<path fill="#EEEEEE" opacity="1.000000" stroke="none" 
	d="
M472.450867,903.446838 
	C469.795776,904.858948 467.140686,906.270996 463.294037,908.316833 
	C464.211975,902.642334 462.334412,902.272034 458.621338,903.892273 
	C456.713959,903.434082 455.454651,902.985779 454.082886,902.218140 
	C453.124420,901.290466 452.278442,900.682068 451.339935,899.724854 
	C450.830414,898.896179 450.413452,898.416382 449.995178,897.968994 
	C449.993896,898.001465 450.058716,897.997742 450.018433,897.657227 
	C444.785339,892.495789 439.592560,887.674866 434.399719,882.853882 
	C433.300110,881.482239 432.200470,880.110596 431.035034,878.419312 
	C431.578308,875.648682 432.128845,875.829651 434.128357,877.412354 
	C436.519745,879.305176 439.745850,880.143494 442.843750,881.150269 
	C447.781708,889.323914 454.643951,895.455200 463.970612,899.880981 
	C467.222778,901.247742 469.836823,902.347290 472.450867,903.446838 
z"/>
<path fill="#747474" opacity="1.000000" stroke="none" 
	d="
M880.934753,619.661133 
	C880.411011,620.670654 879.996826,621.214417 879.377258,621.918274 
	C879.117493,620.360962 879.063049,618.643494 878.862000,616.231812 
	C878.216614,615.131958 877.717834,614.726501 877.219055,614.321045 
	C877.039001,614.261414 876.858887,614.201843 876.484924,614.338623 
	C876.291138,614.534973 876.326111,614.482483 876.326111,614.482483 
	C876.326111,614.482483 876.770264,614.495483 877.015747,614.170898 
	C877.266235,613.578003 877.224060,613.317261 877.134583,613.064087 
	C877.134583,613.064087 877.071472,613.089294 877.101440,613.108765 
	C879.466919,611.427734 879.543213,606.269531 877.240967,602.192627 
	C877.458130,600.417603 877.722290,598.997070 878.367920,596.913330 
	C878.497986,588.488281 878.246643,580.726379 877.995300,572.964539 
	C878.339172,571.540466 878.683105,570.116333 879.345154,568.298096 
	C879.663269,567.903931 880.142029,567.802429 880.142029,567.802429 
	C880.142029,567.802429 880.629944,567.840820 880.629944,567.840820 
	C880.820862,571.668579 881.011780,575.496399 881.523804,579.575500 
	C881.842529,580.663574 881.840210,581.500305 881.928223,583.114136 
	C881.632385,587.067261 881.246094,590.243286 880.702942,594.709045 
	C882.126526,592.644104 882.679504,591.841980 883.497498,591.102905 
	C883.875122,591.308594 883.987793,591.451050 884.100403,591.593567 
	C878.804077,600.320496 881.658752,609.949951 880.934753,619.661133 
z"/>
<path fill="#DEDEDE" opacity="1.000000" stroke="none" 
	d="
M800.861816,921.971680 
	C810.060547,930.281921 818.874023,939.395020 827.687439,948.508118 
	C827.405273,948.819458 827.123047,949.130737 826.840820,949.442017 
	C815.846436,943.756287 809.036255,933.270386 800.229736,924.747986 
	C800.252380,923.940796 800.364380,923.357727 800.861816,921.971680 
z"/>
<path fill="#EEEEEE" opacity="1.000000" stroke="none" 
	d="
M878.012024,572.977905 
	C878.246643,580.726379 878.497986,588.488281 878.458862,596.533875 
	C875.893982,589.539307 873.619629,582.260925 871.106018,574.723450 
	C871.409119,573.437195 871.951538,572.410095 872.784546,571.186890 
	C874.213196,570.426636 875.351257,569.862549 876.509949,569.687256 
	C877.027405,571.062012 877.524292,572.048035 878.021240,573.033997 
	C878.021240,573.033997 878.028748,572.991333 878.012024,572.977905 
z"/>
<path fill="#343434" opacity="1.000000" stroke="none" 
	d="
M601.121704,859.491821 
	C601.519287,859.622803 601.634033,859.931030 601.900940,860.708374 
	C594.552612,869.582825 588.036377,878.614624 583.617188,889.626953 
	C582.828674,889.931946 582.564636,889.925110 582.300659,889.918274 
	C585.915649,878.263611 592.347961,868.335571 601.121704,859.491821 
z"/>
<path fill="#E9E9E9" opacity="1.000000" stroke="none" 
	d="
M883.077881,710.406006 
	C883.359314,709.963562 883.606384,709.938965 884.222595,709.865845 
	C888.140259,715.415771 892.016663,720.603821 899.676208,721.662720 
	C899.919617,722.701416 899.765991,723.631897 899.502869,725.225769 
	C896.496704,722.419678 891.200989,725.369934 889.920349,719.805664 
	C889.788086,719.230896 886.185303,719.726562 885.745483,718.899719 
	C884.430847,716.427979 883.887817,713.545776 883.077881,710.406006 
z"/>
<path fill="#EAEAEA" opacity="1.000000" stroke="none" 
	d="
M940.980408,944.950867 
	C941.600586,943.579468 942.220764,942.208069 943.266235,940.793457 
	C943.691528,940.750244 944.039246,941.038452 944.018066,941.253784 
	C943.996826,941.469055 944.041931,941.899414 944.174377,942.220215 
	C945.290955,943.052673 946.275146,943.564392 947.259277,944.076111 
	C942.333313,948.510132 937.407349,952.944153 932.234131,957.404297 
	C931.480591,956.856750 930.449646,956.136047 930.561829,955.735657 
	C930.977051,954.253296 931.769653,952.876648 933.078857,951.230225 
	C937.533569,950.638367 940.174744,948.893494 940.980408,944.950867 
z"/>
<path fill="#747474" opacity="1.000000" stroke="none" 
	d="
M578.306396,908.238403 
	C578.166870,907.840515 578.431396,907.707275 578.894958,907.669556 
	C579.463135,908.197693 580.157715,908.654419 580.257080,909.216309 
	C582.072998,919.488525 583.817566,929.773376 585.243713,938.106750 
	C582.730103,931.832947 577.796143,924.098999 580.221802,914.323242 
	C580.650818,912.594238 579.229126,910.406067 578.306396,908.238403 
z"/>
<path fill="#555555" opacity="1.000000" stroke="none" 
	d="
M454.195374,902.537476 
	C455.454651,902.985779 456.713959,903.434082 458.256653,904.036255 
	C458.896942,904.641663 459.253845,905.093262 459.703918,905.820923 
	C454.827637,907.131348 449.858215,908.165588 444.478851,909.121460 
	C444.240509,908.569885 444.412079,908.096619 444.627441,907.241211 
	C446.101837,906.605652 447.532471,906.352112 448.963104,906.098633 
	C450.438995,906.004517 451.914856,905.910400 454.934509,905.717773 
	C451.107605,904.467712 448.632050,903.659119 445.907715,902.584167 
	C446.036835,902.206848 446.414642,902.095825 447.703247,901.855957 
	C450.474487,901.997253 452.334930,902.267334 454.195374,902.537476 
z"/>
<path fill="#C6C6C6" opacity="1.000000" stroke="none" 
	d="
M602.436462,960.572998 
	C599.602844,957.514709 594.860962,956.370361 594.815979,951.215820 
	C600.197693,955.699402 605.316223,959.963806 610.434814,964.228149 
	C610.217529,964.568359 610.000183,964.908508 609.782898,965.248657 
	C607.434387,963.758667 605.085815,962.268738 602.436462,960.572998 
z"/>
<path fill="#555555" opacity="1.000000" stroke="none" 
	d="
M845.577759,785.005737 
	C846.063599,785.150696 846.253235,785.455994 846.693970,785.862061 
	C843.644226,789.840759 840.343323,793.718689 837.042419,797.596558 
	C836.677979,797.278259 836.313538,796.959900 835.949097,796.641541 
	C839.059875,792.816345 842.170715,788.991150 845.577759,785.005737 
z"/>
<path fill="#555555" opacity="1.000000" stroke="none" 
	d="
M582.116089,890.202820 
	C582.564636,889.925110 582.828674,889.931946 583.488525,889.955933 
	C582.843262,894.832153 581.802246,899.691345 580.459656,904.881348 
	C580.158081,905.212158 579.825073,905.356873 579.825073,905.356873 
	C579.825073,905.356873 579.479553,905.245544 579.319214,905.163330 
	C580.083069,900.216553 581.007324,895.351929 582.116089,890.202820 
z"/>
<path fill="#DEDEDE" opacity="1.000000" stroke="none" 
	d="
M940.639832,945.059509 
	C940.174744,948.893494 937.533569,950.638367 933.338989,950.995605 
	C934.681763,948.977478 936.422791,946.963867 938.524475,944.985840 
	C939.356506,945.070374 939.827881,945.119263 940.639832,945.059509 
z"/>
<path fill="#343434" opacity="1.000000" stroke="none" 
	d="
M448.499939,906.041626 
	C447.532471,906.352112 446.101837,906.605652 444.298584,906.949951 
	C437.927643,907.077087 431.929291,907.113342 425.462463,906.854492 
	C424.993958,906.559448 425.021271,906.102539 425.021271,906.102539 
	C432.693115,906.063232 440.364960,906.023987 448.499939,906.041626 
z"/>
<path fill="#C6C6C6" opacity="1.000000" stroke="none" 
	d="
M914.098450,861.326660 
	C917.648254,862.150330 921.155334,863.491882 924.861084,865.469543 
	C925.041626,866.398804 925.023438,866.691895 925.005310,866.984985 
	C921.519592,865.729248 918.033875,864.473511 914.279297,863.050415 
	C914.025635,862.536987 914.040710,862.190796 914.098450,861.326660 
z"/>
<path fill="#555555" opacity="1.000000" stroke="none" 
	d="
M515.604370,906.044312 
	C516.052063,906.145142 516.041260,906.544678 516.018066,906.743164 
	C514.903625,907.606506 513.812256,908.271362 512.627808,909.346375 
	C512.534668,909.756531 512.474670,909.764893 512.474670,909.764893 
	C511.021698,908.936218 509.568695,908.107605 508.115723,907.278931 
	C508.121918,906.833801 508.128113,906.388672 508.134308,905.943542 
	C510.475067,905.943542 512.815857,905.943542 515.604370,906.044312 
z"/>
<path fill="#292929" opacity="1.000000" stroke="none" 
	d="
M960.857666,924.871094 
	C957.135681,925.794006 955.528015,924.356201 956.277954,920.465881 
	C956.972168,920.071045 957.358215,919.919067 957.744324,919.767151 
	C957.744324,919.767151 957.962524,919.967834 958.068604,920.390381 
	C959.116150,921.541992 960.057678,922.270996 960.999207,923.000000 
	C961.000244,923.544678 961.001221,924.089355 960.857666,924.871094 
z"/>
<path fill="#555555" opacity="1.000000" stroke="none" 
	d="
M825.616943,803.221130 
	C825.910461,802.837219 826.544128,802.632263 827.682739,803.033508 
	C828.466125,803.433594 828.744507,803.227600 829.009521,803.010986 
	C828.996277,803.000427 828.965332,802.993591 828.965332,802.993591 
	C828.179993,804.142212 827.394653,805.290833 826.470459,806.642517 
	C826.275818,805.413086 826.116455,804.406616 825.616943,803.221130 
z"/>
<path fill="#EEEEEE" opacity="1.000000" stroke="none" 
	d="
M464.813141,911.365112 
	C465.139465,911.233093 465.448212,911.407715 465.892151,911.818115 
	C465.564972,915.813416 464.474548,916.312622 461.060760,913.981506 
	C462.300293,912.983215 463.547913,912.327454 464.813141,911.365112 
z"/>
<path fill="#555555" opacity="1.000000" stroke="none" 
	d="
M499.089935,907.911011 
	C496.325317,907.470459 493.916779,907.121338 490.161041,906.576965 
	C492.350433,906.174072 493.294556,906.000305 494.635956,905.728149 
	C497.099243,905.746277 499.165283,905.862793 501.658173,906.106201 
	C501.205353,906.822937 500.325684,907.412659 499.089935,907.911011 
z"/>
<path fill="#555555" opacity="1.000000" stroke="none" 
	d="
M160.694733,906.042847 
	C161.024796,906.121460 161.005905,906.546692 161.000793,906.759399 
	C159.628586,906.972168 158.261505,906.972168 156.894424,906.972168 
	C156.863220,906.746033 156.832016,906.519836 156.800812,906.293701 
	C157.988754,906.183899 159.176697,906.074097 160.694733,906.042847 
z"/>
<path fill="#161616" opacity="1.000000" stroke="none" 
	d="
M961.153442,922.637085 
	C960.057678,922.270996 959.116150,921.541992 958.177307,920.491089 
	C959.039001,920.106506 959.897949,920.043762 961.190918,919.968811 
	C961.519043,920.729126 961.413330,921.501587 961.153442,922.637085 
z"/>
<path fill="#EAEAEA" opacity="1.000000" stroke="none" 
	d="
M512.697021,910.048950 
	C512.474670,909.764893 512.534668,909.756531 512.543213,909.731445 
	C513.954407,909.843018 515.357056,909.979614 516.759705,910.116150 
	C516.703491,910.479431 516.647278,910.842773 516.591064,911.206055 
	C515.367188,910.915039 514.143311,910.624023 512.697021,910.048950 
z"/>
<path fill="#555555" opacity="1.000000" stroke="none" 
	d="
M424.645630,906.015747 
	C425.021271,906.102539 424.993958,906.559448 424.998413,906.788208 
	C424.155121,907.096741 423.307373,907.176514 422.228760,907.135986 
	C421.997925,907.015747 421.999756,906.560547 421.989014,906.333252 
	C422.742218,906.046936 423.506104,905.987976 424.645630,906.015747 
z"/>
<path fill="#747474" opacity="1.000000" stroke="none" 
	d="
M588.666016,943.398560 
	C588.004578,942.884705 587.515564,942.082886 587.026550,941.281067 
	C587.249634,941.155762 587.472717,941.030457 587.695740,940.905212 
	C588.076660,941.640320 588.457520,942.375427 588.666016,943.398560 
z"/>
<path fill="#E9E9E9" opacity="1.000000" stroke="none" 
	d="
M876.914429,614.570984 
	C877.717834,614.726501 878.216614,615.131958 878.756775,615.813599 
	C878.068726,615.666809 877.339294,615.243896 876.914429,614.570984 
z"/>
<path fill="#555555" opacity="1.000000" stroke="none" 
	d="
M828.764954,801.790527 
	C829.071655,801.989868 829.357056,802.449219 829.672974,802.471313 
	C830.078308,802.499573 830.508179,802.176147 830.819885,801.722961 
	C830.243530,801.961914 829.667114,802.200867 829.028015,802.716675 
	C828.965332,802.993591 828.996277,803.000427 829.207214,802.702942 
	C829.237854,802.240967 829.057556,802.076416 828.877319,801.911926 
	C828.877319,801.911926 828.757202,801.856262 828.764954,801.790527 
z"/>
<path fill="#111111" opacity="1.000000" stroke="none" 
	d="
M885.382568,589.351440 
	C885.246521,590.079041 884.938477,590.648315 884.365479,591.405518 
	C883.987793,591.451050 883.875122,591.308594 883.691772,590.812866 
	C884.034973,589.933472 884.448853,589.407227 884.862671,588.881042 
	C884.862732,588.881042 885.210693,589.193115 885.382568,589.351440 
z"/>
<path fill="#555555" opacity="1.000000" stroke="none" 
	d="
M834.020386,798.998047 
	C833.782288,799.089294 833.544189,799.180542 833.306091,799.271729 
	C833.529053,799.275513 833.752014,799.279297 833.982544,799.146729 
	C833.990112,799.010315 834.020386,798.998047 834.020386,798.998047 
z"/>
<path fill="#747474" opacity="1.000000" stroke="none" 
	d="
M880.959839,257.971069 
	C880.970764,257.968445 880.959595,257.852112 880.939148,257.910645 
	C880.918701,257.969208 880.948853,257.973724 880.959839,257.971069 
z"/>
<path fill="#E9E9E9" opacity="1.000000" stroke="none" 
	d="
M876.894775,613.189514 
	C877.224060,613.317261 877.266235,613.578003 877.140198,613.986938 
	C876.897766,613.856689 876.776306,613.585815 876.894775,613.189514 
z"/>
<path fill="#555555" opacity="1.000000" stroke="none" 
	d="
M833.994263,798.998108 
	C833.998474,798.985901 834.174988,798.918640 834.174988,798.918640 
	C834.174988,798.918640 833.942322,798.878418 833.981323,798.938232 
	C834.020386,798.998047 833.990112,799.010315 833.994263,798.998108 
z"/>
<path fill="#161616" opacity="1.000000" stroke="none" 
	d="
M961.850159,917.968628 
	C961.599304,917.880432 961.433838,917.556580 961.559692,917.235657 
	C961.879211,917.403381 961.907410,917.568176 961.850159,917.968628 
z"/>
<path fill="#E9E9E9" opacity="1.000000" stroke="none" 
	d="
M876.155396,614.426025 
	C876.326111,614.482483 876.291138,614.534973 876.309265,614.562500 
	C876.107483,614.561951 875.887573,614.533936 875.667664,614.505920 
	C875.773315,614.460449 875.878967,614.414978 876.155396,614.426025 
z"/>
<path fill="#C6C6C6" opacity="1.000000" stroke="none" 
	d="
M789.942932,884.986267 
	C788.284302,872.320435 787.180603,860.079407 789.170349,847.806335 
	C790.428406,865.645447 789.216309,883.724731 796.358398,900.815918 
	C795.780640,900.955933 795.202820,901.095947 794.625061,901.235962 
	C793.082886,895.962402 791.540710,890.688843 789.942932,884.986267 
z"/>
<path fill="#111111" opacity="1.000000" stroke="none" 
	d="
M782.232605,889.993286 
	C783.273682,891.234070 784.314697,892.474854 785.355713,893.715637 
	C784.769714,894.099060 784.183777,894.482422 783.597778,894.865845 
	C783.062805,893.810181 782.527893,892.754517 782.013550,891.077759 
	C782.100281,890.302185 782.166443,890.147766 782.232605,889.993286 
z"/>
<path fill="#FFFFFF" opacity="1.000000" stroke="none" 
	d="
M782.149353,889.676086 
	C782.166443,890.147766 782.100281,890.302185 782.010742,890.707703 
	C781.489319,890.487122 780.991211,890.015503 780.416504,889.275635 
	C780.527649,888.747681 780.715393,888.488037 781.228149,887.874146 
	C781.724121,888.132874 781.895142,888.745911 782.149353,889.676086 
z"/>
<path fill="#111111" opacity="1.000000" stroke="none" 
	d="
M789.152100,902.869019 
	C789.041382,903.181885 788.778992,903.345581 788.516602,903.509277 
	C788.677917,903.246155 788.839233,902.983032 789.152100,902.869019 
z"/>
<path fill="#C6C6C6" opacity="1.000000" stroke="none" 
	d="
M799.083130,906.663330 
	C799.156372,907.153748 799.112183,907.316711 798.994812,907.722290 
	C798.595886,907.501587 798.270142,907.038208 797.944397,906.574890 
	C798.284790,906.495239 798.625183,906.415649 799.083130,906.663330 
z"/>
<path fill="#111111" opacity="1.000000" stroke="none" 
	d="
M781.467529,895.447388 
	C781.523987,895.413086 781.411133,895.481628 781.467529,895.447388 
z"/>
<path fill="#111111" opacity="1.000000" stroke="none" 
	d="
M795.462646,907.447510 
	C795.521179,907.412048 795.404175,907.482910 795.462646,907.447510 
z"/>
<path fill="#111111" opacity="1.000000" stroke="none" 
	d="
M794.449097,905.533630 
	C794.416199,905.478149 794.482056,905.589111 794.449097,905.533630 
z"/>
<path fill="#C6C6C6" opacity="1.000000" stroke="none" 
	d="
M797.749146,904.750000 
	C797.466492,904.700195 797.432983,904.400330 797.399475,904.100525 
	C797.599060,904.233704 797.798706,904.366821 797.749146,904.750000 
z"/>
<path fill="#C6C6C6" opacity="1.000000" stroke="none" 
	d="
M796.750000,902.250000 
	C796.700012,902.533325 796.399963,902.566650 796.099976,902.599976 
	C796.233276,902.399963 796.366638,902.199951 796.750000,902.250000 
z"/>
<path fill="#DEDEDE" opacity="1.000000" stroke="none" 
	d="
M947.531372,943.888550 
	C946.275146,943.564392 945.290955,943.052673 944.529053,942.288147 
	C945.169373,941.670471 945.587402,941.305542 946.004517,940.973389 
	C946.003540,941.006042 945.938354,941.000610 946.284058,941.090088 
	C946.753906,940.766052 946.877991,940.352539 947.008423,939.968384 
	C947.014832,939.997681 946.956055,940.008362 946.956055,940.008362 
	C949.892944,935.470276 952.829773,930.932190 955.960938,926.093872 
	C955.721924,927.271973 955.537720,928.179688 955.318115,929.457153 
	C952.789551,934.451599 950.296509,939.076294 947.531372,943.888550 
z"/>
<path fill="#747474" opacity="1.000000" stroke="none" 
	d="
M742.333984,867.259644 
	C736.988892,867.210632 732.072327,867.210632 727.155701,867.210632 
	C733.427612,864.646118 739.670105,864.265625 745.850769,867.584656 
	C744.821350,867.492615 743.791931,867.400574 742.333984,867.259644 
z"/>
<path fill="#EEEEEE" opacity="1.000000" stroke="none" 
	d="
M806.072754,948.017822 
	C800.112488,944.033081 794.237244,940.512207 788.929932,936.279236 
	C775.842834,925.841187 761.020020,922.092407 744.589905,923.712097 
	C742.613708,923.906982 740.623657,923.961243 738.605286,923.654968 
	C752.757324,915.810669 767.538025,912.789856 782.692444,920.346863 
	C789.122070,923.553223 794.734863,928.500061 800.457825,932.988770 
	C805.023438,936.569702 808.945862,940.991638 813.609009,944.421387 
	C818.188232,947.789429 823.341614,950.376831 828.672913,953.563721 
	C820.454712,954.202637 813.309814,951.744568 806.072754,948.017822 
z"/>
<path fill="#DEDEDE" opacity="1.000000" stroke="none" 
	d="
M829.273987,949.733582 
	C829.645203,950.020325 830.016479,950.307129 830.387695,950.593872 
	C829.933899,950.612061 829.480164,950.630188 829.033447,950.305359 
	C829.040588,949.962341 829.273987,949.733582 829.273987,949.733582 
z"/>
<path fill="#DEDEDE" opacity="1.000000" stroke="none" 
	d="
M828.924927,950.077759 
	C828.490723,949.870483 828.172180,949.547729 827.853577,949.224976 
	C828.202942,949.179260 828.552246,949.133423 829.087769,949.410583 
	C829.273987,949.733582 829.040588,949.962341 828.924927,950.077759 
z"/>
<path fill="#EAEAEA" opacity="1.000000" stroke="none" 
	d="
M943.519775,940.603699 
	C960.365112,910.655884 936.068481,879.342407 908.766357,873.994507 
	C893.668457,871.037109 880.700378,874.525146 870.881592,886.981689 
	C865.892273,893.311340 864.853149,900.664124 865.709595,908.506104 
	C862.354675,902.589722 862.511597,896.464844 864.785095,890.448059 
	C870.442993,875.474731 882.030884,867.985535 897.383423,866.305298 
	C924.772644,863.307617 952.004639,887.003662 953.301514,914.421631 
	C953.736267,923.613892 950.654114,931.713074 946.602295,939.749451 
	C946.956055,940.008362 947.014832,939.997681 946.611206,939.794250 
	C946.117859,940.060730 946.028137,940.530701 945.938354,941.000610 
	C945.938354,941.000610 946.003540,941.006042 945.722534,940.702393 
	C944.974121,940.611938 944.506714,940.825195 944.039246,941.038452 
	C944.039246,941.038452 943.691528,940.750244 943.519775,940.603699 
z"/>
<path fill="#DEDEDE" opacity="1.000000" stroke="none" 
	d="
M957.725342,919.315430 
	C957.358215,919.919067 956.972168,920.071045 956.297974,920.100037 
	C957.523926,895.686462 945.824097,879.058899 925.266968,867.200562 
	C925.023438,866.691895 925.041626,866.398804 925.129333,865.669434 
	C946.881592,873.437500 959.860901,894.850647 957.725342,919.315430 
z"/>
<path fill="#C6C6C6" opacity="1.000000" stroke="none" 
	d="
M130.948944,906.723877 
	C117.956863,906.883789 105.337830,906.883789 92.718803,906.883789 
	C92.720093,906.777161 92.721382,906.670532 92.722672,906.563904 
	C105.589111,906.563904 118.455559,906.563904 130.948944,906.723877 
z"/>
<path fill="#747474" opacity="1.000000" stroke="none" 
	d="
M880.965576,192.016296 
	C880.974792,207.020294 880.984009,222.024307 880.687927,237.513138 
	C880.038879,237.956604 879.695190,237.915253 879.351440,237.873901 
	C879.336792,222.933685 879.322144,207.993500 879.624023,192.545914 
	C880.282227,192.031128 880.623901,192.023712 880.965576,192.016296 
z"/>
<path fill="#555555" opacity="1.000000" stroke="none" 
	d="
M881.009644,191.548157 
	C880.623901,192.023712 880.282227,192.031128 879.689392,192.092377 
	C879.438232,181.859024 879.438232,171.571808 879.438232,161.284592 
	C879.976746,161.284164 880.515198,161.283737 881.053711,161.283295 
	C881.053711,171.215530 881.053711,181.147766 881.009644,191.548157 
z"/>
<path fill="#555555" opacity="1.000000" stroke="none" 
	d="
M879.248108,238.334045 
	C879.695190,237.915253 880.038879,237.956604 880.641968,237.977066 
	C880.901306,241.767990 880.901306,245.579803 880.901306,249.391632 
	C880.315796,249.400818 879.730286,249.410019 879.144775,249.419220 
	C879.144775,245.877548 879.144775,242.335861 879.248108,238.334045 
z"/>
<path fill="#292929" opacity="1.000000" stroke="none" 
	d="
M880.661987,567.406006 
	C880.629944,567.840820 880.142029,567.802429 880.142029,567.802429 
	C880.142029,567.802429 879.663269,567.903931 879.419006,567.904663 
	C878.440613,563.537048 877.706421,559.168701 877.007263,554.396729 
	C877.296814,553.980835 877.551331,553.968750 878.187561,553.908691 
	C879.079712,553.993530 879.590210,554.126221 880.366150,554.215576 
	C880.625488,554.607117 880.619263,555.041931 880.382446,555.973755 
	C880.471436,557.407715 880.791138,558.344604 881.110840,559.281555 
	C880.971863,561.844727 880.832947,564.407959 880.661987,567.406006 
z"/>
<path fill="#FFFFFF" opacity="1.000000" stroke="none" 
	d="
M873.759338,562.059326 
	C873.731995,562.153320 873.445801,562.212158 873.071777,562.107666 
	C873.156128,561.971008 873.328247,561.997620 873.759338,562.059326 
z"/>
<path fill="#1D1D1D" opacity="1.000000" stroke="none" 
	d="
M893.473022,545.101379 
	C893.219055,545.045959 893.175537,544.420105 893.432373,543.554932 
	C893.716370,543.720764 893.699951,544.125854 893.473022,545.101379 
z"/>
<path fill="#E9E9E9" opacity="1.000000" stroke="none" 
	d="
M454.082886,902.218140 
	C452.334930,902.267334 450.474487,901.997253 448.282013,901.737915 
	C438.020447,897.388672 428.395020,892.559753 420.925934,884.369324 
	C415.009277,877.881348 410.433868,870.661621 408.630432,861.926941 
	C408.465698,861.129150 408.406982,860.299011 408.406036,859.483765 
	C408.405731,859.223022 408.751099,858.961792 408.918701,858.728149 
	C416.001099,867.098633 423.080841,875.466003 430.621399,884.271484 
	C435.808563,888.472046 440.474243,892.315186 445.300507,895.944885 
	C446.642273,896.953979 448.459564,897.330872 450.058716,897.997803 
	C450.058716,897.997742 449.993896,898.001465 449.679810,898.297913 
	C450.054688,899.087402 450.743591,899.580505 451.432495,900.073608 
	C452.278442,900.682068 453.124420,901.290466 454.082886,902.218140 
z"/>
<path fill="#1D1D1D" opacity="1.000000" stroke="none" 
	d="
M450.018433,897.657288 
	C448.459564,897.330872 446.642273,896.953979 445.300507,895.944885 
	C440.474243,892.315186 435.808563,888.472046 430.924927,884.407104 
	C431.738983,883.784363 432.710297,883.463989 434.040710,882.998779 
	C439.592560,887.674866 444.785339,892.495789 450.018433,897.657288 
z"/>
<path fill="#FFFFFF" opacity="1.000000" stroke="none" 
	d="
M478.131378,908.145081 
	C481.717712,908.398071 485.304016,908.651001 489.080444,909.228760 
	C485.492432,910.875061 481.714355,912.196472 477.570740,913.616577 
	C476.581207,912.500183 475.957214,911.285095 475.828796,910.260010 
	C479.938934,912.043274 477.589508,908.960815 478.131378,908.145081 
z"/>
<path fill="#EAEAEA" opacity="1.000000" stroke="none" 
	d="
M884.907227,588.531250 
	C884.448853,589.407227 884.034973,589.933472 883.426758,590.749756 
	C882.679504,591.841980 882.126526,592.644104 880.702942,594.709045 
	C881.246094,590.243286 881.632385,587.067261 882.014282,583.524292 
	C883.293396,580.741089 884.717529,578.387878 885.834656,575.896973 
	C889.633362,567.427063 894.610901,559.807800 902.610229,554.839355 
	C906.032410,552.713745 910.173950,551.746582 914.526306,551.147095 
	C901.776245,561.465027 892.898071,574.447693 884.907227,588.531250 
z"/>
<path fill="#161616" opacity="1.000000" stroke="none" 
	d="
M472.664551,903.452759 
	C469.836823,902.347290 467.222778,901.247742 464.300476,899.948242 
	C464.342010,898.831238 464.691833,897.914185 465.392212,896.837341 
	C471.233826,899.099121 476.724854,901.520691 482.585846,904.262634 
	C482.955780,904.583069 483.096283,904.996582 483.096283,904.996582 
	C481.644379,905.026062 480.192505,905.055542 478.056946,904.944580 
	C476.249390,904.557129 475.125458,904.310120 474.001526,904.063110 
	C473.627106,903.861633 473.252655,903.660095 472.664551,903.452759 
z"/>
<path fill="#E9E9E9" opacity="1.000000" stroke="none" 
	d="
M780.643188,753.567993 
	C796.308777,744.630798 816.620728,751.902832 824.830383,769.443787 
	C828.843323,778.017822 829.752319,786.981628 827.746399,796.220764 
	C827.461548,797.532715 826.810486,798.765076 825.797852,800.004272 
	C826.866211,786.907593 824.357788,774.911011 815.783447,764.862061 
	C806.873291,754.419495 795.525757,750.877747 781.553040,754.093140 
	C780.866089,753.825867 780.754639,753.696960 780.643188,753.567993 
z"/>
<path fill="#E9E9E9" opacity="1.000000" stroke="none" 
	d="
M781.147949,754.145386 
	C780.350708,754.545654 779.383057,754.755371 778.415344,754.965088 
	C778.370422,754.776978 778.325439,754.588806 778.280457,754.400635 
	C778.861145,754.197876 779.441833,753.995117 780.332886,753.680176 
	C780.754639,753.696960 780.866089,753.825867 781.147949,754.145386 
z"/>
<path fill="#FFFFFF" opacity="1.000000" stroke="none" 
	d="
M828.490417,801.725098 
	C829.057556,802.076416 829.237854,802.240967 829.220459,802.713501 
	C828.744507,803.227600 828.466125,803.433594 827.807617,803.285583 
	C827.652832,802.467102 827.878174,802.002686 828.490417,801.725098 
z"/>
<path fill="#EEEEEE" opacity="1.000000" stroke="none" 
	d="
M474.004456,904.418945 
	C475.125458,904.310120 476.249390,904.557129 477.684418,904.962097 
	C477.854462,906.093811 477.713409,907.067505 477.851868,908.093140 
	C477.589508,908.960815 479.938934,912.043274 476.155945,910.202148 
	C475.327484,908.227844 474.667419,906.501282 474.004456,904.418945 
z"/>
<path fill="#FFFFFF" opacity="1.000000" stroke="none" 
	d="
M468.042297,908.409851 
	C468.283112,908.800842 468.282135,909.189758 468.250305,909.576111 
	C468.249146,909.590088 467.944519,909.579041 467.781342,909.579590 
	C467.786011,909.188843 467.790680,908.798096 468.042297,908.409851 
z"/>
<path fill="#747474" opacity="1.000000" stroke="none" 
	d="
M878.090332,572.646362 
	C877.524292,572.048035 877.027405,571.062012 876.760132,569.825317 
	C877.379639,570.469299 877.769531,571.363953 878.090332,572.646362 
z"/>
<path fill="#747474" opacity="1.000000" stroke="none" 
	d="
M881.481323,559.545288 
	C880.791138,558.344604 880.471436,557.407715 880.325073,556.295288 
	C881.042542,556.102051 881.586792,556.084229 882.537598,556.100098 
	C882.580139,557.358887 882.216003,558.583984 881.481323,559.545288 
z"/>
<path fill="#1D1D1D" opacity="1.000000" stroke="none" 
	d="
M893.282349,545.635376 
	C892.799500,547.188904 892.073486,548.352783 891.191650,549.837402 
	C891.035767,550.158142 890.655090,550.223999 890.231689,550.023560 
	C889.647400,549.676636 889.486511,549.530151 889.325684,549.383667 
	C890.563538,548.004395 891.801392,546.625061 893.282349,545.635376 
z"/>
<path fill="#1D1D1D" opacity="1.000000" stroke="none" 
	d="
M890.040649,550.052246 
	C889.599365,550.485657 888.925659,550.689880 888.251953,550.894165 
	C888.429993,550.513000 888.608093,550.131897 889.055908,549.567200 
	C889.486511,549.530151 889.647400,549.676636 890.040649,550.052246 
z"/>
<path fill="#EEEEEE" opacity="1.000000" stroke="none" 
	d="
M483.381653,904.959778 
	C483.096283,904.996582 482.955780,904.583069 482.943726,904.364990 
	C483.428040,903.956482 483.924377,903.766052 484.420746,903.575684 
	C484.169525,904.024780 483.918274,904.473877 483.381653,904.959778 
z"/>
<path fill="#111111" opacity="1.000000" stroke="none" 
	d="
M503.646362,912.486206 
	C503.912598,912.205688 504.317139,912.152039 504.721680,912.098389 
	C504.711792,912.381714 504.701874,912.664978 504.408508,913.034668 
	C504.011566,912.985046 503.898102,912.849060 503.646362,912.486206 
z"/>
<path fill="#1D1D1D" opacity="1.000000" stroke="none" 
	d="
M451.339966,899.724792 
	C450.743591,899.580505 450.054688,899.087402 449.681122,898.265503 
	C450.413452,898.416382 450.830414,898.896179 451.339966,899.724792 
z"/>
<path fill="#161616" opacity="1.000000" stroke="none" 
	d="
M944.018066,941.253784 
	C944.506714,940.825195 944.974121,940.611938 945.723511,940.669678 
	C945.587402,941.305542 945.169373,941.670471 944.396606,941.967407 
	C944.041931,941.899414 943.996826,941.469055 944.018066,941.253784 
z"/>
<path fill="#161616" opacity="1.000000" stroke="none" 
	d="
M946.284058,941.090088 
	C946.028137,940.530701 946.117859,940.060730 946.604858,939.764954 
	C946.877991,940.352539 946.753906,940.766052 946.284058,941.090088 
z"/>
</svg>