<svg version="1.1" id="Layer_1" xmlns="http://www.w3.org/2000/svg" xmlns:xlink="http://www.w3.org/1999/xlink" x="0px" y="0px"
	 width="100%" viewBox="0 0 907 1734" enable-background="new 0 0 907 1734" xml:space="preserve">
<path fill="none" opacity="1.000000" stroke="#C8941A" stroke-linecap="round" stroke-linejoin="round" stroke-width="3.000000"
	d="
M543.500000,1418.500000 
	C535.773621,1425.323486 526.560913,1428.373169 516.515381,1430.089966 
	C487.794006,1434.998901 469.467499,1449.868652 461.500854,1479.000244 
	C457.083649,1495.152710 460.685272,1510.395264 466.448029,1525.519775 
	C472.258850,1540.770630 480.996979,1554.441528 489.059479,1568.465820 
	C498.301636,1584.541992 506.218628,1601.203491 509.343628,1619.526611 
	C512.591309,1638.569458 508.363434,1656.749268 499.980621,1673.990601 
	C497.439026,1679.218018 494.666626,1684.333374 491.999969,1689.500000 
"/>
<path fill="none" opacity="1.000000" stroke="#C8941A" stroke-linecap="round" stroke-linejoin="round" stroke-width="3.000000"
	d="
M488.500000,776.500000 
	C487.698578,796.151733 481.440033,814.227844 472.473816,831.486389 
	C468.967133,838.236206 464.969208,844.733521 461.539337,851.519897 
	C453.276276,867.869324 448.396027,885.143066 446.867676,903.488953 
	C446.030670,913.536133 447.231873,923.293213 449.086090,932.983521 
	C453.140167,954.170593 463.362335,972.813354 473.912994,991.299683 
	C475.111206,993.399109 475.173065,996.187195 473.500000,998.500000 
"/>
<path fill="none" opacity="1.000000" stroke="#C8941A" stroke-linecap="round" stroke-linejoin="round" stroke-width="3.000000"
	d="
M488.000000,105.500000 
	C485.601654,107.217491 485.361877,109.984657 484.465912,112.487801 
	C478.942780,127.918633 469.646576,141.293243 460.965363,154.978027 
	C451.882996,169.295227 446.692871,185.041626 443.565125,201.512360 
	C441.393524,212.948135 439.632507,224.473267 438.096802,236.012878 
	C437.463928,240.768463 439.667938,245.769485 437.941559,250.478577 
	C434.358002,260.253418 432.406342,270.452423 430.122070,280.527679 
	C426.245575,297.625854 423.092255,314.844116 422.383972,332.495331 
	C421.511292,354.242584 424.764221,375.211365 430.888062,396.032928 
	C440.347382,428.195312 452.180206,445.304291 467.538910,465.971069 
	C478.895325,481.252319 490.514465,496.342041 498.929657,513.534424 
	C500.186310,516.101746 502.680847,517.597046 503.563873,520.480469 
	C509.168121,538.780334 515.253723,556.983704 514.447693,576.497864 
	C514.231934,581.722656 514.221191,587.057190 512.000000,592.000000 
"/>
<path fill="none" opacity="1.000000" stroke="#C8941A" stroke-linecap="round" stroke-linejoin="round" stroke-width="3.000000"
	d="
M498.000000,540.500000 
	C499.472504,544.833313 498.187836,549.222290 497.858307,553.489075 
	C497.033539,564.167725 497.622467,574.671997 503.111908,583.933655 
	C514.501770,603.150330 510.037201,620.987244 499.449158,638.469177 
	C495.598358,644.827209 491.139404,650.815125 487.006409,657.004272 
	C480.729492,666.403809 477.541626,676.933594 476.073639,688.009766 
	C475.751160,690.443115 473.465851,693.000000 476.000000,695.500000 
"/>
<path fill="none" opacity="1.000000" stroke="#C8941A" stroke-linecap="round" stroke-linejoin="round" stroke-width="3.000000"
	d="
M558.500000,808.500000 
	C563.197388,804.350586 569.044739,801.596375 571.607666,795.042114 
	C576.522095,782.474548 579.339111,769.745728 575.360291,756.542114 
	C573.566956,750.590881 575.847778,744.870789 574.615723,738.975830 
	C570.633057,719.920044 562.593933,704.359619 543.055176,696.856384 
	C536.629395,694.388733 529.831055,693.657410 523.415527,691.222595 
	C520.758057,690.214111 517.165466,691.655701 514.000244,692.002014 
	C504.518555,693.039429 495.461456,695.230286 486.933319,699.877625 
	C481.455292,702.862976 475.353088,704.717896 469.491394,706.977661 
	C466.709656,708.050049 464.834869,707.843018 464.339935,704.020752 
	C464.066010,701.905151 462.288879,699.915771 460.978394,698.014893 
	C455.910553,690.663696 451.616669,682.742737 446.322510,675.632141 
	C438.668213,665.351746 435.429565,653.201599 429.990509,642.004639 
	C422.566223,626.720947 412.088837,614.539001 394.967743,610.125061 
	C387.327026,608.155212 379.485352,609.333069 372.013000,612.035950 
	C371.133514,612.354004 370.795013,613.909668 369.505005,613.484802 
	C362.892578,611.307129 358.290070,614.994873 354.050446,619.052673 
	C350.292297,622.649597 345.782288,624.834229 340.974579,625.883545 
	C330.854492,628.092285 324.798370,634.976807 319.543915,643.028625 
	C319.364868,643.303040 319.833344,644.000000 320.000000,644.500000 
"/>
<path fill="none" opacity="1.000000" stroke="#C8941A" stroke-linecap="round" stroke-linejoin="round" stroke-width="3.000000"
	d="
M505.000000,1062.000000 
	C508.446930,1069.653320 509.695435,1077.923218 511.421234,1086.016846 
	C514.753479,1101.644531 516.405579,1117.494263 515.975525,1133.499390 
	C515.710266,1143.373169 515.608765,1153.377808 513.343933,1162.963135 
	C509.764008,1178.114502 508.383850,1193.741577 503.077393,1208.527832 
	C499.885254,1217.422241 495.967651,1226.081055 493.171021,1235.053345 
	C487.828339,1252.193970 475.778046,1265.691284 468.940338,1281.974976 
	C462.933289,1296.280640 457.087769,1310.648438 454.586823,1326.014160 
	C451.710022,1343.688965 453.860748,1360.747437 461.879120,1377.059448 
	C464.944122,1383.294556 468.515289,1389.239868 471.500000,1395.500000 
"/>
<path fill="none" opacity="1.000000" stroke="#C8941A" stroke-linecap="round" stroke-linejoin="round" stroke-width="3.000000"
	d="
M431.000000,789.000000 
	C421.769379,803.537415 416.831573,819.603149 414.547943,836.506470 
	C412.144806,854.294312 414.592834,871.601807 420.477692,888.507751 
	C424.852722,901.076355 431.344604,912.578674 438.038025,923.977661 
	C440.468353,928.116455 443.577026,931.866943 445.872314,936.069763 
	C446.714050,937.610962 447.197021,938.630249 449.000000,938.500000 
"/>
<path fill="none" opacity="1.000000" stroke="#C8941A" stroke-linecap="round" stroke-linejoin="round" stroke-width="3.000000"
	d="
M488.500000,96.500000 
	C488.311859,103.020935 490.278351,109.207520 491.240631,115.539421 
	C492.354736,122.870102 492.174866,130.576981 491.330322,137.980652 
	C490.258728,147.374985 488.703339,156.732178 486.656097,166.034348 
	C482.715302,183.940552 475.027802,199.767197 462.976227,213.479111 
	C455.256348,222.262482 448.647766,231.804199 443.113983,242.061493 
	C442.166260,243.818192 441.691437,245.358109 439.500000,245.500000 
"/>
<path fill="none" opacity="1.000000" stroke="#C8941A" stroke-linecap="round" stroke-linejoin="round" stroke-width="3.000000"
	d="
M591.000000,600.500000 
	C587.919495,607.503784 581.295654,609.958557 574.964355,612.407837 
	C567.145325,615.432678 558.622681,615.575500 550.473938,617.382629 
	C538.847900,619.960938 528.826782,625.406067 519.495972,632.494690 
	C502.981354,645.040710 492.174011,661.792175 483.995453,680.497986 
	C482.589417,683.713867 480.262634,686.645447 481.000000,690.500000 
"/>
<path fill="none" opacity="1.000000" stroke="#C8941A" stroke-linecap="round" stroke-linejoin="round" stroke-width="3.000000"
	d="
M503.000000,523.000000 
	C500.454895,524.721985 500.911957,527.446899 500.424133,529.985413 
	C498.708099,538.915405 493.227753,545.940430 487.962402,552.971863 
	C481.432800,561.691650 472.628387,567.788391 463.517700,573.528137 
	C451.967865,580.804626 444.419769,591.308167 441.716766,604.544250 
	C440.252899,611.712280 441.289978,619.351379 443.551483,626.483704 
	C446.163269,634.720581 449.278656,642.797119 451.936096,651.020630 
	C452.804382,653.707520 453.494293,656.569275 453.000000,659.500000 
"/>
<path fill="none" opacity="1.000000" stroke="#C8941A" stroke-linecap="round" stroke-linejoin="round" stroke-width="3.000000"
	d="
M489.000000,114.500000 
	C486.443085,124.318863 484.941223,134.400009 481.513550,144.004837 
	C476.350555,158.472290 469.769440,172.306030 461.914398,185.448837 
	C452.260529,201.601425 445.484131,218.810379 441.056427,237.013733 
	C440.851227,237.857391 440.600159,238.466751 440.000000,239.000000 
"/>
<path fill="none" opacity="1.000000" stroke="#C8941A" stroke-linecap="round" stroke-linejoin="round" stroke-width="3.000000"
	d="
M538.500000,1011.500000 
	C536.572205,1011.219971 536.080383,1013.164246 535.610901,1014.058228 
	C528.085754,1028.388062 515.326843,1037.230469 502.490997,1045.986816 
	C490.739197,1054.003784 479.436707,1062.418213 471.945587,1074.967529 
	C469.455475,1079.139038 468.150330,1083.821655 464.748138,1087.716797 
	C462.300262,1090.519287 463.882599,1095.550903 462.571503,1099.523560 
	C456.388519,1118.258545 460.804077,1136.326782 467.099670,1153.964478 
	C474.595551,1174.964722 486.296509,1193.791016 499.022552,1211.984253 
	C499.343445,1212.442871 500.000000,1212.666626 500.500000,1213.000000 
"/>
<path fill="none" opacity="1.000000" stroke="#C8941A" stroke-linecap="round" stroke-linejoin="round" stroke-width="3.000000"
	d="
M374.500000,887.000000 
	C375.950317,886.599365 376.900177,887.516724 377.466583,888.518860 
	C385.013519,901.871643 397.627808,909.820251 409.529236,918.459717 
	C423.008942,928.245117 433.131256,941.009460 442.492981,954.504883 
	C449.528442,964.646973 456.390137,974.912170 463.588104,984.936768 
	C465.120026,987.070312 465.357727,988.801514 464.500000,991.000000 
"/>
<path fill="none" opacity="1.000000" stroke="#C8941A" stroke-linecap="round" stroke-linejoin="round" stroke-width="3.000000"
	d="
M466.500000,708.000000 
	C469.772247,713.394409 474.873688,716.990601 479.550629,720.940002 
	C483.641205,724.394165 488.181244,727.313660 492.496704,730.504456 
	C499.536102,735.709229 503.514160,743.037842 506.486084,751.005188 
	C511.337524,764.011292 520.917480,770.285278 534.492310,771.580811 
	C542.473083,772.342468 550.437500,773.415894 557.543640,777.931335 
	C563.562561,781.755798 567.610535,789.964600 564.481079,797.992615 
	C563.718323,799.949280 563.338989,801.917603 563.500000,804.000000 
"/>
<path fill="none" opacity="1.000000" stroke="#C8941A" stroke-linecap="round" stroke-linejoin="round" stroke-width="3.000000"
	d="
M370.500000,865.500000 
	C370.459961,870.757874 370.433746,875.972351 372.460571,881.015869 
	C374.870300,887.011963 372.303345,893.298950 373.363831,899.523193 
	C376.086792,915.505432 378.613586,931.315063 388.397827,945.072632 
	C396.935547,957.077332 407.632080,965.856384 420.937012,972.133545 
	C432.938751,977.795898 445.834991,981.572266 456.984802,989.022705 
	C458.318298,989.913757 459.679352,989.231812 461.000000,989.500000 
"/>
<path fill="none" opacity="1.000000" stroke="#C8941A" stroke-linecap="round" stroke-linejoin="round" stroke-width="3.000000"
	d="
M395.500000,685.000000 
	C391.191620,682.775391 386.455750,683.931641 381.989929,683.674988 
	C366.469635,682.783142 356.340485,675.851196 351.427063,661.525024 
	C347.275330,649.419678 339.067078,642.198914 327.517303,643.638794 
	C323.757599,644.107605 318.552643,642.743896 317.000000,648.500000 
"/>
<path fill="none" opacity="1.000000" stroke="#C8941A" stroke-linecap="round" stroke-linejoin="round" stroke-width="3.000000"
	d="
M476.500000,1082.000000 
	C491.297607,1098.474976 501.241241,1117.480225 506.546234,1138.988647 
	C508.457825,1146.739014 508.884003,1154.659668 509.957275,1162.505859 
	C510.110565,1163.626465 510.249969,1164.638916 511.000000,1165.500000 
"/>
<path fill="none" opacity="1.000000" stroke="#C8941A" stroke-linecap="round" stroke-linejoin="round" stroke-width="3.000000"
	d="
M454.000000,708.500000 
	C446.456757,710.347046 439.404175,718.062927 439.558594,728.999146 
	C439.661072,736.256409 439.290161,743.254333 435.013031,749.508911 
	C429.184845,758.031677 420.218384,761.394043 411.013733,764.540222 
	C404.174103,766.878052 396.857513,766.614685 390.024780,768.585938 
	C378.718536,771.847656 371.435883,779.964905 365.994812,789.997192 
	C363.787811,794.066467 360.773895,797.677307 359.850037,802.471130 
	C359.588806,803.826843 360.162872,804.833313 360.000000,806.000000 
"/>
<path fill="none" opacity="1.000000" stroke="#C8941A" stroke-linecap="round" stroke-linejoin="round" stroke-width="3.000000"
	d="
M410.500000,1023.500000 
	C402.656281,1019.501892 394.559967,1020.042664 385.976501,1020.686707 
	C376.148010,1021.424255 369.372284,1027.326050 361.534821,1031.564331 
	C360.589111,1032.075806 358.925323,1032.702393 359.508789,1034.497192 
	C360.049988,1036.161743 361.849274,1036.919922 362.994934,1036.873901 
	C368.161682,1036.666138 373.016907,1038.198120 378.005066,1038.967163 
	C379.540863,1039.203979 381.049072,1038.958252 382.528137,1039.958374 
	C388.752960,1044.167969 396.286835,1042.050903 403.000000,1044.000000 
"/>
<path fill="none" opacity="1.000000" stroke="#C8941A" stroke-linecap="round" stroke-linejoin="round" stroke-width="3.000000"
	d="
M590.000000,604.500000 
	C592.293396,609.465942 588.992798,613.857605 588.307190,618.471375 
	C587.765991,622.113831 585.882874,625.733826 583.918457,628.950195 
	C580.099854,635.202637 580.552979,642.251221 579.549133,649.007324 
	C577.292847,664.193970 561.931458,684.085999 545.492188,686.955078 
	C540.041809,687.906372 534.506409,688.395325 528.996399,688.965210 
	C527.147278,689.156555 525.263550,688.955017 525.000000,691.500000 
"/>
<path fill="none" opacity="1.000000" stroke="#C8941A" stroke-linecap="round" stroke-linejoin="round" stroke-width="3.000000"
	d="
M471.500000,362.500000 
	C474.766815,360.594208 476.459442,357.454010 476.914825,353.988800 
	C477.933746,346.235016 478.425903,338.441528 475.025970,330.988159 
	C474.080963,328.916565 472.835632,326.975250 470.506409,327.110291 
	C468.173431,327.245544 467.289276,329.385559 466.451721,331.480713 
	C463.482758,338.907501 464.174652,346.412781 465.473022,354.004608 
	C466.103424,357.690613 467.245789,360.909576 471.000000,362.500000 
"/>
<path fill="none" opacity="1.000000" stroke="#C8941A" stroke-linecap="round" stroke-linejoin="round" stroke-width="2.000000"
	d="
M482.500000,622.500000 
	C478.177307,634.395630 473.808899,646.252075 472.435577,658.993042 
	C471.697235,665.842651 471.154266,672.615967 471.914673,679.509399 
	C472.269257,682.723694 472.491608,686.101624 471.010956,689.255127 
	C468.827667,693.905334 470.013916,696.878601 475.000000,699.500000 
"/>
<path fill="none" opacity="1.000000" stroke="#C8941A" stroke-linecap="round" stroke-linejoin="round" stroke-width="3.000000"
	d="
M491.000000,1417.500000 
	C499.083069,1407.699951 502.260132,1393.751953 494.351105,1384.832031 
	C490.124054,1385.918579 489.788208,1389.761963 489.077209,1393.016846 
	C488.129303,1397.356445 488.776337,1401.606567 489.831909,1406.040039 
	C491.951508,1414.942505 489.212189,1423.119995 484.000000,1430.500000 
"/>
<path fill="none" opacity="1.000000" stroke="#C8941A" stroke-linecap="round" stroke-linejoin="round" stroke-width="3.000000"
	d="
M395.500000,686.000000 
	C394.502899,686.963440 393.448029,687.604309 392.027588,688.082031 
	C375.126190,693.765198 362.335541,704.212830 355.579315,721.031860 
	C353.015076,727.415222 352.456635,734.162598 354.383728,741.032593 
	C354.836151,742.645508 354.156281,744.803223 353.448120,746.478088 
	C348.496338,758.189148 349.324310,769.584412 355.583069,780.452148 
	C358.352509,785.261108 360.190277,790.345337 362.000000,795.500000 
"/>
<path fill="none" opacity="1.000000" stroke="#C8941A" stroke-linecap="round" stroke-linejoin="round" stroke-width="3.000000"
	d="
M469.000000,691.500000 
	C459.472961,682.947998 454.208069,671.571289 448.513123,660.493286 
	C443.789154,651.304077 439.780518,641.805481 436.463806,632.012268 
	C436.010223,630.672974 435.459747,629.219238 434.000000,628.500000 
"/>
<path fill="none" opacity="1.000000" stroke="#C8941A" stroke-linecap="round" stroke-linejoin="round" stroke-width="3.000000"
	d="
M520.500000,876.500000 
	C515.969604,877.588013 513.898987,874.087952 511.535217,871.468201 
	C505.632233,864.926270 493.590942,865.815002 487.552551,871.555298 
	C479.911835,878.818909 475.298920,887.735840 475.054108,898.501221 
	C475.008789,900.492615 475.490479,902.551086 476.051056,904.485168 
	C476.579865,906.309753 478.209106,907.464539 479.994324,907.380005 
	C481.141327,907.325684 482.289917,906.820496 483.165436,905.083374 
	C486.278687,898.906799 491.690491,895.496887 498.475800,893.897339 
	C501.350708,893.219604 504.301544,891.966431 507.069275,891.278931 
	C513.760315,889.616943 517.105774,885.530701 519.000000,879.500000 
"/>
<path fill="none" opacity="1.000000" stroke="#C8941A" stroke-linecap="round" stroke-linejoin="round" stroke-width="3.000000"
	d="
M527.500000,852.000000 
	C524.105347,838.990112 515.085815,831.509094 503.007263,826.980652 
	C500.186005,825.922852 498.844757,825.701599 497.994385,826.493958 
	C495.599030,828.726196 497.289246,830.907104 498.578308,832.433899 
	C502.551117,837.139282 502.645355,843.004211 503.982513,848.504272 
	C504.258087,849.637695 503.750031,850.638916 503.000000,851.500000 
"/>
<path fill="none" opacity="1.000000" stroke="#C8941A" stroke-linecap="round" stroke-linejoin="round" stroke-width="3.000000"
	d="
M375.000000,891.500000 
	C380.124115,904.667175 386.690491,917.123657 395.099792,928.425720 
	C402.783264,938.752075 411.416107,948.194824 421.309174,956.721436 
	C432.712921,966.549927 445.539673,974.359924 456.961121,984.045837 
	C460.996887,987.468384 464.083893,991.872742 468.460388,995.054504 
	C481.693176,1004.674927 487.564301,1019.299377 494.000000,1033.500000 
"/>
<path fill="none" opacity="1.000000" stroke="#C8941A" stroke-linecap="round" stroke-linejoin="round" stroke-width="3.000000"
	d="
M503.500000,893.500000 
	C504.514008,903.047302 503.659058,912.480896 502.644043,922.015320 
	C500.693756,940.334961 490.511597,955.279602 483.337921,971.427979 
	C480.588135,977.617920 478.172455,983.989136 475.000000,990.000000 
"/>
<path fill="none" opacity="1.000000" stroke="#C8941A" stroke-linecap="round" stroke-linejoin="round" stroke-width="3.000000"
	d="
M468.500000,627.500000 
	C467.170807,637.291321 465.852478,647.052917 465.906555,657.000488 
	C465.963013,667.387268 467.446411,677.493347 470.000000,687.500000 
"/>
<path fill="none" opacity="1.000000" stroke="#C8941A" stroke-linecap="round" stroke-linejoin="round" stroke-width="3.000000"
	d="
M528.500000,1323.500000 
	C526.519775,1328.331909 529.289612,1332.824341 529.620605,1337.491455 
	C530.275085,1346.719482 535.331970,1353.851074 541.402161,1360.588135 
	C545.978760,1365.667725 548.956055,1371.850952 548.970093,1379.000000 
	C548.972656,1380.320801 549.457947,1381.392944 550.000000,1382.500000 
"/>
<path fill="none" opacity="1.000000" stroke="#C8941A" stroke-linecap="round" stroke-linejoin="round" stroke-width="3.000000"
	d="
M520.500000,1302.500000 
	C521.159241,1309.708008 524.018433,1316.502686 528.334595,1321.723389 
	C531.352356,1325.373535 536.223511,1328.006592 540.061951,1331.430542 
	C549.425476,1339.783569 555.040405,1349.765381 555.543213,1362.498291 
	C555.799561,1368.990601 554.875671,1375.156616 552.000000,1381.000000 
"/>
<path fill="none" opacity="1.000000" stroke="#C8941A" stroke-linecap="round" stroke-linejoin="round" stroke-width="3.000000"
	d="
M418.500000,1010.500000 
	C416.676514,1020.406433 416.792908,1030.247192 419.445312,1039.997192 
	C421.270966,1040.091797 422.070801,1039.197144 422.530273,1037.508179 
	C426.541473,1022.763184 431.557953,1008.183105 429.873596,992.500000 
	C429.166656,992.500000 428.703430,992.355164 428.518738,992.520874 
	C420.951172,999.308899 411.848572,1004.657654 407.534302,1014.515015 
	C406.631317,1016.578247 406.166626,1018.833313 405.499969,1021.000000 
"/>
<path fill="none" opacity="1.000000" stroke="#C8941A" stroke-linecap="round" stroke-linejoin="round" stroke-width="3.000000"
	d="
M554.500000,871.500000 
	C559.765625,867.571655 564.501831,863.132690 567.898010,857.066040 
	C566.908264,853.032715 563.494690,851.768616 559.498047,851.533630 
	C556.903320,851.381104 554.477173,850.865173 551.974365,850.082031 
	C543.957520,847.573547 536.758972,851.237061 532.352356,859.420471 
	C532.187744,859.726135 530.783875,860.417542 530.000000,861.000000 
"/>
<path fill="none" opacity="1.000000" stroke="#C8941A" stroke-linecap="round" stroke-linejoin="round" stroke-width="3.000000"
	d="
M454.500000,705.000000 
	C452.780060,699.997009 447.776825,699.281860 443.988586,697.019104 
	C433.767242,690.913757 423.039124,685.998596 410.993225,685.089722 
	C406.201691,684.728210 401.307678,684.589661 396.500000,685.500000 
"/>
<path fill="none" opacity="1.000000" stroke="#C8941A" stroke-linecap="round" stroke-linejoin="round" stroke-width="3.000000"
	d="
M542.500000,995.500000 
	C541.197388,1001.281433 539.396606,1006.782166 539.084473,1012.979065 
	C538.709106,1020.433105 535.123230,1027.710693 531.473450,1034.485718 
	C523.699646,1048.916138 511.169373,1058.028442 497.046051,1065.586060 
	C485.921387,1071.539062 475.456635,1078.504272 468.913147,1089.950317 
	C468.041809,1091.474609 467.048370,1093.681274 464.500000,1093.500000 
"/>
<path fill="none" opacity="1.000000" stroke="#C8941A" stroke-linecap="round" stroke-linejoin="round" stroke-width="3.000000"
	d="
M420.000000,1043.500000 
	C426.370148,1047.823608 428.259399,1052.823730 424.918243,1058.955444 
	C420.365387,1067.310791 422.064850,1074.937622 426.518768,1082.488892 
	C428.276550,1085.469238 431.422211,1088.654907 428.358185,1091.864624 
	C425.398712,1094.964844 421.699677,1092.263672 418.516205,1090.960449 
	C415.722870,1089.816772 412.676147,1089.067383 410.087952,1087.817871 
	C400.186798,1083.037842 391.171326,1062.417725 404.969940,1050.963745 
	C407.002502,1049.276611 409.232910,1047.520264 409.500000,1044.500000 
"/>
<path fill="none" opacity="1.000000" stroke="#C8941A" stroke-linecap="round" stroke-linejoin="round" stroke-width="2.000000"
	d="
M525.500000,646.500000 
	C509.339569,655.713135 496.201813,668.155640 486.625214,684.075317 
	C483.928802,688.557678 480.093292,691.994507 477.230133,696.321411 
	C475.232971,699.339600 475.167114,701.277832 476.500000,704.000000 
"/>
<path fill="none" opacity="1.000000" stroke="#C8941A" stroke-linecap="round" stroke-linejoin="round" stroke-width="2.000000"
	d="
M447.500000,700.000000 
	C443.065094,701.735413 439.167694,698.989075 435.002563,698.479126 
	C421.909973,696.875793 409.365295,698.533142 397.500000,704.500000 
"/>
<path fill="none" opacity="1.000000" stroke="#C8941A" stroke-linecap="round" stroke-linejoin="round" stroke-width="2.000000"
	d="
M531.000000,1324.500000 
	C532.444031,1331.268433 536.851624,1336.445190 540.532227,1341.978516 
	C546.208862,1350.512695 549.001038,1360.020142 550.442871,1370.008301 
	C550.600403,1371.099609 551.074158,1372.463013 550.000000,1373.500000 
"/>
<path fill="none" opacity="1.000000" stroke="#C8941A" stroke-linecap="round" stroke-linejoin="round" stroke-width="3.000000"
	d="
M486.500000,727.000000 
	C485.059509,729.586731 486.874664,731.721558 487.515747,733.995544 
	C491.032593,746.470215 491.773285,759.159424 490.449860,771.994812 
	C490.325562,773.200195 489.499969,774.333313 488.999969,775.500000 
"/>
<path fill="none" opacity="1.000000" stroke="#C8941A" stroke-linecap="round" stroke-linejoin="round" stroke-width="3.000000"
	d="
M427.500000,557.000000 
	C423.301758,562.850891 419.467346,568.224670 422.230011,576.589172 
	C425.063324,585.167725 424.790802,594.599121 426.920593,603.518982 
	C428.805939,611.415222 432.337433,619.172302 432.838776,627.026245 
	C433.418823,636.113281 436.812286,644.068176 439.063538,652.482971 
	C440.381561,657.409607 442.043701,662.298828 444.155914,666.928833 
	C444.902466,668.565247 444.737061,669.984375 445.000000,671.500000 
"/>
<path fill="none" opacity="1.000000" stroke="#C8941A" stroke-linecap="round" stroke-linejoin="round" stroke-width="2.000000"
	d="
M458.500000,639.500000 
	C457.986938,654.135498 461.735199,668.068054 465.486511,682.003601 
	C465.923370,683.626404 467.220306,685.194641 466.000000,687.000000 
"/>
<path fill="none" opacity="1.000000" stroke="#C8941A" stroke-linecap="round" stroke-linejoin="round" stroke-width="2.000000"
	d="
M449.000000,699.000000 
	C449.118774,697.434631 449.016815,696.030518 447.511536,694.983398 
	C434.021118,685.599976 420.418884,676.432129 404.500000,671.500000 
"/>
<path fill="none" opacity="1.000000" stroke="#C8941A" stroke-linecap="round" stroke-linejoin="round" stroke-width="3.000000"
	d="
M524.500000,880.500000 
	C529.075745,882.712219 534.705566,881.649475 538.611328,886.408630 
	C546.945312,896.564087 548.487061,910.282471 542.495667,921.497681 
	C540.001099,926.167236 538.120239,931.163086 535.007141,935.505127 
	C533.801208,937.187073 532.671326,938.692078 530.547302,939.609558 
	C527.687622,940.844727 525.761108,940.815430 523.954956,938.029175 
	C522.338318,935.535217 521.029480,932.715454 521.130493,930.004883 
	C521.603516,917.313354 518.207520,905.543457 513.523987,893.990295 
	C513.012695,892.729065 512.833313,891.333313 512.500000,890.000000 
"/>
<path fill="none" opacity="1.000000" stroke="#C8941A" stroke-linecap="round" stroke-linejoin="round" stroke-width="2.000000"
	d="
M449.500000,705.000000 
	C440.489197,702.445068 432.154419,705.734924 424.057281,708.658691 
	C415.964325,711.580811 408.821381,716.535217 402.500000,722.500000 
"/>
<path fill="none" opacity="1.000000" stroke="#C8941A" stroke-linecap="round" stroke-linejoin="round" stroke-width="3.000000"
	d="
M472.000000,1001.500000 
	C468.303741,1008.547668 467.478394,1016.353699 465.968506,1023.993774 
	C464.656219,1030.633789 465.070801,1037.320312 465.001190,1044.000000 
	C464.988068,1045.260376 465.207886,1046.583252 464.000000,1047.500000 
"/>
<path fill="none" opacity="1.000000" stroke="#C8941A" stroke-linecap="round" stroke-linejoin="round" stroke-width="3.000000"
	d="
M398.500000,768.000000 
	C397.709503,769.209534 396.922638,770.320801 395.516479,771.032593 
	C384.094604,776.815002 375.413605,785.518982 369.029327,796.517029 
	C365.558655,802.495911 360.212250,806.699768 355.417023,811.415649 
	C354.723877,812.097229 354.381683,812.744629 354.000000,813.500000 
"/>
<path fill="none" opacity="1.000000" stroke="#C8941A" stroke-linecap="round" stroke-linejoin="round" stroke-width="2.000000"
	d="
M488.500000,700.000000 
	C489.361115,700.750000 490.340485,701.176208 491.499512,700.996826 
	C505.910706,698.766418 519.092896,702.307922 531.500000,709.500000 
"/>
<path fill="none" opacity="1.000000" stroke="#C8941A" stroke-linecap="round" stroke-linejoin="round" stroke-width="3.000000"
	d="
M430.500000,401.000000 
	C425.897003,396.777100 423.430878,390.866882 419.008575,386.491333 
	C413.272125,380.815674 407.673340,375.056427 399.013184,373.901215 
	C397.089966,373.644684 395.333344,373.399750 393.500000,374.000000 
"/>
<path fill="none" opacity="1.000000" stroke="#C8941A" stroke-linecap="round" stroke-linejoin="round" stroke-width="3.000000"
	d="
M547.000000,1408.000000 
	C541.636963,1413.437988 534.982117,1415.384155 527.509399,1416.098511 
	C514.355652,1417.356201 500.913940,1417.883545 489.474365,1425.963745 
	C488.839783,1426.411865 487.833344,1426.333374 487.000031,1426.500122 
"/>
<path fill="none" opacity="1.000000" stroke="#C8941A" stroke-linecap="round" stroke-linejoin="round" stroke-width="2.000000"
	d="
M517.500000,720.500000 
	C506.239777,711.980774 493.570618,707.153992 479.500000,706.000000 
"/>
<path fill="none" opacity="1.000000" stroke="#C8941A" stroke-linecap="round" stroke-linejoin="round" stroke-width="3.000000"
	d="
M388.500000,1043.000000 
	C385.833344,1044.500000 383.168304,1046.002930 380.499756,1047.499634 
	C368.301514,1054.340820 364.291687,1063.284180 367.500000,1076.500000 
	C368.309235,1079.833374 370.125854,1080.617676 373.496826,1078.993408 
	C382.129944,1074.833618 390.790833,1070.705933 396.037262,1062.022461 
	C396.244812,1061.679077 397.000000,1061.666626 397.500000,1061.500000 
"/>
<path fill="none" opacity="1.000000" stroke="#C8941A" stroke-linecap="round" stroke-linejoin="round" stroke-width="4.000000"
	d="
M490.500000,1469.500000 
	C490.500000,1487.833374 490.500000,1506.166626 490.500000,1524.500000 
"/>
<path fill="none" opacity="1.000000" stroke="#C8941A" stroke-linecap="round" stroke-linejoin="round" stroke-width="3.000000"
	d="
M422.000000,1044.000000 
	C427.958221,1039.562256 434.096527,1035.715820 442.001801,1035.935669 
	C445.210907,1036.024902 448.060333,1033.733276 449.324799,1031.404907 
	C452.898376,1024.824463 458.246307,1020.001953 463.838440,1015.294617 
	C457.432190,1009.717529 440.257965,1011.232910 429.500000,1018.000000 
"/>
<path fill="none" opacity="1.000000" stroke="#C8941A" stroke-linecap="round" stroke-linejoin="round" stroke-width="3.000000"
	d="
M507.500000,868.000000 
	C506.299469,862.964600 506.495026,857.466187 503.428864,853.049377 
	C501.216675,849.862671 497.483368,848.381592 493.979309,847.054626 
	C483.363251,843.034546 476.389404,845.035339 468.500000,854.000000 
"/>
<path fill="none" opacity="1.000000" stroke="#C8941A" stroke-linecap="round" stroke-linejoin="round" stroke-width="3.000000"
	d="
M535.500000,874.000000 
	C541.000122,868.234314 547.972778,869.271667 553.899048,871.742126 
	C562.148315,875.180969 569.619202,880.405945 572.946716,889.519470 
	C573.259094,890.375122 574.392822,890.820984 574.017273,892.005493 
	C573.389465,893.985413 576.310364,895.863037 574.035217,898.036865 
	C571.547058,900.414246 568.634399,899.021423 567.119324,897.846191 
	C560.033691,892.349243 551.680786,894.927917 544.000000,893.500000 
"/>
<path fill="none" opacity="1.000000" stroke="#C8941A" stroke-linecap="round" stroke-linejoin="round" stroke-width="3.000000"
	d="
M551.000000,1382.250000 
	C548.532593,1383.221924 549.267822,1385.766479 548.587524,1387.533691 
	C545.015015,1396.814453 539.148254,1404.265381 531.554565,1410.565796 
	C529.876282,1411.958374 527.409363,1412.851807 527.000000,1415.500000 
"/>
<path fill="none" opacity="1.000000" stroke="#C8941A" stroke-linecap="round" stroke-linejoin="round" stroke-width="2.000000"
	d="
M449.500000,706.000000 
	C447.931580,708.388794 445.148712,707.650146 442.973999,708.427246 
	C432.964508,712.003723 425.049530,718.298889 418.500000,726.500000 
"/>
<path fill="none" opacity="1.000000" stroke="#C8941A" stroke-linecap="round" stroke-linejoin="round" stroke-width="3.000000"
	d="
M516.500000,487.500000 
	C507.835632,494.004303 504.951721,503.305115 504.046356,513.504089 
	C503.905487,515.091187 503.781586,516.599609 503.000000,518.000000 
"/>
<path fill="none" opacity="1.000000" stroke="#C8941A" stroke-linecap="round" stroke-linejoin="round" stroke-width="2.000000"
	d="
M486.500000,567.500000 
	C483.458923,576.875916 479.528992,585.945740 476.898468,595.471985 
	C476.605469,596.533081 476.745056,597.513062 476.500000,598.500000 
"/>
<path fill="none" opacity="1.000000" stroke="#C8941A" stroke-linecap="round" stroke-linejoin="round" stroke-width="3.000000"
	d="
M514.000000,898.500000 
	C511.333344,906.500000 508.666473,914.499939 506.000122,922.500061 
	C505.329193,924.513000 504.876434,926.644714 503.000000,928.000000 
"/>
<path fill="none" opacity="1.000000" stroke="#C8941A" stroke-linecap="round" stroke-linejoin="round" stroke-width="3.000000"
	d="
M513.500000,844.500000 
	C513.061829,847.029785 515.169617,848.512268 516.063171,850.471191 
	C518.906616,856.704224 520.292297,863.175110 519.973328,869.998779 
	C519.903687,871.486938 520.283447,872.762451 521.000000,874.000000 
"/>
<path fill="none" opacity="1.000000" stroke="#C8941A" stroke-linecap="round" stroke-linejoin="round" stroke-width="3.000000"
	d="
M538.500000,1007.000000 
	C537.337219,1006.844971 536.249939,1007.155151 535.516968,1008.014526 
	C527.323853,1017.620422 515.938171,1022.234131 504.987396,1027.473633 
	C489.826599,1034.727539 479.517090,1046.512939 472.488312,1061.494507 
	C471.304810,1064.016968 470.519806,1066.822266 468.000000,1068.500000 
"/>
<path fill="none" opacity="1.000000" stroke="#C8941A" stroke-linecap="round" stroke-linejoin="round" stroke-width="3.000000"
	d="
M427.000000,1055.500000 
	C433.599121,1060.860352 441.206818,1064.262939 449.519012,1065.355225 
	C455.795013,1066.180176 459.449310,1070.927490 464.481812,1073.535156 
	C465.147369,1073.880005 465.549347,1074.734619 466.500000,1074.500000 
"/>
<path fill="none" opacity="1.000000" stroke="#C8941A" stroke-linecap="round" stroke-linejoin="round" stroke-width="2.000000"
	d="
M410.500000,650.500000 
	C421.005646,657.904175 429.976685,666.960999 438.500000,676.500000 
"/>
<path fill="none" opacity="1.000000" stroke="#C8941A" stroke-linecap="round" stroke-linejoin="round" stroke-width="3.000000"
	d="
M536.000000,1199.000000 
	C533.062927,1203.488037 532.974426,1209.127075 529.591370,1213.569580 
	C524.132751,1220.737305 517.058472,1224.940308 508.495178,1226.979736 
	C506.666901,1227.415161 505.693695,1228.825928 504.507141,1230.007202 
	C501.397797,1233.102539 498.436432,1236.322266 495.983765,1239.989136 
	C494.758820,1241.820312 493.592957,1243.824463 491.000000,1244.000000 
"/>
<path fill="none" opacity="1.000000" stroke="#C8941A" stroke-linecap="round" stroke-linejoin="round" stroke-width="2.000000"
	d="
M579.500000,639.000000 
	C573.808777,642.171509 570.555542,648.139343 565.021606,651.535217 
	C560.677368,654.201050 556.497559,657.126282 551.500000,658.500000 
"/>
<path fill="none" opacity="1.000000" stroke="#C8941A" stroke-linecap="round" stroke-linejoin="round" stroke-width="2.000000"
	d="
M477.000000,707.000000 
	C480.109344,710.447571 484.857086,710.933777 488.555969,713.416626 
	C493.329590,716.620911 498.073700,719.830139 502.500000,723.500000 
"/>
<path fill="none" opacity="1.000000" stroke="#C8941A" stroke-linecap="round" stroke-linejoin="round" stroke-width="3.000000"
	d="
M532.500000,1204.500000 
	C524.445923,1208.842285 516.322205,1213.074585 510.471069,1220.477173 
	C509.681091,1221.476440 508.500031,1222.166748 507.500031,1223.000000 
"/>
<path fill="none" opacity="1.000000" stroke="#C8941A" stroke-linecap="round" stroke-linejoin="round" stroke-width="2.000000"
	d="
M503.500000,682.500000 
	C497.166687,687.166687 490.909943,691.943542 484.453491,696.433105 
	C482.509094,697.785278 481.195892,699.050903 481.500000,701.500000 
"/>
<path fill="none" opacity="1.000000" stroke="#C8941A" stroke-linecap="round" stroke-linejoin="round" stroke-width="3.000000"
	d="
M474.500000,854.500000 
	C470.866638,854.809387 466.541168,853.141418 464.410858,858.201355 
	C465.614807,859.577820 466.491211,861.235840 469.003754,861.050781 
	C474.615662,860.637268 479.427887,862.541443 483.541779,866.456116 
	C484.922485,867.769958 487.194489,867.898071 488.500000,869.500000 
"/>
<path fill="none" opacity="1.000000" stroke="#C8941A" stroke-linecap="round" stroke-linejoin="round" stroke-width="3.000000"
	d="
M411.000000,537.500000 
	C415.425690,544.374573 416.902832,552.297485 419.000000,560.000000 
"/>
<path fill="none" opacity="1.000000" stroke="#C8941A" stroke-linecap="round" stroke-linejoin="round" stroke-width="3.000000"
	d="
M521.500000,875.500000 
	C522.000000,875.666687 522.508911,876.000732 522.998657,875.974609 
	C529.514832,875.627380 536.042419,874.678345 542.500000,876.500000 
"/>
<path fill="none" opacity="1.000000" stroke="#C8941A" stroke-linecap="round" stroke-linejoin="round" stroke-width="5.000000"
	d="
M410.000000,1030.000000 
	C412.089447,1031.954346 413.407776,1034.388062 414.535553,1036.984619 
	C415.049316,1038.167480 415.316864,1039.614380 416.990906,1040.036133 
	C418.425140,1040.397339 420.447296,1040.640015 419.470795,1042.987915 
	C418.574158,1045.143799 416.827850,1046.541138 414.534180,1045.429443 
	C411.633026,1044.023560 408.276581,1044.001099 406.285004,1040.109985 
	C403.225830,1034.133179 397.852570,1033.459595 389.500000,1036.500000 
"/>
<path fill="none" opacity="1.000000" stroke="#C8941A" stroke-linecap="round" stroke-linejoin="round" stroke-width="3.000000"
	d="
M444.500000,1036.000000 
	C456.339508,1040.937378 466.558533,1047.731567 472.000000,1060.000000 
"/>
<path fill="none" opacity="1.000000" stroke="#C8941A" stroke-linecap="round" stroke-linejoin="round" stroke-width="3.000000"
	d="
M423.000000,544.500000 
	C428.436951,541.860229 428.566101,539.148499 423.414917,533.913513 
	C420.433624,535.535828 419.996033,538.296753 421.074677,540.969849 
	C423.699615,547.475220 420.753693,553.699829 420.208435,559.974670 
	C420.030487,562.022461 420.393829,563.377258 421.000000,565.000000 
"/>
<path fill="none" opacity="1.000000" stroke="#C8941A" stroke-linecap="round" stroke-linejoin="round" stroke-width="3.000000"
	d="
M531.000000,849.500000 
	C528.047363,852.050049 527.434998,855.483032 528.062683,858.988770 
	C529.241333,865.571716 528.441040,871.057495 521.507507,874.017639 
	C520.630676,874.392029 521.100708,875.316833 521.000000,876.000000 
"/>
<path fill="none" opacity="1.000000" stroke="#C8941A" stroke-linecap="round" stroke-linejoin="round" stroke-width="3.000000"
	d="
M511.000000,1228.000000 
	C515.096497,1233.847778 519.216064,1239.677856 524.000000,1245.000000 
"/>
<path fill="none" opacity="1.000000" stroke="#C8941A" stroke-linecap="round" stroke-linejoin="round" stroke-width="2.000000"
	d="
M524.500000,671.500000 
	C518.454773,673.362183 513.223206,676.953491 507.500000,679.500000 
"/>
<path fill="none" opacity="1.000000" stroke="#C8941A" stroke-linecap="round" stroke-linejoin="round" stroke-width="3.000000"
	d="
M449.000000,682.500000 
	C448.256073,686.791321 450.844604,689.744812 452.926575,693.046326 
	C455.223999,696.689453 459.214722,699.511169 459.000000,704.500000 
"/>
<path fill="none" opacity="1.000000" stroke="#C8941A" stroke-linecap="round" stroke-linejoin="round" stroke-width="2.000000"
	d="
M498.500000,678.500000 
	C493.206604,682.539978 489.062927,687.729614 484.500000,692.500000 
"/>
<path fill="none" opacity="1.000000" stroke="#C8941A" stroke-linecap="round" stroke-linejoin="round" stroke-width="5.000000"
	d="
M493.500031,1349.500000 
	C493.833344,1354.166626 494.166687,1358.833374 494.500031,1363.500000 
"/>
<path fill="none" opacity="1.000000" stroke="#C8941A" stroke-linecap="round" stroke-linejoin="round" stroke-width="2.000000"
	d="
M534.500000,736.500000 
	C539.239136,740.427551 543.572449,744.760864 547.500000,749.500000 
"/>
<path fill="none" opacity="1.000000" stroke="#C8941A" stroke-linecap="round" stroke-linejoin="round" stroke-width="3.000000"
	d="
M407.500000,561.750000 
	C412.395782,563.613708 415.538300,568.240173 420.500000,570.000000 
"/>
<path fill="none" opacity="1.000000" stroke="#C8941A" stroke-linecap="round" stroke-linejoin="round" stroke-width="3.000000"
	d="
M523.000000,858.500000 
	C522.969666,862.690918 523.265747,866.907898 522.000000,871.000000 
"/>
<path fill="none" opacity="1.000000" stroke="#C8941A" stroke-linecap="round" stroke-linejoin="round" stroke-width="2.000000"
	d="
M422.500000,580.000000 
	C420.493195,579.319275 418.766327,578.532532 417.384277,576.582031 
	C416.022034,574.659546 413.753052,573.308716 411.000000,574.000000 
"/>
<path fill="none" opacity="1.000000" stroke="#C8941A" stroke-linecap="round" stroke-linejoin="round" stroke-width="3.000000"
	d="
M465.000000,1085.500000 
	C463.311646,1081.687378 465.974396,1078.459106 466.709717,1075.045166 
	C467.096588,1073.249023 469.381714,1071.718506 467.959839,1069.526001 
	C466.609772,1067.443970 464.151550,1066.700439 461.967834,1066.121338 
	C460.262512,1065.669067 458.112518,1065.452148 456.500000,1067.000000 
"/>
<path fill="none" opacity="1.000000" stroke="#C8941A" stroke-linecap="round" stroke-linejoin="round" stroke-width="2.000000"
	d="
M540.000000,862.500000 
	C536.461426,864.185547 532.962280,865.979675 529.000000,866.500000 
"/>
<path fill="none" opacity="1.000000" stroke="#C8941A" stroke-linecap="round" stroke-linejoin="round" stroke-width="4.000000"
	d="
M479.500000,1488.000000 
	C486.477692,1489.103027 493.502777,1488.216797 500.500000,1488.500000 
"/>
<path fill="none" opacity="1.000000" stroke="#C8941A" stroke-linecap="round" stroke-linejoin="round" stroke-width="2.000000"
	d="
M371.500000,614.000000 
	C374.577881,616.067627 377.970337,617.436340 381.500000,618.500000 
"/>
<path fill="none" opacity="1.000000" stroke="#C8941A" stroke-linecap="round" stroke-linejoin="round" stroke-width="2.000000"
	d="
M514.000000,860.500000 
	C516.458801,863.381104 517.780273,866.660217 517.500000,870.500000 
"/>
<path fill="none" opacity="1.000000" stroke="#C8941A" stroke-linecap="round" stroke-linejoin="round" stroke-width="2.000000"
	d="
M405.500000,1028.000000 
	C406.416901,1032.210327 409.774231,1034.622437 412.500000,1037.500000 
"/>
<path fill="none" opacity="1.000000" stroke="#C8941A" stroke-linecap="round" stroke-linejoin="round" stroke-width="2.000000"
	d="
M522.000000,879.000000 
	C524.282593,882.767822 527.432373,886.045471 528.500000,890.500000 
"/>
<path fill="none" opacity="1.000000" stroke="#C8941A" stroke-linecap="round" stroke-linejoin="round" stroke-width="2.000000"
	d="
M566.500000,741.500000 
	C568.500000,744.333313 570.500000,747.166687 572.500000,750.000000 
"/>
<path fill="none" opacity="1.000000" stroke="#C8941A" stroke-linecap="round" stroke-linejoin="round" stroke-width="2.000000"
	d="
M428.000000,569.500000 
	C426.082520,571.822632 427.153015,575.265747 425.000000,577.500000 
"/>
<path fill="none" opacity="1.000000" stroke="#C8941A" stroke-linecap="round" stroke-linejoin="round" stroke-width="3.000000"
	d="
M411.500000,555.000000 
	C414.024994,557.137817 415.078400,560.973633 419.000000,561.500000 
"/>
<path fill="none" opacity="1.000000" stroke="#C8941A" stroke-linecap="round" stroke-linejoin="round" stroke-width="3.000000"
	d="
M415.500000,1046.500000 
	C415.709198,1048.167114 415.375702,1049.703247 413.492706,1049.942749 
	C411.787842,1050.159668 411.095612,1051.181396 410.500000,1052.500000 
"/>
<path fill="none" opacity="1.000000" stroke="#C8941A" stroke-linecap="round" stroke-linejoin="round" stroke-width="3.000000"
	d="
M501.500000,1216.000000 
	C503.714813,1219.549438 508.167969,1221.878052 507.500000,1227.000000 
"/>
<path fill="none" opacity="1.000000" stroke="#C8941A" stroke-linecap="round" stroke-linejoin="round" stroke-width="2.000000"
	d="
M411.500000,1024.000000 
	C414.068878,1025.325684 414.167114,1028.916260 417.000000,1030.000000 
"/>
<path fill="none" opacity="1.000000" stroke="#C8941A" stroke-linecap="round" stroke-linejoin="round" stroke-width="2.000000"
	d="
M470.500000,714.000000 
	C470.013763,716.292725 471.114105,718.341431 471.500000,720.500000 
"/>
<path fill="none" opacity="1.000000" stroke="#C8941A" stroke-linecap="round" stroke-linejoin="round" stroke-width="2.000000"
	d="
M431.500000,960.500000 
	C432.248169,962.092224 433.348236,963.578857 433.000000,965.500000 
"/>
<path fill="none" opacity="1.000000" stroke="#C8941A" stroke-linecap="round" stroke-linejoin="round" stroke-width="2.000000"
	d="
M427.000000,963.500000 
	C425.833344,963.500000 424.666656,963.500000 423.500000,963.500000 
"/>
<path fill="none" opacity="1.000000" stroke="#C8941A" stroke-linecap="round" stroke-linejoin="round" stroke-width="2.000000"
	d="
M445.500000,684.500000 
	C446.095612,685.818604 446.760681,687.053894 448.500000,687.000000 
"/>
</svg>