<svg version="1.1" id="Layer_1" xmlns="http://www.w3.org/2000/svg" xmlns:xlink="http://www.w3.org/1999/xlink" x="0px" y="0px"
	 width="100%" viewBox="0 0 720 1024" enable-background="new 0 0 720 1024" xml:space="preserve">
<path fill="#C8941A" opacity="1.000000" stroke="none" 
	d="
M241.084396,62.146141 
	C238.593185,75.780502 247.312485,88.620499 258.830170,88.811531 
	C267.765381,88.959732 271.838806,83.202850 268.829651,74.673508 
	C268.614380,74.063339 268.199738,73.472885 268.757263,72.836960 
	C272.854858,74.672089 274.855316,78.928314 273.848724,83.671432 
	C272.134949,91.747169 264.558777,96.658333 255.650482,95.468246 
	C242.919525,93.767487 233.233856,80.866035 233.699646,66.229454 
	C234.104263,53.515854 243.676254,44.014542 257.235596,42.867321 
	C284.068970,40.597008 302.511505,65.350342 292.452148,90.260429 
	C288.647278,99.682343 283.025513,107.965355 274.809875,114.064583 
	C255.166321,128.647812 251.154541,147.240433 259.728027,170.349274 
	C266.296631,188.054214 277.878876,202.433945 291.070496,215.597687 
	C297.257416,221.771591 303.202332,228.264252 310.906830,232.769455 
	C302.436768,223.184052 295.095154,212.749298 287.265167,202.698486 
	C276.785217,189.246094 268.500610,174.666916 266.637390,157.375900 
	C265.071808,142.846954 268.575439,129.559402 281.952240,121.955696 
	C295.714386,114.132950 310.524445,113.154404 323.808624,123.417404 
	C338.842041,135.031815 346.929230,150.294540 344.254944,169.880493 
	C342.855042,180.133179 335.698273,186.445923 327.854828,192.051865 
	C326.224487,193.217117 324.123932,193.356949 322.083649,193.386871 
	C317.975250,193.447128 313.818665,192.080063 312.446259,188.541290 
	C311.014526,184.849625 312.535400,180.575867 315.927460,177.758057 
	C319.323059,174.937241 323.153137,174.478027 327.096405,176.593597 
	C328.535431,177.365631 329.800446,178.461929 331.342163,179.549454 
	C336.540375,176.014435 336.795532,170.274521 337.226746,165.269928 
	C338.526550,150.185913 326.611298,131.669144 312.714172,126.062263 
	C299.966248,120.919022 283.753052,125.600655 277.988861,136.467148 
	C274.379669,143.271133 273.852997,150.754761 274.743927,158.364777 
	C276.367859,172.236130 283.173553,183.849136 290.725525,195.114944 
	C307.744385,220.503098 330.056976,241.155960 351.491180,262.565277 
	C358.543945,269.609833 366.288757,275.961548 374.626953,283.446838 
	C371.242859,274.215424 368.851898,265.809296 368.875977,257.075836 
	C368.947144,231.262466 378.763611,209.814728 398.600952,193.175323 
	C413.693665,180.515686 423.109589,164.957443 424.737518,144.960648 
	C425.209290,139.165604 423.880615,134.400925 419.735443,130.496872 
	C416.223846,127.189476 412.517059,124.088051 408.870270,120.925896 
	C405.939636,118.384705 403.240570,115.690086 402.349915,111.719742 
	C401.761902,109.098518 402.264404,106.684059 404.289886,104.875961 
	C406.135620,103.228287 408.303467,103.686234 410.424591,104.468353 
	C418.299713,107.372253 423.451202,112.930321 426.218292,120.757454 
	C433.875488,142.417145 429.548615,162.393402 417.477051,181.174789 
	C415.061554,184.932938 412.087799,188.332260 409.331177,191.949860 
	C410.443970,193.467041 412.094818,192.858276 413.463806,192.958191 
	C431.114655,194.246460 441.591675,204.431915 447.404602,220.324371 
	C451.394806,231.233459 451.359894,241.917343 444.634216,251.864929 
	C437.495972,262.422760 423.890411,266.379364 413.408783,261.151276 
	C408.271393,258.588837 404.353577,252.255005 404.788086,246.967651 
	C405.185303,242.134399 407.937683,239.056885 412.380676,237.370819 
	C414.862305,236.429062 417.187653,236.380402 419.143829,238.250671 
	C419.032074,239.904785 417.964020,239.987991 417.000214,240.229904 
	C413.284088,241.162567 410.258698,243.140030 410.537384,247.289200 
	C410.821014,251.511353 413.761597,254.103104 417.750946,255.315308 
	C426.249542,257.897675 436.891296,253.181152 441.597046,244.762741 
	C447.231323,234.683258 445.200012,224.676651 440.679199,215.032715 
	C429.270660,190.695694 403.057465,192.718857 390.053131,211.332214 
	C372.017914,237.146362 368.371155,272.195618 395.830353,302.999695 
	C410.157745,319.072388 423.708221,336.050140 433.896118,355.661591 
	C443.352631,373.865173 446.648376,392.875366 448.132812,412.647980 
	C449.824829,435.185730 446.567169,457.144073 439.680237,478.614410 
	C433.619415,497.509430 424.059998,514.602295 412.808563,530.817749 
	C391.917023,560.926636 364.012207,583.931641 335.754517,606.529785 
	C316.512817,621.917725 296.811462,636.734131 277.671509,652.245239 
	C254.158981,671.299866 232.422867,692.120239 216.560516,718.294800 
	C203.149414,740.424561 195.942444,763.998352 200.087448,790.176025 
	C200.308090,791.569519 200.599579,793.114075 199.220963,795.028259 
	C195.437897,786.801636 194.982162,778.402466 194.858612,770.040894 
	C194.464859,743.393372 204.035294,719.903748 218.400574,698.084778 
	C236.067413,671.251221 258.579834,648.874817 283.213562,628.516541 
	C309.407623,606.868896 337.495697,587.626038 363.324951,565.512329 
	C366.846588,562.497253 370.353821,559.465332 373.676239,556.054016 
	C362.313629,560.880005 350.454926,563.553406 338.452240,565.750916 
	C302.078522,572.410278 260.384277,552.611389 243.507675,519.776245 
	C228.432693,490.446259 242.469513,450.824127 273.132233,440.294647 
	C289.230042,434.766663 309.655090,445.752319 312.612427,462.523010 
	C313.848083,469.530243 310.487091,475.270569 305.809174,479.942688 
	C303.072723,482.675781 299.269501,481.972198 296.114288,479.804871 
	C292.575165,477.373871 291.341095,473.749420 292.260864,469.743073 
	C293.131714,465.949615 295.921600,463.796814 299.910095,463.826355 
	C302.003876,463.841827 304.093750,464.386780 306.361969,464.718445 
	C306.361969,464.139191 306.483307,463.635864 306.344330,463.219391 
	C302.138245,450.614563 281.851868,442.736542 270.447754,449.470612 
	C263.386963,453.639954 257.132751,458.904846 251.790466,465.177460 
	C246.807449,471.028259 245.020660,478.152466 244.364395,485.504913 
	C241.771744,514.551453 255.834442,538.272766 282.199402,550.353638 
	C311.607178,563.828735 340.695435,563.787598 369.766205,549.307678 
	C384.012604,542.211670 406.603516,521.333374 412.520813,508.850952 
	C407.288879,512.431580 402.637451,515.754211 397.849091,518.866150 
	C382.832825,528.625122 366.401031,534.404297 348.438538,534.024292 
	C333.705841,533.712585 319.689850,530.190613 308.730774,519.240356 
	C306.194122,516.705688 302.675079,513.771301 305.176636,509.883942 
	C307.767334,505.858032 311.949219,508.099762 315.157928,509.511230 
	C326.286591,514.406433 337.171295,519.970459 349.504761,521.262207 
	C375.840210,524.020630 399.106934,516.505920 418.495941,498.731598 
	C426.027130,491.827576 428.900146,481.387329 432.271576,471.845581 
	C439.485291,451.429749 443.010559,430.354218 441.741516,408.557007 
	C440.645111,421.419128 437.711304,433.857452 432.501373,445.624146 
	C427.274170,457.429871 419.985077,467.803986 409.147675,475.668396 
	C431.483582,451.303192 438.356842,422.824005 432.678223,390.909271 
	C431.221710,397.398590 429.077667,403.625885 426.046295,409.543060 
	C410.139069,440.594086 369.914673,445.689667 347.559509,419.482849 
	C331.459045,400.608276 338.940948,368.931244 361.392212,360.917847 
	C380.905823,353.952972 401.701019,368.689026 400.176758,388.516998 
	C399.566406,396.456482 395.460571,402.371033 388.265747,405.744141 
	C381.959137,408.700867 375.834564,407.591919 370.439087,403.343903 
	C368.073639,401.481537 365.492981,399.377350 366.386566,395.701965 
	C367.893860,395.258148 368.427124,396.146851 369.071594,396.919403 
	C373.751495,402.529694 378.603302,404.239380 384.332458,402.325714 
	C389.770569,400.509247 393.662292,394.566101 393.867493,387.764557 
	C394.156952,378.172211 386.338043,369.695770 375.916046,368.303345 
	C360.619415,366.259674 348.168945,377.360474 347.274719,393.839905 
	C346.454803,408.949829 356.289551,422.654999 371.030090,427.687469 
	C402.235626,438.341156 424.988892,414.678375 428.848938,389.317963 
	C430.290344,379.847687 428.592499,371.077698 425.748077,362.377899 
	C418.323151,339.668152 405.027588,319.964172 386.516296,305.923523 
	C372.008453,294.919464 357.046173,284.010529 341.493469,274.176971 
	C328.612305,266.032562 315.527344,258.534210 300.833740,254.206284 
	C284.156067,249.294006 268.169983,250.255844 253.703751,260.718689 
	C240.181702,270.498627 234.255951,291.305542 240.093307,307.059113 
	C246.078186,323.210815 276.176056,331.010773 289.106995,319.689087 
	C293.192169,316.112305 294.774261,311.542603 293.256378,306.161743 
	C292.686127,304.140137 291.964142,302.161346 291.156586,299.689148 
	C295.784760,302.613281 298.108398,309.266663 296.501038,314.150665 
	C293.566895,323.066010 286.700470,327.738007 278.028961,329.005096 
	C264.591431,330.968597 252.332672,326.705231 242.381851,317.906982 
	C233.154449,309.748352 232.703873,298.087006 234.169586,286.782318 
	C238.429047,253.930176 268.825897,243.180695 292.221985,247.357132 
	C311.752716,250.843552 328.902618,260.152374 345.515381,270.532776 
	C347.067749,271.502747 348.644501,272.434662 350.226929,273.355042 
	C350.926605,273.761993 351.668762,274.095917 353.612488,275.082977 
	C350.532745,270.657410 347.677429,267.526093 344.287323,265.652252 
	C336.699677,261.458344 331.115845,254.981323 324.503479,249.701599 
	C306.010803,234.935852 287.674530,219.999924 271.591400,202.520416 
	C260.313812,190.263657 250.666382,177.320435 248.304260,160.030762 
	C245.598770,140.227890 249.724930,123.804131 267.760345,112.475906 
	C278.976868,105.430717 285.528870,94.561165 288.900360,81.969299 
	C294.214783,62.120979 275.700317,43.039230 255.674454,47.604610 
	C248.124496,49.325802 242.854080,53.802387 241.084396,62.146141 
z"/>
<path fill="#C8941A" opacity="1.000000" stroke="none" 
	d="
M451.218262,836.252563 
	C428.515625,855.484924 402.114441,860.890869 373.757812,857.997253 
	C359.884003,856.581543 347.734497,849.694641 336.912537,841.178162 
	C317.685303,826.046997 300.192566,809.407837 289.919739,786.361877 
	C279.725891,763.492981 273.353790,739.918396 274.845032,714.765381 
	C275.938629,696.319763 277.648041,677.865662 286.680206,661.109558 
	C293.201843,649.010803 302.340881,639.235046 313.384949,631.166565 
	C314.168549,630.594116 314.965546,629.836182 316.878296,631.270569 
	C305.069153,645.864502 292.947937,660.417603 288.715881,679.426880 
	C284.563812,698.077087 282.404694,716.788452 286.193268,735.792419 
	C290.034515,755.060791 299.482452,771.072571 313.873383,784.312256 
	C295.628906,773.059387 286.081207,755.669617 279.829956,735.911194 
	C282.023193,755.745422 287.777222,774.336487 298.217438,791.450439 
	C311.575958,813.348267 328.499786,831.611328 351.587006,843.328125 
	C393.331055,864.513306 438.036255,848.612183 461.034943,817.554565 
	C466.214386,810.560181 468.464203,802.461243 469.625977,793.551514 
	C472.375824,772.462708 462.319672,757.577759 447.487854,745.314758 
	C435.481537,735.388123 415.886902,739.953552 408.364868,753.174438 
	C406.509918,756.434631 405.387146,759.829346 406.668793,763.696838 
	C408.744446,763.784790 409.349640,761.868530 410.634094,760.986572 
	C415.238617,757.824768 420.226868,758.222961 423.721252,762.144592 
	C427.041779,765.871094 427.017090,770.711975 423.656219,774.885925 
	C420.447266,778.871216 414.932434,779.820435 410.699036,777.116150 
	C400.679565,770.715820 398.656647,756.251404 406.476990,746.927124 
	C418.706573,732.345703 439.103546,730.165588 452.995117,742.811279 
	C471.459381,759.619385 479.113831,780.660339 474.153992,805.439880 
	C471.448761,818.955200 462.290985,828.231079 451.218262,836.252563 
z"/>
<path fill="#C8941A" opacity="1.000000" stroke="none" 
	d="
M171.270004,762.115723 
	C168.312881,786.698975 171.184433,810.447021 176.817719,834.062378 
	C173.306335,832.668884 173.424957,829.486328 172.562622,827.047241 
	C166.453445,809.768494 163.926895,791.766174 163.983688,773.590454 
	C164.079575,742.908752 172.828949,714.742981 189.755753,688.918823 
	C206.644455,663.152771 228.698853,642.662964 253.057632,624.396851 
	C277.149078,606.331116 303.798309,592.636597 330.941589,579.858154 
	C332.694366,579.032959 334.488708,578.115173 337.805939,578.644287 
	C333.481201,581.216736 330.061401,583.356201 326.545837,585.324707 
	C306.064728,596.793030 285.672058,608.391968 266.456421,621.947876 
	C232.778671,645.706055 204.128967,673.936157 185.983521,711.623047 
	C178.333954,727.510681 173.856873,744.315491 171.270004,762.115723 
z"/>
<path fill="#C8941A" opacity="1.000000" stroke="none" 
	d="
M267.709412,848.723267 
	C252.359100,865.877197 251.047363,890.474487 263.743774,908.989807 
	C275.013672,925.424744 307.672974,929.730225 321.302856,909.468384 
	C329.612366,897.115601 326.894073,879.967590 315.036682,872.889160 
	C304.218109,866.430908 288.590057,871.828003 286.379272,882.785889 
	C284.285278,893.164917 290.122772,900.699890 299.490021,899.676758 
	C303.619659,899.225647 306.743774,897.407410 308.090424,893.201843 
	C308.427307,892.149841 308.596375,890.920959 309.811554,890.366272 
	C312.931976,894.494812 311.792053,899.145630 306.714233,902.170105 
	C300.693756,905.755981 294.447021,906.331665 288.283630,902.481506 
	C282.106598,898.622803 279.872223,892.470581 280.350067,885.728333 
	C281.366547,871.386047 288.707764,864.263306 303.535583,862.236328 
	C314.163361,860.783569 326.851471,868.671509 331.103058,879.083374 
	C336.536530,892.389587 334.503815,904.574219 325.661865,915.592407 
	C316.038086,927.584839 302.831451,930.841248 288.401215,928.776123 
	C267.735992,925.818787 252.566544,908.298035 250.883423,886.694336 
	C249.477432,868.647461 254.729874,853.500549 269.918884,842.651489 
	C271.199951,841.736511 272.322845,840.264282 274.626312,840.904480 
	C273.597534,844.594238 269.876068,845.784058 267.709412,848.723267 
z"/>
<path fill="#C8941A" opacity="1.000000" stroke="none" 
	d="
M298.516693,718.380676 
	C291.658813,706.525757 287.497345,694.565674 292.309265,681.134155 
	C292.801361,685.351624 292.702423,689.621826 293.133148,693.869446 
	C295.156982,713.827637 311.676697,732.902283 330.067047,734.181702 
	C352.291870,735.727844 371.772491,719.962891 369.569519,698.957642 
	C368.537567,689.118164 363.580719,681.340759 354.220123,677.161133 
	C341.537109,671.498230 325.954346,681.216675 326.175018,694.504028 
	C326.277740,700.691528 330.328369,706.461365 335.875854,708.322449 
	C340.992157,710.038757 345.487671,708.059082 349.829071,702.225098 
	C350.478455,701.352478 350.765228,699.981628 352.666443,700.155090 
	C353.113373,704.486816 350.477112,707.227722 347.509064,709.473022 
	C339.088226,715.843140 327.477875,712.830811 322.616486,703.200012 
	C314.619415,687.357239 326.522003,668.963196 345.131744,667.679565 
	C366.647095,666.195557 379.103271,688.741028 376.980072,704.607544 
	C374.458801,723.448792 362.600372,733.583374 345.420441,738.415100 
	C328.949951,743.047241 315.366364,737.231812 303.920776,725.373901 
	C301.969269,723.352112 300.431580,720.930908 298.516693,718.380676 
z"/>
<path fill="#C8941A" opacity="1.000000" stroke="none" 
	d="
M251.740723,289.189056 
	C247.090546,282.557159 249.446915,272.993652 256.840485,267.047485 
	C264.684204,260.739319 273.882141,258.770538 283.593903,259.414032 
	C304.956482,260.829468 323.754639,269.558777 341.617493,280.639923 
	C346.283020,283.534180 350.744934,286.765594 355.213531,289.963501 
	C356.768677,291.076447 358.686554,292.017914 359.078003,294.341614 
	C357.208710,295.541321 355.906982,294.018890 354.543488,293.411682 
	C335.822540,285.074341 317.040894,276.901520 297.158264,271.634949 
	C288.195374,269.260864 279.194092,267.995758 270.112579,271.124756 
	C264.711426,272.985718 260.425598,276.081787 257.760925,281.336670 
	C256.244751,284.326599 256.446716,287.293610 257.249359,290.242126 
	C254.963058,291.799072 253.564484,290.262054 251.740723,289.189056 
z"/>
<path fill="#C8941A" opacity="1.000000" stroke="none" 
	d="
M344.459900,938.541077 
	C351.614685,923.756226 354.420715,908.744080 351.696411,892.705688 
	C349.044128,877.091370 342.180023,863.506165 331.864532,850.368713 
	C335.236115,850.578186 336.401489,852.205200 337.629456,853.559021 
	C352.930603,870.429810 363.369629,889.641663 363.913116,912.869690 
	C364.229584,926.396912 361.037109,939.331421 351.893494,949.994019 
	C349.347412,952.963135 346.214355,956.938965 341.912415,954.563354 
	C337.112122,951.912598 341.097656,947.762756 341.879608,944.344604 
	C342.315613,942.438721 343.455292,940.693787 344.459900,938.541077 
z"/>
<path fill="#C8941A" opacity="1.000000" stroke="none" 
	d="
M399.587158,827.813843 
	C369.134949,839.456482 328.541901,821.389893 318.208649,808.275940 
	C320.390106,807.420837 321.614746,809.265198 323.066376,810.054626 
	C350.860809,825.170776 378.576599,827.177307 406.252228,809.788269 
	C409.208618,807.930786 412.206512,806.138306 415.139587,804.245117 
	C417.920929,802.449707 420.981415,800.791809 423.768860,803.491821 
	C426.838257,806.465027 424.317047,809.565308 422.519623,811.946106 
	C416.745483,819.594116 409.040955,824.669250 399.587158,827.813843 
z"/>
<path fill="#C8941A" opacity="1.000000" stroke="none" 
	d="
M258.456665,812.553711 
	C261.462067,814.947937 264.238464,817.062256 266.950867,819.255676 
	C268.685364,820.658325 270.350128,822.339722 269.266907,824.764526 
	C268.122467,827.326355 265.580322,827.489014 263.243774,827.078247 
	C257.678619,826.099854 252.977402,823.337891 248.922989,819.461243 
	C236.801651,807.871338 233.842880,792.842651 233.601852,777.058777 
	C233.438446,766.356812 235.377930,755.878967 239.635620,745.933350 
	C240.470261,743.983765 241.180862,742.019043 243.936340,740.651672 
	C237.208298,767.237183 237.134644,791.971436 258.456665,812.553711 
z"/>
<path fill="#C8941A" opacity="1.000000" stroke="none" 
	d="
M427.609497,310.635559 
	C428.534546,316.519073 430.428955,321.630432 432.923340,326.574707 
	C435.269073,331.224335 438.164764,335.553864 441.406738,339.585297 
	C438.836670,341.507111 437.725220,340.113159 436.782532,339.111145 
	C429.376709,331.239166 423.361267,322.554626 421.514771,311.603149 
	C419.174377,297.722260 428.987823,285.518036 443.078339,284.927643 
	C449.565643,284.655823 454.808380,287.257294 458.089417,292.996307 
	C461.352478,298.703979 461.961334,304.666077 458.495209,310.532715 
	C455.962494,314.819519 451.907349,316.123199 447.291046,314.862457 
	C442.804565,313.637146 440.634644,310.204865 439.189056,305.459137 
	C442.255341,305.863770 442.692078,308.030762 444.092346,309.093994 
	C446.599274,310.997620 449.224518,312.282776 452.401001,311.137299 
	C455.727722,309.937683 457.298340,307.346527 457.734375,303.941071 
	C458.518280,297.818634 456.208984,292.753235 451.290039,289.869995 
	C446.661591,287.157043 441.461792,287.707611 436.432404,291.612518 
	C430.375702,296.315063 427.466278,302.580719 427.609497,310.635559 
z"/>
<path fill="#C8941A" opacity="1.000000" stroke="none" 
	d="
M286.885437,591.272583 
	C285.992371,597.508545 282.565552,601.360962 277.247498,602.038757 
	C272.928986,602.589233 269.339722,600.943115 267.212463,597.059021 
	C264.575104,592.243408 266.440430,586.062073 271.156128,583.158569 
	C275.534576,580.462708 281.604065,581.822021 284.803497,586.391113 
	C285.728546,587.712158 286.158661,589.379822 286.885437,591.272583 
z"/>
<path fill="#C8941A" opacity="1.000000" stroke="none" 
	d="
M343.459167,967.950378 
	C345.924072,963.602539 349.186035,962.032471 353.647797,963.706726 
	C357.298431,965.076599 359.443665,967.728333 359.188324,971.664795 
	C358.903625,976.053284 355.987823,978.480286 351.943542,979.419861 
	C345.680115,980.875000 341.903625,975.946167 343.459167,967.950378 
z"/>
<path fill="#C8941A" opacity="1.000000" stroke="none" 
	d="
M443.609558,818.160156 
	C437.106628,818.095642 432.973541,814.117065 433.497620,808.881714 
	C433.917023,804.692383 438.943726,801.251831 443.528076,801.995728 
	C447.383362,802.621155 449.375580,805.215881 449.842499,808.751648 
	C450.438446,813.264771 448.039734,816.276062 443.609558,818.160156 
z"/>
<path fill="#C8941A" opacity="1.000000" stroke="none" 
	d="
M237.233765,601.461243 
	C237.318100,595.655151 240.179367,592.181946 244.703735,591.870789 
	C248.335358,591.621033 252.204910,594.607666 253.053268,598.315186 
	C254.006287,602.479980 251.457458,606.585388 247.141037,607.838135 
	C242.931015,609.060120 239.756149,607.110168 237.233765,601.461243 
z"/>
<path fill="#C8941A" opacity="1.000000" stroke="none" 
	d="
M215.617279,832.020691 
	C217.908142,828.648682 220.679794,826.912781 224.328201,828.389343 
	C227.631195,829.726013 229.763046,832.233154 229.492950,836.113892 
	C229.243378,839.699707 227.230255,841.972900 223.883118,842.977478 
	C218.058060,844.725647 213.905518,839.475159 215.617279,832.020691 
z"/>
<path fill="#C8941A" opacity="1.000000" stroke="none" 
	d="
M362.414673,955.152100 
	C361.449310,952.641174 361.596954,950.577209 362.918854,948.665283 
	C365.101105,945.509155 369.828094,944.742065 372.510803,947.090210 
	C375.349823,949.575195 375.373596,953.791321 372.565674,956.802734 
	C369.547302,960.039856 366.264435,959.611572 362.414673,955.152100 
z"/>
<path fill="#C8941A" opacity="1.000000" stroke="none" 
	d="
M423.586243,836.284241 
	C418.570160,832.731506 417.648285,829.265442 420.497559,825.925293 
	C423.050354,822.932434 426.736664,822.660828 429.708282,825.363281 
	C431.528381,827.018494 432.584381,829.106567 431.672516,831.589172 
	C430.371704,835.130676 427.777527,836.810486 423.586243,836.284241 
z"/>
<path fill="#C8941A" opacity="1.000000" stroke="none" 
	d="
M448.010010,204.082535 
	C450.149017,201.300980 452.600372,200.117020 455.599792,201.476288 
	C459.093018,203.059311 460.471100,205.915176 459.286377,209.619766 
	C458.315796,212.654724 456.122589,214.301620 452.833710,213.595917 
	C449.050354,212.784088 446.879120,208.637543 448.010010,204.082535 
z"/>
<path fill="#C8941A" opacity="1.000000" stroke="none" 
	d="
M224.798691,814.431213 
	C222.260345,817.825012 219.428970,819.682373 215.762894,817.138306 
	C213.228287,815.379333 212.358826,812.730713 213.721893,809.728455 
	C215.011673,806.887634 217.457245,805.904724 220.260300,806.645508 
	C223.916504,807.611694 225.744171,810.111938 224.798691,814.431213 
z"/>
<path fill="#C8941A" opacity="1.000000" stroke="none" 
	d="
M224.257904,596.803833 
	C226.483490,599.546936 226.932419,602.105530 224.854721,604.721008 
	C223.397308,606.555786 221.459305,607.356628 219.161346,606.768677 
	C216.811829,606.167542 214.977066,604.865845 214.273819,602.369812 
	C213.525299,599.712952 214.929092,597.955872 216.789841,596.414551 
	C219.205505,594.413513 221.606705,594.665283 224.257904,596.803833 
z"/>
<path fill="#C8941A" opacity="1.000000" stroke="none" 
	d="
M280.435486,308.381775 
	C283.228760,306.687042 285.722321,306.090424 287.958221,308.501678 
	C289.501984,310.166595 289.574585,312.105072 288.316345,313.969574 
	C286.954376,315.987762 284.862305,316.780273 282.661316,315.976532 
	C279.030823,314.650787 277.743622,312.199066 280.435486,308.381775 
z"/>
<path fill="#C8941A" opacity="1.000000" stroke="none" 
	d="
M436.202759,191.499619 
	C437.121307,189.972366 438.125275,189.120117 439.494354,188.920517 
	C442.518646,188.479568 444.633240,189.842529 445.684235,192.602142 
	C446.603577,195.016266 445.401794,196.867386 443.265625,197.822372 
	C440.762238,198.941544 438.470001,198.352936 436.736877,196.056885 
	C435.761475,194.764694 435.607941,193.377396 436.202759,191.499619 
z"/>
<path fill="#C8941A" opacity="1.000000" stroke="none" 
	d="
M378.086243,930.875244 
	C379.239899,934.459290 377.784332,936.420410 374.764923,937.184998 
	C372.322784,937.803528 370.570007,936.508423 369.585663,934.300659 
	C368.631836,932.161560 369.364166,930.370605 371.157318,929.052979 
	C373.924103,927.019897 376.118744,927.984070 378.086243,930.875244 
z"/>
<path fill="#C8941A" opacity="1.000000" stroke="none" 
	d="
M197.569489,594.802246 
	C200.617249,592.696289 202.875900,593.253296 204.545868,596.058533 
	C205.709763,598.013611 205.475845,599.944092 203.766174,601.456726 
	C201.981949,603.035400 199.936905,603.489014 197.902298,601.870056 
	C195.357422,599.845093 195.067917,597.539429 197.569489,594.802246 
z"/>
<path fill="#C8941A" opacity="1.000000" stroke="none" 
	d="
M425.241852,194.040741 
	C424.083069,193.366776 423.094147,192.905304 422.576202,192.129440 
	C420.950043,189.693405 420.334595,186.996597 423.145538,185.103592 
	C425.455994,183.547653 427.708771,184.561081 429.139282,186.788498 
	C430.881195,189.500778 430.281982,191.873932 427.519257,193.577621 
	C426.983124,193.908218 426.262665,193.939865 425.241852,194.040741 
z"/>
<path fill="#C8941A" opacity="1.000000" stroke="none" 
	d="
M344.259888,612.668518 
	C346.158661,615.348022 346.160919,617.685425 343.791382,619.545044 
	C342.064636,620.900269 340.040405,620.927490 338.271790,619.494385 
	C336.494751,618.054443 336.113312,615.977905 337.041595,614.069397 
	C338.577454,610.911682 341.045013,610.318420 344.259888,612.668518 
z"/>
<path fill="#C8941A" opacity="1.000000" stroke="none" 
	d="
M382.704102,585.039429 
	C379.087433,585.370300 377.251343,583.762390 376.980438,580.661377 
	C376.781616,578.385864 378.260162,576.976868 380.354156,576.372070 
	C382.528778,575.744080 384.348114,576.561279 385.428772,578.450256 
	C387.116180,581.399902 385.738312,583.441040 382.704102,585.039429 
z"/>
<path fill="#C8941A" opacity="1.000000" stroke="none" 
	d="
M460.117798,460.965851 
	C459.064331,464.609985 456.947174,466.037292 453.662964,464.779083 
	C451.609375,463.992401 450.661072,462.183167 451.007416,459.966431 
	C451.358795,457.717560 452.919922,456.401764 455.075500,456.260437 
	C457.983002,456.069824 459.680298,457.685394 460.117798,460.965851 
z"/>
<path fill="#C8941A" opacity="1.000000" stroke="none" 
	d="
M441.066986,510.186859 
	C439.473236,515.248108 435.997040,516.746338 433.272095,513.932678 
	C432.031464,512.651672 431.586121,511.092102 432.133514,509.360382 
	C432.685730,507.613373 433.989380,506.560211 435.740112,506.349396 
	C438.372162,506.032410 440.198425,507.211090 441.066986,510.186859 
z"/>
<path fill="#C8941A" opacity="1.000000" stroke="none" 
	d="
M397.690582,565.218018 
	C400.113037,568.292542 398.983154,570.427368 396.510345,572.155457 
	C394.596039,573.493164 392.738434,573.107727 391.194000,571.443481 
	C389.694366,569.827515 389.225647,567.924133 390.578949,566.051025 
	C392.419861,563.503052 394.760864,563.031494 397.690582,565.218018 
z"/>
<path fill="#C8941A" opacity="1.000000" stroke="none" 
	d="
M352.549622,600.157654 
	C356.254028,599.269043 358.558990,600.405701 359.063934,603.892334 
	C359.424561,606.382263 357.915985,607.972534 355.587585,608.622986 
	C353.087433,609.321350 351.393219,608.032410 350.372955,605.918213 
	C349.247833,603.586609 350.278229,601.775940 352.549622,600.157654 
z"/>
<path fill="#C8941A" opacity="1.000000" stroke="none" 
	d="
M402.684479,840.227905 
	C402.556824,835.204895 404.649109,832.908875 407.986969,834.002075 
	C409.816315,834.601196 411.253876,835.844788 411.514221,837.841492 
	C411.779572,839.876770 410.655823,841.270874 408.890106,842.243164 
	C406.296661,843.671082 404.457886,842.591736 402.684479,840.227905 
z"/>
<path fill="#C8941A" opacity="1.000000" stroke="none" 
	d="
M421.736572,539.480591 
	C422.605469,543.297791 421.079407,545.317017 417.711548,545.659241 
	C415.258606,545.908447 413.670044,544.358887 413.136993,542.039307 
	C412.569122,539.568176 413.878845,537.849304 416.085815,537.041748 
	C418.359528,536.209778 420.258545,537.040466 421.736572,539.480591 
z"/>
<path fill="#C8941A" opacity="1.000000" stroke="none" 
	d="
M427.157166,530.846313 
	C424.105896,529.813660 422.607422,528.015259 423.325043,525.094849 
	C423.803497,523.147705 425.331635,522.072876 427.330933,521.915588 
	C429.383667,521.754089 430.994293,522.780151 431.657410,524.612549 
	C433.014465,528.362549 430.991974,530.162231 427.157166,530.846313 
z"/>
<path fill="#C8941A" opacity="1.000000" stroke="none" 
	d="
M463.652496,441.552124 
	C464.613983,445.085022 463.290161,447.137817 460.221619,447.743378 
	C457.550385,448.270447 455.762634,446.692902 455.093628,444.212616 
	C454.427826,441.744202 455.851257,440.046539 457.999786,439.164642 
	C460.304962,438.218506 462.140961,439.183655 463.652496,441.552124 
z"/>
<path fill="#C8941A" opacity="1.000000" stroke="none" 
	d="
M461.979492,430.184937 
	C459.143707,429.919830 457.676300,428.541229 457.273468,426.160431 
	C456.973877,424.389557 457.616364,422.873169 459.190857,421.953918 
	C461.697723,420.490387 464.198883,420.721069 465.555908,423.340271 
	C467.264069,426.637268 465.852448,429.006378 461.979492,430.184937 
z"/>
<path fill="#C8941A" opacity="1.000000" stroke="none" 
	d="
M461.098877,403.242645 
	C465.196686,404.064819 467.042389,406.121216 465.354218,409.963104 
	C464.554199,411.783783 462.794037,412.499359 460.807281,412.200043 
	C458.580536,411.864594 457.228668,410.405426 456.964233,408.262665 
	C456.628113,405.538727 458.163330,403.961853 461.098877,403.242645 
z"/>
<path fill="#C8941A" opacity="1.000000" stroke="none" 
	d="
M453.413879,388.514893 
	C455.156952,386.123566 457.076721,385.136200 459.569916,386.408325 
	C461.120697,387.199646 462.130829,388.506195 462.136322,390.321472 
	C462.142395,392.332367 461.099121,393.741974 459.272980,394.523376 
	C455.915070,395.960144 453.473419,393.658539 453.413879,388.514893 
z"/>
<path fill="#C8941A" opacity="1.000000" stroke="none" 
	d="
M448.438446,371.487488 
	C450.080933,368.937714 452.055115,368.061829 454.509979,369.261658 
	C456.225281,370.099976 457.289124,371.580414 457.101959,373.622314 
	C456.918182,375.627228 455.724518,376.926361 453.869141,377.545166 
	C450.605194,378.633820 448.529358,376.494812 448.438446,371.487488 
z"/>
<path fill="#C8941A" opacity="1.000000" stroke="none" 
	d="
M408.245453,551.010071 
	C410.691376,552.628235 411.865265,554.492798 410.549866,557.026428 
	C409.671417,558.718445 408.155365,559.808655 406.156006,559.686401 
	C404.141022,559.563171 402.843872,558.305481 402.213409,556.444641 
	C401.119415,553.215637 403.439697,550.966675 408.245453,551.010071 
z"/>
<path fill="#C8941A" opacity="1.000000" stroke="none" 
	d="
M454.699463,476.542053 
	C455.154968,479.772125 453.995117,481.778687 451.101562,482.317749 
	C448.683807,482.768127 446.902344,481.528809 446.071838,479.267914 
	C445.297119,477.158936 445.930328,475.215546 447.919556,474.180786 
	C450.644989,472.762970 453.032959,473.272034 454.699463,476.542053 
z"/>
<path fill="#C8941A" opacity="1.000000" stroke="none" 
	d="
M444.030151,490.002747 
	C447.643341,491.055603 449.697418,492.926239 448.033752,496.535767 
	C447.167450,498.415192 445.379150,499.487885 443.151520,498.980652 
	C441.240387,498.545471 439.897675,497.305328 439.676392,495.309082 
	C439.352234,492.384613 440.930145,490.723694 444.030151,490.002747 
z"/>
<path fill="#C8941A" opacity="1.000000" stroke="none" 
	d="
M372.681885,592.858643 
	C371.645020,595.771118 370.034607,597.519775 367.073395,596.878235 
	C365.159851,596.463684 363.957733,595.084473 363.755432,593.061523 
	C363.512756,590.634521 364.497803,588.677856 366.870850,588.140808 
	C370.260773,587.373596 372.077332,589.287109 372.681885,592.858643 
z"/>
<path fill="#C8941A" opacity="1.000000" stroke="none" 
	d="
M452.959229,224.279053 
	C455.693756,221.756424 458.002899,222.209549 459.998962,224.637894 
	C461.284607,226.201904 461.482208,228.022018 459.993652,229.567505 
	C458.510406,231.107513 456.579590,231.699310 454.584473,230.686615 
	C451.946960,229.347855 451.143494,227.278824 452.959229,224.279053 
z"/>
<path fill="#C8941A" opacity="1.000000" stroke="none" 
	d="
M223.841431,793.265015 
	C223.874954,796.101501 222.744049,797.739258 220.266266,798.172668 
	C218.507492,798.480408 216.987350,797.917236 216.019287,796.333313 
	C215.183640,794.966064 215.157639,793.514282 215.918549,792.100037 
	C217.559479,789.050110 220.686203,789.368591 223.841431,793.265015 
z"/>
<path fill="#C8941A" opacity="1.000000" stroke="none" 
	d="
M291.990295,235.918304 
	C289.848358,233.860519 289.637634,231.910583 291.607574,230.092041 
	C293.106934,228.707962 294.884277,228.610413 296.644501,229.738144 
	C298.262360,230.774673 298.909119,232.298737 298.080505,234.013733 
	C296.894623,236.468170 294.871674,237.221634 291.990295,235.918304 
z"/>
<path fill="#C8941A" opacity="1.000000" stroke="none" 
	d="
M391.051727,837.148804 
	C393.931335,838.161682 396.044800,839.493408 394.245667,842.609253 
	C393.365417,844.133728 391.760193,844.779968 389.950623,844.338684 
	C388.510956,843.987671 387.709137,842.953064 387.584412,841.503174 
	C387.386871,839.207825 388.414490,837.715393 391.051727,837.148804 
z"/>
<path fill="#C8941A" opacity="1.000000" stroke="none" 
	d="
M377.077759,914.851440 
	C378.340668,917.628296 377.475098,919.340332 375.114838,920.262512 
	C373.574921,920.864136 372.186005,920.277222 371.244720,918.946594 
	C370.189911,917.455383 370.084778,915.801147 371.382050,914.456238 
	C373.152527,912.620667 375.084625,912.577942 377.077759,914.851440 
z"/>
<path fill="#C8941A" opacity="1.000000" stroke="none" 
	d="
M218.559174,779.164795 
	C219.978653,776.285217 221.930237,776.459106 224.010620,777.678528 
	C225.291550,778.429321 225.728622,779.727783 225.233688,781.078430 
	C224.688019,782.567505 223.443573,783.509155 221.835037,783.437866 
	C219.443024,783.331726 218.391632,781.858704 218.559174,779.164795 
z"/>
<path fill="#C8941A" opacity="1.000000" stroke="none" 
	d="
M183.581390,589.322998 
	C186.398132,588.704895 187.792831,589.875488 187.983871,592.232727 
	C188.114151,593.840210 187.129272,595.046204 185.569794,595.604065 
	C184.140762,596.115356 182.868912,595.600708 182.054459,594.474304 
	C180.594986,592.455872 181.229004,590.764771 183.581390,589.322998 
z"/>
<path fill="#C8941A" opacity="1.000000" stroke="none" 
	d="
M457.369415,246.196320 
	C455.397522,247.623932 453.707306,247.950882 452.488373,245.860764 
	C451.565948,244.279022 452.486420,242.996918 453.649811,241.960297 
	C454.688293,241.034988 455.926758,240.455872 457.248444,241.341690 
	C459.242523,242.678177 458.993164,244.296036 457.369415,246.196320 
z"/>
<path fill="#C8941A" opacity="1.000000" stroke="none" 
	d="
M237.876541,134.195541 
	C239.096100,131.932755 240.674423,131.325546 242.527863,132.555405 
	C243.951630,133.500137 244.038696,134.999146 243.379959,136.527588 
	C242.824493,137.816437 241.984848,139.009674 240.470169,138.695511 
	C238.378342,138.261642 237.640244,136.637909 237.876541,134.195541 
z"/>
<path fill="#C8941A" opacity="1.000000" stroke="none" 
	d="
M275.793243,213.221924 
	C276.815460,215.352081 276.460510,216.763992 274.320221,217.158936 
	C272.659485,217.465408 271.008698,217.242996 270.047424,215.568115 
	C269.421326,214.477188 269.449127,213.276840 270.426208,212.436066 
	C272.257660,210.860184 274.008362,211.311630 275.793243,213.221924 
z"/>
<path fill="#C8941A" opacity="1.000000" stroke="none" 
	d="
M261.895874,316.116364 
	C259.023407,315.257538 257.932709,313.634247 259.587494,311.341370 
	C260.724274,309.766174 262.601532,309.919891 263.800568,311.360626 
	C265.591095,313.512115 264.978363,315.225677 261.895874,316.116364 
z"/>
<path fill="#C8941A" opacity="1.000000" stroke="none" 
	d="
M269.955170,316.716248 
	C269.712250,314.365143 270.543243,313.106445 272.595276,313.057922 
	C274.068604,313.023071 275.026093,313.963928 275.553497,315.288391 
	C276.052338,316.541290 275.557007,317.668060 274.608276,318.370636 
	C272.660828,319.812836 271.252686,318.718109 269.955170,316.716248 
z"/>
<path fill="#C8941A" opacity="1.000000" stroke="none" 
	d="
M430.825928,267.907593 
	C429.177216,264.985077 430.326538,263.362976 432.940857,263.048035 
	C434.688934,262.837402 435.630585,264.429962 435.384705,266.075134 
	C435.004944,268.616211 433.461914,269.398560 430.825928,267.907593 
z"/>
<path fill="#C8941A" opacity="1.000000" stroke="none" 
	d="
M235.774109,156.263275 
	C238.108032,153.850037 239.810425,154.673721 240.852646,157.032730 
	C241.537125,158.582016 240.773407,160.154907 239.103317,160.449081 
	C236.208969,160.958878 235.419022,159.129440 235.774109,156.263275 
z"/>
<path fill="#C8941A" opacity="1.000000" stroke="none" 
	d="
M445.944092,263.196472 
	C443.189758,262.568604 441.584625,261.311279 443.099182,258.625031 
	C443.832947,257.323608 445.367188,256.982544 446.585724,257.891693 
	C448.977722,259.676361 448.342316,261.500793 445.944092,263.196472 
z"/>
<path fill="#C8941A" opacity="1.000000" stroke="none" 
	d="
M247.996796,188.071960 
	C247.219696,186.514191 245.963348,185.083801 248.190033,184.195114 
	C249.389191,183.716522 250.519562,184.341446 251.036621,185.503067 
	C251.715515,187.028305 252.264648,188.822586 250.560287,189.945007 
	C249.048355,190.940689 248.772949,189.183762 247.996796,188.071960 
z"/>
<path fill="#C8941A" opacity="1.000000" stroke="none" 
	d="
M379.232178,843.038818 
	C376.825684,844.262817 375.396332,843.493652 375.110352,841.296509 
	C374.917206,839.812683 376.136780,838.797424 377.569031,838.956238 
	C379.889679,839.213501 380.469116,840.681519 379.232178,843.038818 
z"/>
<path fill="#C8941A" opacity="1.000000" stroke="none" 
	d="
M370.551392,904.483765 
	C370.114380,901.862183 371.116760,900.631775 373.400696,901.111267 
	C374.857910,901.417236 375.486115,902.784790 374.865997,904.158875 
	C373.908447,906.280823 372.413818,906.541931 370.551392,904.483765 
z"/>
<path fill="#C8941A" opacity="1.000000" stroke="none" 
	d="
M249.931793,115.440147 
	C252.170059,116.439308 252.710938,117.768120 251.117264,119.353294 
	C249.975845,120.488602 248.558640,120.325874 247.796158,118.930222 
	C246.802094,117.110619 247.390152,115.758377 249.931793,115.440147 
z"/>
<path fill="#C8941A" opacity="1.000000" stroke="none" 
	d="
M224.404572,770.514893 
	C222.587875,768.851135 222.641098,767.416687 224.538681,766.441223 
	C225.976440,765.702087 227.207443,766.451904 227.514175,767.923767 
	C227.952820,770.028687 226.796371,770.912537 224.404572,770.514893 
z"/>
<path fill="#C8941A" opacity="1.000000" stroke="none" 
	d="
M169.662003,582.615967 
	C169.926483,580.128479 171.169479,579.417480 173.029724,580.441772 
	C174.361343,581.174988 174.680618,582.644714 173.589981,583.745361 
	C172.112854,585.236023 170.680603,584.833740 169.662003,582.615967 
z"/>
<path fill="#C8941A" opacity="1.000000" stroke="none" 
	d="
M249.510956,308.528625 
	C248.992737,305.915009 250.088699,305.129639 252.199341,305.691925 
	C253.307526,305.987122 253.806122,307.004913 253.445877,308.039001 
	C252.681702,310.232544 251.294205,310.267914 249.510956,308.528625 
z"/>
</svg>